<svg width="165" height="238" viewBox="0 0 165 238" fill="none" xmlns="http://www.w3.org/2000/svg">
<path d="M84.7253 116.891C84.7253 116.891 84.0969 173.394 135.7 175.896" stroke="#B3B3B3" stroke-width="2"/>
<path d="M133.924 174.133L135.818 175.941L133.805 177.6" stroke="#B3B3B3" stroke-width="2"/>
<path d="M84.725 116.99C84.725 116.99 76.5555 196.703 135.661 202.264" stroke="#B3B3B3" stroke-width="2"/>
<path d="M134.416 200.025L136.021 202.255L133.778 203.812" stroke="#B3B3B3" stroke-width="2"/>
<path d="M84.7253 116.906C84.7253 116.906 70.231 207.74 135.611 227.862" stroke="#B3B3B3" stroke-width="2"/>
<path d="M134.75 225.742L135.932 228.117L133.444 229.218" stroke="#B3B3B3" stroke-width="2"/>
<path d="M84.674 127.209C84.674 127.209 84.0545 151.687 135.701 150.778" stroke="#B3B3B3" stroke-width="2"/>
<path d="M133.939 148.844L135.952 150.77L133.939 152.688" stroke="#B3B3B3" stroke-width="2"/>
<path d="M103.474 120.139H108.733C110.215 120.139 111.409 119.009 111.409 117.606V111.293C111.409 109.889 110.215 108.76 108.733 108.76H103.474V120.139Z" fill="#42DCFF"/>
<path d="M103.478 108.762H98.2192C96.7369 108.762 95.5435 109.891 95.5435 111.295V117.608C95.5435 119.011 96.7369 120.141 98.2192 120.141H103.478V108.762Z" fill="#4AF3FF"/>
<path d="M62.915 120.139H68.1738C69.6562 120.139 70.8496 119.009 70.8496 117.606V111.293C70.8496 109.889 69.6562 108.76 68.1738 108.76H62.915V120.139Z" fill="#42DCFF"/>
<path d="M62.9189 108.762H57.6602C56.1778 108.762 54.9844 109.891 54.9844 111.295V117.608C54.9844 119.011 56.1778 120.141 57.6602 120.141H62.9189V108.762Z" fill="#4AF3FF"/>
<path d="M83.098 111.763L49.3652 111.412C49.3652 111.412 46.8111 111.28 41.8789 107.504C36.9467 103.728 37.2957 96.0912 37.2957 96.0912V18.8414C37.2957 18.8414 36.198 0.803089 63.3251 7.47738C63.3251 7.47738 69.9748 0.0127214 73.1455 0.166403H83.076L83.098 111.763Z" fill="#42DCFF"/>
<path d="M82.9565 111.763L116.689 111.412C116.689 111.412 119.243 111.28 124.176 107.504C129.108 103.728 128.759 96.0912 128.759 96.0912V18.8414C128.759 18.8414 129.857 0.803089 102.729 7.47738C102.729 7.47738 96.0797 0.0127214 92.909 0.166403H82.9786L82.9565 111.763Z" fill="#42DCFF"/>
<path d="M80.7009 111.716L48.7269 111.365C48.7269 111.365 46.3059 111.233 41.6308 107.457C36.9558 103.681 37.2866 96.0443 37.2866 96.0443V18.7946C37.2866 18.7946 36.2461 0.756213 61.9589 7.4305C61.9589 7.4305 68.2619 -0.0341536 71.2673 0.119528H80.68L80.7009 111.716Z" fill="#4AF3FF"/>
<path d="M80.5669 111.716L112.541 111.365C112.541 111.365 114.962 111.233 119.637 107.457C124.312 103.681 123.981 96.0443 123.981 96.0443V18.7946C123.981 18.7946 125.022 0.756214 99.3089 7.43051C99.3089 7.43051 93.0059 -0.0341536 90.0005 0.119528H80.5878L80.5669 111.716Z" fill="#4AF3FF"/>
<path d="M58.7813 103.879L58.7813 111.579H66.9157L66.9157 103.879L75.8374 103.879C76.761 103.879 78.3771 103.601 78.9788 104.455C79.7532 105.553 79.2486 108.065 79.2486 109.343V121.763C79.2486 123.063 78.7744 125.382 79.8568 126.375C80.9314 127.361 83.3814 127.05 84.759 126.968C87.821 126.787 87.1206 123.607 87.1206 121.515V109.343C87.1206 108.065 86.616 105.553 87.3904 104.455C87.9921 103.601 89.6082 103.879 90.5318 103.879H99.4535V111.579H107.588V103.879C112.23 103.879 118.269 105.02 121.709 101.391C125.278 97.626 123.857 90.4155 123.857 85.7462L123.857 45.7552C123.857 40.2789 124.907 33.6799 123.396 28.3678C122.561 25.434 119.769 23.0633 116.51 22.9131C98.8473 22.0993 80.9277 22.9032 63.2421 22.9032C57.5858 22.9032 48.1262 21.0638 44.2264 25.8841C40.8772 30.0241 42.5124 38.3494 42.5124 43.2713V83.7591C42.5124 88.5473 41.0305 96.1881 43.8593 100.401C47.0197 105.108 53.7637 103.879 58.7813 103.879ZM82.9222 46.9972H83.447C84.5286 44.82 87.4082 43.5048 89.7446 42.8254C98.1968 40.3683 106.26 45.9224 107.476 53.9521C108.993 63.9789 99.2181 73.4635 91.8438 79.1827C89.8971 80.6925 85.8349 84.6339 83.1846 84.6155C81.0206 84.6004 77.7238 81.5559 76.0998 80.331C69.9811 75.7162 63.8682 70.3365 60.7301 63.391C58.1368 57.6509 57.8157 50.4364 63.0033 45.827C67.7654 41.5961 79.5333 40.1751 82.9222 46.9972Z" fill="#B91C1C"/>
<path d="M111.95 22.8361C111.95 22.8361 117.862 28.1611 117.204 35.9388V90.6733C117.204 90.6733 118.074 99.1191 113.556 103.954C113.556 103.954 126.144 106.239 123.869 88.4314V34.9271C123.869 34.9271 126.316 21.3799 111.95 22.8361Z" fill="#A80202"/>
<path d="M94.459 42.2773C94.459 42.2773 114.794 58.5129 83.5264 84.7975C83.5264 84.7975 85.1918 84.0885 86.7149 83.2752C86.7149 83.2752 94.5646 77.3233 98.8214 73.0719C98.8214 73.0719 103.781 68.303 106.163 62.7577C106.163 62.7577 109.727 56.1901 106.369 49.9425C106.369 49.9425 103.18 42.6841 94.459 42.2773Z" fill="#42DCFF"/>
<path d="M90.8646 6.98047H73.852C72.2861 6.98047 71.0166 8.18216 71.0166 9.66451C71.0166 11.1469 72.2861 12.3485 73.852 12.3485H90.8646C92.4305 12.3485 93.7 11.1469 93.7 9.66451C93.7 8.18216 92.4305 6.98047 90.8646 6.98047Z" fill="#AFFCFF"/>
<path d="M144.659 145.819C146.194 145.819 147.438 144.678 147.438 143.272C147.438 141.865 146.194 140.725 144.659 140.725C143.124 140.725 141.879 141.865 141.879 143.272C141.879 144.678 143.124 145.819 144.659 145.819Z" fill="#B3B3B3"/>
<path d="M146.704 146.58H142.614C141.876 146.58 141.278 147.128 141.278 147.805V154.625C141.278 155.302 141.876 155.85 142.614 155.85H146.704C147.442 155.85 148.041 155.302 148.041 154.625V147.805C148.041 147.128 147.442 146.58 146.704 146.58Z" fill="#B3B3B3"/>
<path d="M145.765 153.178H143.553C142.975 153.178 142.506 153.608 142.506 154.138V159.952C142.506 160.482 142.975 160.912 143.553 160.912H145.765C146.343 160.912 146.812 160.482 146.812 159.952V154.138C146.812 153.608 146.343 153.178 145.765 153.178Z" fill="#B3B3B3"/>
<path d="M21.3902 145.819C22.9252 145.819 24.1696 144.678 24.1696 143.272C24.1696 141.865 22.9252 140.725 21.3902 140.725C19.8552 140.725 18.6108 141.865 18.6108 143.272C18.6108 144.678 19.8552 145.819 21.3902 145.819Z" fill="#B91C1C"/>
<path d="M23.4357 146.58H19.3458C18.6077 146.58 18.0093 147.128 18.0093 147.805V154.625C18.0093 155.302 18.6077 155.85 19.3458 155.85H23.4357C24.1739 155.85 24.7722 155.302 24.7722 154.625V147.805C24.7722 147.128 24.1739 146.58 23.4357 146.58Z" fill="#B91C1C"/>
<path d="M22.4956 153.178H20.2843C19.7058 153.178 19.2368 153.608 19.2368 154.138V159.952C19.2368 160.482 19.7058 160.912 20.2843 160.912H22.4956C23.0742 160.912 23.5431 160.482 23.5431 159.952V154.138C23.5431 153.608 23.0742 153.178 22.4956 153.178Z" fill="#B91C1C"/>
<path d="M81.7615 116.891C81.7615 116.891 82.3899 173.394 30.7866 175.896" stroke="#B91C1C" stroke-width="2"/>
<path d="M32.5625 174.133L30.6689 175.941L32.6816 177.6" stroke="#B91C1C" stroke-width="2"/>
<path d="M81.7599 116.99C81.7599 116.99 89.9294 196.703 30.8237 202.264" stroke="#B91C1C" stroke-width="2"/>
<path d="M32.0693 200.025L30.4634 202.255L32.7068 203.812" stroke="#B91C1C" stroke-width="2"/>
<path d="M81.7615 116.906C81.7615 116.906 96.2558 207.74 30.876 227.862" stroke="#B91C1C" stroke-width="2"/>
<path d="M31.7362 225.742L30.5542 228.117L33.0415 229.218" stroke="#B91C1C" stroke-width="2"/>
<path d="M81.8109 127.209C81.8109 127.209 82.4304 151.687 30.7837 150.778" stroke="#B91C1C" stroke-width="2"/>
<path d="M32.3564 148.605L30.5332 150.772L32.3564 152.69" stroke="#B91C1C" stroke-width="2"/>
<path d="M144.66 171.221C146.195 171.221 147.439 170.081 147.439 168.674C147.439 167.267 146.195 166.127 144.66 166.127C143.125 166.127 141.88 167.267 141.88 168.674C141.88 170.081 143.125 171.221 144.66 171.221Z" fill="#B3B3B3"/>
<path d="M146.705 171.984H142.615C141.877 171.984 141.278 172.533 141.278 173.209V180.03C141.278 180.706 141.877 181.254 142.615 181.254H146.705C147.443 181.254 148.041 180.706 148.041 180.03V173.209C148.041 172.533 147.443 171.984 146.705 171.984Z" fill="#B3B3B3"/>
<path d="M145.765 178.58H143.554C142.975 178.58 142.506 179.01 142.506 179.54V185.354C142.506 185.884 142.975 186.314 143.554 186.314H145.765C146.344 186.314 146.813 185.884 146.813 185.354V179.54C146.813 179.01 146.344 178.58 145.765 178.58Z" fill="#B3B3B3"/>
<path d="M21.3897 171.221C22.9247 171.221 24.1691 170.081 24.1691 168.674C24.1691 167.267 22.9247 166.127 21.3897 166.127C19.8547 166.127 18.6104 167.267 18.6104 168.674C18.6104 170.081 19.8547 171.221 21.3897 171.221Z" fill="#B91C1C"/>
<path d="M23.4347 171.984H19.3448C18.6067 171.984 18.0083 172.533 18.0083 173.209V180.03C18.0083 180.706 18.6067 181.254 19.3448 181.254H23.4347C24.1729 181.254 24.7713 180.706 24.7713 180.03V173.209C24.7713 172.533 24.1729 171.984 23.4347 171.984Z" fill="#B91C1C"/>
<path d="M22.4951 178.58H20.2838C19.7053 178.58 19.2363 179.01 19.2363 179.54V185.354C19.2363 185.884 19.7053 186.314 20.2838 186.314H22.4951C23.0737 186.314 23.5427 185.884 23.5427 185.354V179.54C23.5427 179.01 23.0737 178.58 22.4951 178.58Z" fill="#B91C1C"/>
<path d="M144.659 196.62C146.194 196.62 147.439 195.479 147.439 194.072C147.439 192.666 146.194 191.525 144.659 191.525C143.124 191.525 141.88 192.666 141.88 194.072C141.88 195.479 143.124 196.62 144.659 196.62Z" fill="#B3B3B3"/>
<path d="M146.705 197.383H142.615C141.877 197.383 141.278 197.931 141.278 198.608V205.428C141.278 206.104 141.877 206.653 142.615 206.653H146.705C147.443 206.653 148.041 206.104 148.041 205.428V198.608C148.041 197.931 147.443 197.383 146.705 197.383Z" fill="#B3B3B3"/>
<path d="M145.765 203.979H143.554C142.975 203.979 142.506 204.408 142.506 204.938V210.752C142.506 211.283 142.975 211.712 143.554 211.712H145.765C146.344 211.712 146.813 211.283 146.813 210.752V204.938C146.813 204.408 146.344 203.979 145.765 203.979Z" fill="#B3B3B3"/>
<path d="M21.3897 196.62C22.9247 196.62 24.1691 195.479 24.1691 194.072C24.1691 192.666 22.9247 191.525 21.3897 191.525C19.8547 191.525 18.6104 192.666 18.6104 194.072C18.6104 195.479 19.8547 196.62 21.3897 196.62Z" fill="#B91C1C"/>
<path d="M23.4352 197.383H19.3453C18.6072 197.383 18.0088 197.931 18.0088 198.608V205.428C18.0088 206.104 18.6072 206.653 19.3453 206.653H23.4352C24.1734 206.653 24.7718 206.104 24.7718 205.428V198.608C24.7718 197.931 24.1734 197.383 23.4352 197.383Z" fill="#B91C1C"/>
<path d="M22.4956 203.979H20.2843C19.7058 203.979 19.2368 204.408 19.2368 204.938V210.752C19.2368 211.283 19.7058 211.712 20.2843 211.712H22.4956C23.0742 211.712 23.5431 211.283 23.5431 210.752V204.938C23.5431 204.408 23.0742 203.979 22.4956 203.979Z" fill="#B91C1C"/>
<path d="M144.66 222.022C146.195 222.022 147.439 220.881 147.439 219.475C147.439 218.068 146.195 216.928 144.66 216.928C143.125 216.928 141.88 218.068 141.88 219.475C141.88 220.881 143.125 222.022 144.66 222.022Z" fill="#B3B3B3"/>
<path d="M146.705 222.785H142.615C141.877 222.785 141.278 223.334 141.278 224.01V230.83C141.278 231.507 141.877 232.055 142.615 232.055H146.705C147.443 232.055 148.041 231.507 148.041 230.83V224.01C148.041 223.334 147.443 222.785 146.705 222.785Z" fill="#B3B3B3"/>
<path d="M145.765 229.381H143.554C142.975 229.381 142.506 229.811 142.506 230.341V236.155C142.506 236.685 142.975 237.115 143.554 237.115H145.765C146.344 237.115 146.813 236.685 146.813 236.155V230.341C146.813 229.811 146.344 229.381 145.765 229.381Z" fill="#B3B3B3"/>
<path d="M21.3897 222.022C22.9247 222.022 24.1691 220.881 24.1691 219.475C24.1691 218.068 22.9247 216.928 21.3897 216.928C19.8547 216.928 18.6104 218.068 18.6104 219.475C18.6104 220.881 19.8547 222.022 21.3897 222.022Z" fill="#B91C1C"/>
<path d="M23.4347 222.785H19.3448C18.6067 222.785 18.0083 223.334 18.0083 224.01V230.83C18.0083 231.507 18.6067 232.055 19.3448 232.055H23.4347C24.1729 232.055 24.7713 231.507 24.7713 230.83V224.01C24.7713 223.334 24.1729 222.785 23.4347 222.785Z" fill="#B91C1C"/>
<path d="M22.4951 229.381H20.2838C19.7053 229.381 19.2363 229.811 19.2363 230.341V236.155C19.2363 236.685 19.7053 237.115 20.2838 237.115H22.4951C23.0737 237.115 23.5427 236.685 23.5427 236.155V230.341C23.5427 229.811 23.0737 229.381 22.4951 229.381Z" fill="#B91C1C"/>
<path d="M13.1671 153.447V149.48H14.0671V153.447H13.1671ZM11.6338 151.914V151.014H15.6004V151.914H11.6338Z" fill="#B91C1C"/>
<path d="M10.4764 151.453C10.4764 152.085 10.358 152.627 10.121 153.078C9.88602 153.527 9.56502 153.871 9.15804 154.109C8.75297 154.348 8.29345 154.468 7.77947 154.468C7.26549 154.468 6.80501 154.348 6.39804 154.109C5.99297 153.869 5.67197 153.524 5.43504 153.075C5.20003 152.624 5.08252 152.083 5.08252 151.453C5.08252 150.82 5.20003 150.279 5.43504 149.83C5.67197 149.379 5.99297 149.035 6.39804 148.796C6.80501 148.557 7.26549 148.438 7.77947 148.438C8.29345 148.438 8.75297 148.557 9.15804 148.796C9.56502 149.035 9.88602 149.379 10.121 149.83C10.358 150.279 10.4764 150.82 10.4764 151.453ZM9.40739 151.453C9.40739 151.007 9.33765 150.632 9.19816 150.326C9.06059 150.019 8.86952 149.786 8.62495 149.63C8.38039 149.471 8.09856 149.392 7.77947 149.392C7.46038 149.392 7.17856 149.471 6.93399 149.63C6.68942 149.786 6.49739 150.019 6.35791 150.326C6.22034 150.632 6.15156 151.007 6.15156 151.453C6.15156 151.898 6.22034 152.274 6.35791 152.582C6.49739 152.888 6.68942 153.12 6.93399 153.278C7.17856 153.435 7.46038 153.513 7.77947 153.513C8.09856 153.513 8.38039 153.435 8.62495 153.278C8.86952 153.12 9.06059 152.888 9.19816 152.582C9.33765 152.274 9.40739 151.898 9.40739 151.453Z" fill="#B91C1C"/>
<path d="M160.06 151.025V151.879H157.417V151.025H160.06Z" fill="#B3B3B3"/>
<path d="M156.432 151.453C156.432 152.085 156.314 152.627 156.077 153.078C155.842 153.527 155.521 153.871 155.114 154.109C154.709 154.348 154.249 154.468 153.735 154.468C153.221 154.468 152.761 154.348 152.354 154.109C151.949 153.869 151.628 153.524 151.391 153.075C151.156 152.624 151.038 152.083 151.038 151.453C151.038 150.82 151.156 150.279 151.391 149.83C151.628 149.379 151.949 149.035 152.354 148.796C152.761 148.557 153.221 148.438 153.735 148.438C154.249 148.438 154.709 148.557 155.114 148.796C155.521 149.035 155.842 149.379 156.077 149.83C156.314 150.279 156.432 150.82 156.432 151.453ZM155.363 151.453C155.363 151.007 155.293 150.632 155.154 150.326C155.016 150.019 154.825 149.786 154.581 149.63C154.336 149.471 154.054 149.392 153.735 149.392C153.416 149.392 153.134 149.471 152.89 149.63C152.645 149.786 152.453 150.019 152.313 150.326C152.176 150.632 152.107 151.007 152.107 151.453C152.107 151.898 152.176 152.274 152.313 152.582C152.453 152.888 152.645 153.12 152.89 153.278C153.134 153.435 153.416 153.513 153.735 153.513C154.054 153.513 154.336 153.435 154.581 153.278C154.825 153.12 155.016 152.888 155.154 152.582C155.293 152.274 155.363 151.898 155.363 151.453Z" fill="#B3B3B3"/>
<path d="M12.9611 178.916V174.949H13.861V178.916H12.9611ZM11.4277 177.382V176.483H15.3943V177.382H11.4277Z" fill="#B91C1C"/>
<path d="M6.18915 179.856H5.0542L7.12062 173.986H8.43327L10.5026 179.856H9.3676L7.79987 175.19H7.75402L6.18915 179.856ZM6.22641 177.555H9.32175V178.409H6.22641V177.555Z" fill="#B91C1C"/>
<path d="M159.854 176.494V177.348H157.212V176.494H159.854Z" fill="#B3B3B3"/>
<path d="M152.146 179.856H151.011L153.077 173.986H154.39L156.459 179.856H155.324L153.756 175.19H153.711L152.146 179.856ZM152.183 177.555H155.278V178.409H152.183V177.555Z" fill="#B3B3B3"/>
<path d="M12.694 204.383V200.416H13.5939V204.383H12.694ZM11.1606 202.849V201.949H15.1273V202.849H11.1606Z" fill="#B91C1C"/>
<path d="M5.70459 205.323V199.453H7.95157C8.37575 199.453 8.72827 199.52 9.00914 199.654C9.29193 199.786 9.50306 199.966 9.64254 200.195C9.78393 200.425 9.85463 200.685 9.85463 200.975C9.85463 201.214 9.80877 201.418 9.71706 201.588C9.62534 201.756 9.5021 201.893 9.34734 201.998C9.19257 202.103 9.01965 202.179 8.82858 202.225V202.282C9.03685 202.293 9.23652 202.357 9.42759 202.474C9.62057 202.589 9.7782 202.751 9.90049 202.961C10.0228 203.171 10.0839 203.425 10.0839 203.724C10.0839 204.027 10.0104 204.301 9.86323 204.543C9.7161 204.784 9.49446 204.974 9.1983 205.114C8.90214 205.253 8.52956 205.323 8.08054 205.323H5.70459ZM6.76789 204.434H7.91145C8.29741 204.434 8.57541 204.361 8.74547 204.214C8.91743 204.065 9.00341 203.874 9.00341 203.64C9.00341 203.467 8.96042 203.31 8.87444 203.17C8.78846 203.029 8.66617 202.918 8.50759 202.838C8.349 202.756 8.15984 202.715 7.94011 202.715H6.76789V204.434ZM6.76789 201.949H7.81973C8.00316 201.949 8.16844 201.916 8.31556 201.849C8.46268 201.78 8.57828 201.684 8.66235 201.56C8.74833 201.434 8.79132 201.285 8.79132 201.113C8.79132 200.885 8.71108 200.698 8.55058 200.551C8.39199 200.404 8.15602 200.33 7.84266 200.33H6.76789V201.949Z" fill="#B91C1C"/>
<path d="M159.586 201.961V202.815H156.944V201.961H159.586Z" fill="#B3B3B3"/>
<path d="M151.66 205.323V199.453H153.907C154.331 199.453 154.683 199.52 154.964 199.654C155.247 199.786 155.458 199.966 155.598 200.195C155.739 200.425 155.81 200.685 155.81 200.975C155.81 201.214 155.764 201.418 155.672 201.588C155.58 201.756 155.457 201.893 155.302 201.998C155.148 202.103 154.975 202.179 154.784 202.225V202.282C154.992 202.293 155.192 202.357 155.383 202.474C155.576 202.589 155.733 202.751 155.856 202.961C155.978 203.171 156.039 203.425 156.039 203.724C156.039 204.027 155.965 204.301 155.818 204.543C155.671 204.784 155.45 204.974 155.153 205.114C154.857 205.253 154.485 205.323 154.036 205.323H151.66ZM152.723 204.434H153.867C154.252 204.434 154.53 204.361 154.701 204.214C154.873 204.065 154.958 203.874 154.958 203.64C154.958 203.467 154.915 203.31 154.83 203.17C154.744 203.029 154.621 202.918 154.463 202.838C154.304 202.756 154.115 202.715 153.895 202.715H152.723V204.434ZM152.723 201.949H153.775C153.958 201.949 154.124 201.916 154.271 201.849C154.418 201.78 154.533 201.684 154.617 201.56C154.703 201.434 154.746 201.285 154.746 201.113C154.746 200.885 154.666 200.698 154.506 200.551C154.347 200.404 154.111 200.33 153.798 200.33H152.723V201.949Z" fill="#B3B3B3"/>
<path d="M13.2111 229.76V225.793H14.111V229.76H13.2111ZM11.6777 228.226V227.326H15.6443V228.226H11.6777Z" fill="#B91C1C"/>
<path d="M6.22168 230.7V224.83H8.46866C8.89284 224.83 9.24536 224.897 9.52623 225.031C9.80902 225.163 10.0201 225.343 10.1596 225.572C10.301 225.802 10.3717 226.062 10.3717 226.352C10.3717 226.591 10.3259 226.795 10.2341 226.965C10.1424 227.133 10.0192 227.27 9.86443 227.375C9.70966 227.48 9.53674 227.556 9.34567 227.602V227.659C9.55394 227.67 9.75361 227.734 9.94468 227.851C10.1377 227.966 10.2953 228.128 10.4176 228.338C10.5399 228.548 10.601 228.802 10.601 229.1C10.601 229.404 10.5274 229.678 10.3803 229.92C10.2332 230.161 10.0116 230.351 9.71539 230.491C9.41923 230.63 9.04665 230.7 8.59763 230.7H6.22168ZM7.28498 229.811H8.42854C8.8145 229.811 9.0925 229.738 9.26256 229.591C9.43452 229.442 9.5205 229.25 9.5205 229.017C9.5205 228.844 9.47751 228.687 9.39153 228.547C9.30555 228.406 9.18326 228.295 9.02467 228.215C8.86609 228.133 8.67693 228.092 8.4572 228.092H7.28498V229.811ZM7.28498 227.326H8.33682C8.52025 227.326 8.68553 227.293 8.83265 227.226C8.97977 227.157 9.09537 227.061 9.17944 226.937C9.26542 226.811 9.30841 226.661 9.30841 226.49C9.30841 226.262 9.22816 226.075 9.06767 225.928C8.90908 225.781 8.67311 225.707 8.35975 225.707H7.28498V227.326Z" fill="#B91C1C"/>
<path d="M1.13496 230.7H0L2.06642 224.83H3.37907L5.44836 230.7H4.3134L2.74567 226.034H2.69982L1.13496 230.7ZM1.17221 228.398H4.26755V229.252H1.17221V228.398Z" fill="#B91C1C"/>
<path d="M164.909 227.338V228.192H162.267V227.338H164.909Z" fill="#B3B3B3"/>
<path d="M156.982 230.7V224.83H159.229C159.654 224.83 160.006 224.897 160.287 225.031C160.57 225.163 160.781 225.343 160.92 225.572C161.062 225.802 161.132 226.062 161.132 226.352C161.132 226.591 161.087 226.795 160.995 226.965C160.903 227.133 160.78 227.27 160.625 227.375C160.47 227.48 160.297 227.556 160.106 227.602V227.659C160.315 227.67 160.514 227.734 160.705 227.851C160.898 227.966 161.056 228.128 161.178 228.338C161.301 228.548 161.362 228.802 161.362 229.1C161.362 229.404 161.288 229.678 161.141 229.92C160.994 230.161 160.772 230.351 160.476 230.491C160.18 230.63 159.807 230.7 159.358 230.7H156.982ZM158.046 229.811H159.189C159.575 229.811 159.853 229.738 160.023 229.591C160.195 229.442 160.281 229.25 160.281 229.017C160.281 228.844 160.238 228.687 160.152 228.547C160.066 228.406 159.944 228.295 159.785 228.215C159.627 228.133 159.438 228.092 159.218 228.092H158.046V229.811ZM158.046 227.326H159.098C159.281 227.326 159.446 227.293 159.593 227.226C159.741 227.157 159.856 227.061 159.94 226.937C160.026 226.811 160.069 226.661 160.069 226.49C160.069 226.262 159.989 226.075 159.828 225.928C159.67 225.781 159.434 225.707 159.12 225.707H158.046V227.326Z" fill="#B3B3B3"/>
<path d="M151.896 230.7H150.761L152.827 224.83H154.14L156.209 230.7H155.074L153.506 226.034H153.461L151.896 230.7ZM151.933 228.398H155.028V229.252H151.933V228.398Z" fill="#B3B3B3"/>
<path d="M88.3877 67.0438V59.4863H90.1023V67.0438H88.3877ZM85.4663 64.1224V62.4077H93.0237V64.1224H85.4663Z" fill="#B91C1C"/>
<path d="M83.2612 63.2426C83.2612 64.4475 83.0355 65.4796 82.5841 66.3387C82.1363 67.1942 81.5247 67.8495 80.7493 68.3045C79.9776 68.7596 79.102 68.9871 78.1228 68.9871C77.1435 68.9871 76.2662 68.7596 75.4908 68.3045C74.719 67.8458 74.1074 67.1888 73.656 66.3333C73.2083 65.4741 72.9844 64.4439 72.9844 63.2426C72.9844 62.0376 73.2083 61.0074 73.656 60.1519C74.1074 59.2928 74.719 58.6357 75.4908 58.1806C76.2662 57.7256 77.1435 57.498 78.1228 57.498C79.102 57.498 79.9776 57.7256 80.7493 58.1806C81.5247 58.6357 82.1363 59.2928 82.5841 60.1519C83.0355 61.0074 83.2612 62.0376 83.2612 63.2426ZM81.2244 63.2426C81.2244 62.3944 81.0915 61.679 80.8258 61.0966C80.5637 60.5105 80.1996 60.0682 79.7336 59.7696C79.2677 59.4675 78.7307 59.3164 78.1228 59.3164C77.5148 59.3164 76.9779 59.4675 76.5119 59.7696C76.0459 60.0682 75.6801 60.5105 75.4143 61.0966C75.1522 61.679 75.0212 62.3944 75.0212 63.2426C75.0212 64.0908 75.1522 64.8079 75.4143 65.394C75.6801 65.9765 76.0459 66.4188 76.5119 66.721C76.9779 67.0195 77.5148 67.1687 78.1228 67.1687C78.7307 67.1687 79.2677 67.0195 79.7336 66.721C80.1996 66.4188 80.5637 65.9765 80.8258 65.394C81.0915 64.8079 81.2244 64.0908 81.2244 63.2426Z" fill="#B91C1C"/>
</svg>
