<svg width="166" height="238" viewBox="0 0 166 238" fill="none" xmlns="http://www.w3.org/2000/svg">
<path d="M104.021 120.139H109.279C110.762 120.139 111.955 119.009 111.955 117.606V111.293C111.955 109.889 110.762 108.76 109.279 108.76H104.021V120.139Z" fill="#42DCFF"/>
<path d="M104.024 108.762H98.7651C97.2827 108.762 96.0894 109.891 96.0894 111.295V117.608C96.0894 119.011 97.2827 120.141 98.7651 120.141H104.024V108.762Z" fill="#4AF3FF"/>
<path d="M63.4609 120.139H68.7197C70.2021 120.139 71.3955 119.009 71.3955 117.606V111.293C71.3955 109.889 70.2021 108.76 68.7197 108.76H63.4609V120.139Z" fill="#42DCFF"/>
<path d="M63.4648 108.762H58.206C56.7237 108.762 55.5303 109.891 55.5303 111.295V117.608C55.5303 119.011 56.7237 120.141 58.206 120.141H63.4648V108.762Z" fill="#4AF3FF"/>
<path d="M83.6429 111.763L49.9102 111.412C49.9102 111.412 47.356 111.28 42.4238 107.504C37.4916 103.728 37.8406 96.0912 37.8406 96.0912V18.8414C37.8406 18.8414 36.7429 0.803089 63.8701 7.47738C63.8701 7.47738 70.5197 0.0127214 73.6904 0.166403H83.6209L83.6429 111.763Z" fill="#42DCFF"/>
<path d="M83.502 111.763L117.235 111.412C117.235 111.412 119.789 111.28 124.721 107.504C129.653 103.728 129.304 96.0912 129.304 96.0912V18.8414C129.304 18.8414 130.402 0.803089 103.275 7.47738C103.275 7.47738 96.6251 0.0127214 93.4544 0.166403H83.524L83.502 111.763Z" fill="#42DCFF"/>
<path d="M81.2463 111.716L49.2723 111.365C49.2723 111.365 46.8513 111.233 42.1762 107.457C37.5012 103.681 37.832 96.0443 37.832 96.0443V18.7946C37.832 18.7946 36.7916 0.756213 62.5044 7.4305C62.5044 7.4305 68.8073 -0.0341536 71.8127 0.119528H81.2254L81.2463 111.716Z" fill="#4AF3FF"/>
<path d="M81.1128 111.716L113.087 111.365C113.087 111.365 115.508 111.233 120.183 107.457C124.858 103.681 124.527 96.0443 124.527 96.0443V18.7946C124.527 18.7946 125.568 0.756214 99.8548 7.43051C99.8548 7.43051 93.5518 -0.0341536 90.5464 0.119528H81.1337L81.1128 111.716Z" fill="#4AF3FF"/>
<path d="M59.3267 103.879L59.3267 111.579H67.4612L67.4611 103.879L76.3828 103.879C77.3064 103.879 78.9226 103.601 79.5243 104.455C80.2986 105.553 79.794 108.065 79.794 109.343V121.763C79.794 123.063 79.3198 125.382 80.4022 126.375C81.4768 127.361 83.9268 127.05 85.3044 126.968C88.3664 126.787 87.666 123.607 87.666 121.515V109.343C87.666 108.065 87.1614 105.553 87.9358 104.455C88.5375 103.601 90.1536 103.879 91.0772 103.879H99.9989V111.579H108.133V103.879C112.775 103.879 118.814 105.02 122.254 101.391C125.824 97.626 124.402 90.4155 124.402 85.7462L124.402 45.7552C124.402 40.2789 125.453 33.6799 123.941 28.3678C123.106 25.434 120.314 23.0633 117.055 22.9131C99.3927 22.0993 81.4731 22.9032 63.7875 22.9032C58.1312 22.9032 48.6717 21.0638 44.7719 25.8841C41.4226 30.0241 43.0578 38.3494 43.0578 43.2713V83.7591C43.0578 88.5473 41.5759 96.1881 44.4047 100.401C47.5651 105.108 54.3091 103.879 59.3267 103.879ZM83.4676 46.9972H83.9924C85.074 44.82 87.9536 43.5048 90.29 42.8254C98.7423 40.3683 106.806 45.9224 108.021 53.9521C109.538 63.9789 99.7635 73.4635 92.3893 79.1827C90.4425 80.6925 86.3803 84.6339 83.73 84.6155C81.566 84.6004 78.2692 81.5559 76.6452 80.331C70.5265 75.7162 64.4136 70.3365 61.2755 63.391C58.6822 57.6509 58.3611 50.4364 63.5487 45.827C68.3108 41.5961 80.0787 40.1751 83.4676 46.9972Z" fill="#B91C1C"/>
<path d="M95.0049 42.2773C95.0049 42.2773 115.339 58.5129 84.0723 84.7975C84.0723 84.7975 85.7377 84.0885 87.2608 83.2752C87.2608 83.2752 95.1105 77.3233 99.3673 73.0719C99.3673 73.0719 104.327 68.303 106.709 62.7577C106.709 62.7577 110.273 56.1901 106.915 49.9425C106.915 49.9425 103.725 42.6841 95.0049 42.2773Z" fill="#42DCFF"/>
<path d="M91.4105 6.98047H74.3979C72.832 6.98047 71.5625 8.18216 71.5625 9.66451C71.5625 11.1469 72.832 12.3485 74.3979 12.3485H91.4105C92.9764 12.3485 94.2459 11.1469 94.2459 9.66451C94.2459 8.18216 92.9764 6.98047 91.4105 6.98047Z" fill="#AFFCFF"/>
<path d="M112.496 22.8361C112.496 22.8361 118.407 28.1611 117.75 35.9388V90.6733C117.75 90.6733 118.62 99.1192 114.102 103.954C114.102 103.954 126.689 106.239 124.414 88.4314V34.9271C124.414 34.9271 126.861 21.3799 112.496 22.8361Z" fill="#A80202"/>
<path d="M145.205 145.819C146.74 145.819 147.985 144.678 147.985 143.272C147.985 141.865 146.74 140.725 145.205 140.725C143.67 140.725 142.426 141.865 142.426 143.272C142.426 144.678 143.67 145.819 145.205 145.819Z" fill="#B91C1C"/>
<path d="M147.251 146.58H143.161C142.423 146.58 141.824 147.128 141.824 147.805V154.625C141.824 155.302 142.423 155.85 143.161 155.85H147.251C147.989 155.85 148.587 155.302 148.587 154.625V147.805C148.587 147.128 147.989 146.58 147.251 146.58Z" fill="#B91C1C"/>
<path d="M146.311 153.178H144.1C143.521 153.178 143.052 153.608 143.052 154.138V159.952C143.052 160.482 143.521 160.912 144.1 160.912H146.311C146.89 160.912 147.359 160.482 147.359 159.952V154.138C147.359 153.608 146.89 153.178 146.311 153.178Z" fill="#B91C1C"/>
<path d="M21.9361 145.819C23.4711 145.819 24.7155 144.678 24.7155 143.272C24.7155 141.865 23.4711 140.725 21.9361 140.725C20.4011 140.725 19.1567 141.865 19.1567 143.272C19.1567 144.678 20.4011 145.819 21.9361 145.819Z" fill="#B91C1C"/>
<path d="M23.9811 146.58H19.8912C19.1531 146.58 18.5547 147.128 18.5547 147.805V154.625C18.5547 155.302 19.1531 155.85 19.8912 155.85H23.9811C24.7193 155.85 25.3177 155.302 25.3177 154.625V147.805C25.3177 147.128 24.7193 146.58 23.9811 146.58Z" fill="#B91C1C"/>
<path d="M23.0415 153.178H20.8302C20.2517 153.178 19.7827 153.608 19.7827 154.138V159.952C19.7827 160.482 20.2517 160.912 20.8302 160.912H23.0415C23.6201 160.912 24.089 160.482 24.089 159.952V154.138C24.089 153.608 23.6201 153.178 23.0415 153.178Z" fill="#B91C1C"/>
<path d="M82.3059 116.891C82.3059 116.891 82.9344 173.394 31.3311 175.896" stroke="#B91C1C" stroke-width="2"/>
<path d="M33.1075 174.133L31.2139 175.941L33.2266 177.6" stroke="#B91C1C" stroke-width="2"/>
<path d="M82.3058 116.99C82.3058 116.99 90.4753 196.703 31.3696 202.264" stroke="#B91C1C" stroke-width="2"/>
<path d="M32.6152 200.025L31.0093 202.255L33.2527 203.812" stroke="#B91C1C" stroke-width="2"/>
<path d="M82.3069 116.906C82.3069 116.906 96.8012 207.74 31.4214 227.862" stroke="#B91C1C" stroke-width="2"/>
<path d="M32.2816 225.742L31.0996 228.117L33.5869 229.218" stroke="#B91C1C" stroke-width="2"/>
<path d="M82.3568 127.209C82.3568 127.209 82.9763 151.687 31.3296 150.778" stroke="#B91C1C" stroke-width="2"/>
<path d="M32.9018 148.605L31.0786 150.772L32.9018 152.69" stroke="#B91C1C" stroke-width="2"/>
<path d="M145.206 171.221C146.741 171.221 147.985 170.081 147.985 168.674C147.985 167.267 146.741 166.127 145.206 166.127C143.671 166.127 142.427 167.267 142.427 168.674C142.427 170.081 143.671 171.221 145.206 171.221Z" fill="#B91C1C"/>
<path d="M147.251 171.984H143.161C142.423 171.984 141.825 172.533 141.825 173.209V180.03C141.825 180.706 142.423 181.254 143.161 181.254H147.251C147.989 181.254 148.588 180.706 148.588 180.03V173.209C148.588 172.533 147.989 171.984 147.251 171.984Z" fill="#B91C1C"/>
<path d="M146.312 178.58H144.1C143.522 178.58 143.053 179.01 143.053 179.54V185.354C143.053 185.884 143.522 186.314 144.1 186.314H146.312C146.89 186.314 147.359 185.884 147.359 185.354V179.54C147.359 179.01 146.89 178.58 146.312 178.58Z" fill="#B91C1C"/>
<path d="M21.9361 171.221C23.4711 171.221 24.7155 170.081 24.7155 168.674C24.7155 167.267 23.4711 166.127 21.9361 166.127C20.4011 166.127 19.1567 167.267 19.1567 168.674C19.1567 170.081 20.4011 171.221 21.9361 171.221Z" fill="#B91C1C"/>
<path d="M23.9811 171.984H19.8912C19.1531 171.984 18.5547 172.533 18.5547 173.209V180.03C18.5547 180.706 19.1531 181.254 19.8912 181.254H23.9811C24.7193 181.254 25.3177 180.706 25.3177 180.03V173.209C25.3177 172.533 24.7193 171.984 23.9811 171.984Z" fill="#B91C1C"/>
<path d="M23.0415 178.58H20.8302C20.2517 178.58 19.7827 179.01 19.7827 179.54V185.354C19.7827 185.884 20.2517 186.314 20.8302 186.314H23.0415C23.6201 186.314 24.089 185.884 24.089 185.354V179.54C24.089 179.01 23.6201 178.58 23.0415 178.58Z" fill="#B91C1C"/>
<path d="M145.206 196.62C146.741 196.62 147.985 195.479 147.985 194.072C147.985 192.666 146.741 191.525 145.206 191.525C143.671 191.525 142.426 192.666 142.426 194.072C142.426 195.479 143.671 196.62 145.206 196.62Z" fill="#B91C1C"/>
<path d="M147.251 197.383H143.161C142.423 197.383 141.825 197.931 141.825 198.608V205.428C141.825 206.104 142.423 206.653 143.161 206.653H147.251C147.989 206.653 148.588 206.104 148.588 205.428V198.608C148.588 197.931 147.989 197.383 147.251 197.383Z" fill="#B91C1C"/>
<path d="M146.312 203.979H144.1C143.522 203.979 143.053 204.408 143.053 204.938V210.752C143.053 211.283 143.522 211.712 144.1 211.712H146.312C146.89 211.712 147.359 211.283 147.359 210.752V204.938C147.359 204.408 146.89 203.979 146.312 203.979Z" fill="#B91C1C"/>
<path d="M21.9361 196.62C23.4711 196.62 24.7155 195.479 24.7155 194.072C24.7155 192.666 23.4711 191.525 21.9361 191.525C20.4011 191.525 19.1567 192.666 19.1567 194.072C19.1567 195.479 20.4011 196.62 21.9361 196.62Z" fill="#B91C1C"/>
<path d="M23.9811 197.383H19.8912C19.1531 197.383 18.5547 197.931 18.5547 198.608V205.428C18.5547 206.104 19.1531 206.653 19.8912 206.653H23.9811C24.7193 206.653 25.3177 206.104 25.3177 205.428V198.608C25.3177 197.931 24.7193 197.383 23.9811 197.383Z" fill="#B91C1C"/>
<path d="M23.042 203.979H20.8307C20.2522 203.979 19.7832 204.408 19.7832 204.938V210.752C19.7832 211.283 20.2522 211.712 20.8307 211.712H23.042C23.6205 211.712 24.0895 211.283 24.0895 210.752V204.938C24.0895 204.408 23.6205 203.979 23.042 203.979Z" fill="#B91C1C"/>
<path d="M145.206 222.022C146.741 222.022 147.985 220.881 147.985 219.475C147.985 218.068 146.741 216.928 145.206 216.928C143.671 216.928 142.427 218.068 142.427 219.475C142.427 220.881 143.671 222.022 145.206 222.022Z" fill="#B91C1C"/>
<path d="M147.251 222.785H143.161C142.423 222.785 141.825 223.334 141.825 224.01V230.83C141.825 231.507 142.423 232.055 143.161 232.055H147.251C147.989 232.055 148.588 231.507 148.588 230.83V224.01C148.588 223.334 147.989 222.785 147.251 222.785Z" fill="#B91C1C"/>
<path d="M146.312 229.381H144.1C143.522 229.381 143.053 229.811 143.053 230.341V236.155C143.053 236.685 143.522 237.115 144.1 237.115H146.312C146.89 237.115 147.359 236.685 147.359 236.155V230.341C147.359 229.811 146.89 229.381 146.312 229.381Z" fill="#B91C1C"/>
<path d="M21.9361 222.022C23.4711 222.022 24.7155 220.881 24.7155 219.475C24.7155 218.068 23.4711 216.928 21.9361 216.928C20.4011 216.928 19.1567 218.068 19.1567 219.475C19.1567 220.881 20.4011 222.022 21.9361 222.022Z" fill="#B91C1C"/>
<path d="M23.9811 222.785H19.8912C19.1531 222.785 18.5547 223.334 18.5547 224.01V230.83C18.5547 231.507 19.1531 232.055 19.8912 232.055H23.9811C24.7193 232.055 25.3177 231.507 25.3177 230.83V224.01C25.3177 223.334 24.7193 222.785 23.9811 222.785Z" fill="#B91C1C"/>
<path d="M23.0415 229.381H20.8302C20.2517 229.381 19.7827 229.811 19.7827 230.341V236.155C19.7827 236.685 20.2517 237.115 20.8302 237.115H23.0415C23.6201 237.115 24.089 236.685 24.089 236.155V230.341C24.089 229.811 23.6201 229.381 23.0415 229.381Z" fill="#B91C1C"/>
<path d="M85.2703 116.891C85.2703 116.891 84.6418 173.394 136.245 175.896" stroke="#B91C1C" stroke-width="2"/>
<path d="M134.469 174.133L136.363 175.941L134.35 177.6" stroke="#B91C1C" stroke-width="2"/>
<path d="M85.2694 116.99C85.2694 116.99 77.0999 196.703 136.206 202.264" stroke="#B91C1C" stroke-width="2"/>
<path d="M134.96 200.025L136.566 202.255L134.323 203.812" stroke="#B91C1C" stroke-width="2"/>
<path d="M85.2702 116.906C85.2702 116.906 70.7759 207.74 136.156 227.862" stroke="#B91C1C" stroke-width="2"/>
<path d="M135.295 225.742L136.477 228.117L133.989 229.218" stroke="#B91C1C" stroke-width="2"/>
<path d="M85.2194 127.209C85.2194 127.209 84.5999 151.687 136.247 150.778" stroke="#B91C1C" stroke-width="2"/>
<path d="M134.484 148.844L136.497 150.77L134.484 152.688" stroke="#B91C1C" stroke-width="2"/>
<path d="M13.712 153.447V149.48H14.612V153.447H13.712ZM12.1787 151.914V151.014H16.1453V151.914H12.1787Z" fill="#B91C1C"/>
<path d="M11.0213 151.453C11.0213 152.085 10.9029 152.627 10.666 153.078C10.4309 153.527 10.1099 153.871 9.70296 154.109C9.29789 154.348 8.83837 154.468 8.32439 154.468C7.81041 154.468 7.34994 154.348 6.94296 154.109C6.53789 153.869 6.21689 153.524 5.97997 153.075C5.74495 152.624 5.62744 152.083 5.62744 151.453C5.62744 150.82 5.74495 150.279 5.97997 149.83C6.21689 149.379 6.53789 149.035 6.94296 148.796C7.34994 148.557 7.81041 148.438 8.32439 148.438C8.83837 148.438 9.29789 148.557 9.70296 148.796C10.1099 149.035 10.4309 149.379 10.666 149.83C10.9029 150.279 11.0213 150.82 11.0213 151.453ZM9.95231 151.453C9.95231 151.007 9.88257 150.632 9.74309 150.326C9.60552 150.019 9.41445 149.786 9.16988 149.63C8.92531 149.471 8.64348 149.392 8.32439 149.392C8.00531 149.392 7.72348 149.471 7.47891 149.63C7.23434 149.786 7.04231 150.019 6.90283 150.326C6.76526 150.632 6.69648 151.007 6.69648 151.453C6.69648 151.898 6.76526 152.274 6.90283 152.582C7.04231 152.888 7.23434 153.12 7.47891 153.278C7.72348 153.435 8.00531 153.513 8.32439 153.513C8.64348 153.513 8.92531 153.435 9.16988 153.278C9.41445 153.12 9.60552 152.888 9.74309 152.582C9.88257 152.274 9.95231 151.898 9.95231 151.453Z" fill="#B91C1C"/>
<path d="M160.605 151.025V151.879H157.963V151.025H160.605Z" fill="#B91C1C"/>
<path d="M156.977 151.453C156.977 152.085 156.859 152.627 156.622 153.078C156.387 153.527 156.066 153.871 155.659 154.109C155.254 154.348 154.794 154.468 154.28 154.468C153.766 154.468 153.306 154.348 152.899 154.109C152.494 153.869 152.173 153.524 151.936 153.075C151.701 152.624 151.583 152.083 151.583 151.453C151.583 150.82 151.701 150.279 151.936 149.83C152.173 149.379 152.494 149.035 152.899 148.796C153.306 148.557 153.766 148.438 154.28 148.438C154.794 148.438 155.254 148.557 155.659 148.796C156.066 149.035 156.387 149.379 156.622 149.83C156.859 150.279 156.977 150.82 156.977 151.453ZM155.908 151.453C155.908 151.007 155.839 150.632 155.699 150.326C155.562 150.019 155.371 149.786 155.126 149.63C154.881 149.471 154.6 149.392 154.28 149.392C153.961 149.392 153.68 149.471 153.435 149.63C153.19 149.786 152.998 150.019 152.859 150.326C152.721 150.632 152.653 151.007 152.653 151.453C152.653 151.898 152.721 152.274 152.859 152.582C152.998 152.888 153.19 153.12 153.435 153.278C153.68 153.435 153.961 153.513 154.28 153.513C154.6 153.513 154.881 153.435 155.126 153.278C155.371 153.12 155.562 152.888 155.699 152.582C155.839 152.274 155.908 151.898 155.908 151.453Z" fill="#B91C1C"/>
<path d="M13.507 178.916V174.949H14.4069V178.916H13.507ZM11.9736 177.382V176.483H15.9402V177.382H11.9736Z" fill="#B91C1C"/>
<path d="M6.73505 179.856H5.6001L7.66652 173.986H8.97917L11.0485 179.856H9.9135L8.34577 175.19H8.29992L6.73505 179.856ZM6.77231 177.555H9.86764V178.409H6.77231V177.555Z" fill="#B91C1C"/>
<path d="M160.399 176.494V177.348H157.757V176.494H160.399Z" fill="#B91C1C"/>
<path d="M152.691 179.856H151.556L153.622 173.986H154.935L157.004 179.856H155.869L154.301 175.19H154.255L152.691 179.856ZM152.728 177.555H155.823V178.409H152.728V177.555Z" fill="#B91C1C"/>
<path d="M13.2389 204.383V200.416H14.1388V204.383H13.2389ZM11.7056 202.849V201.949H15.6722V202.849H11.7056Z" fill="#B91C1C"/>
<path d="M6.24951 205.323V199.453H8.49649C8.92067 199.453 9.27319 199.52 9.55407 199.654C9.83685 199.786 10.048 199.966 10.1875 200.195C10.3289 200.425 10.3995 200.685 10.3995 200.975C10.3995 201.214 10.3537 201.418 10.262 201.588C10.1703 201.756 10.047 201.893 9.89226 201.998C9.73749 202.103 9.56457 202.179 9.37351 202.225V202.282C9.58177 202.293 9.78144 202.357 9.97251 202.474C10.1655 202.589 10.3231 202.751 10.4454 202.961C10.5677 203.171 10.6288 203.425 10.6288 203.724C10.6288 204.027 10.5553 204.301 10.4081 204.543C10.261 204.784 10.0394 204.974 9.74323 205.114C9.44707 205.253 9.07448 205.323 8.62547 205.323H6.24951ZM7.31282 204.434H8.45637C8.84233 204.434 9.12034 204.361 9.29039 204.214C9.46235 204.065 9.54833 203.874 9.54833 203.64C9.54833 203.467 9.50534 203.31 9.41936 203.17C9.33338 203.029 9.2111 202.918 9.05251 202.838C8.89392 202.756 8.70476 202.715 8.48503 202.715H7.31282V204.434ZM7.31282 201.949H8.36466C8.54808 201.949 8.71336 201.916 8.86048 201.849C9.00761 201.78 9.1232 201.684 9.20727 201.56C9.29326 201.434 9.33625 201.285 9.33625 201.113C9.33625 200.885 9.256 200.698 9.0955 200.551C8.93691 200.404 8.70094 200.33 8.38758 200.33H7.31282V201.949Z" fill="#B91C1C"/>
<path d="M160.132 201.961V202.815H157.489V201.961H160.132Z" fill="#B91C1C"/>
<path d="M152.205 205.323V199.453H154.452C154.876 199.453 155.229 199.52 155.51 199.654C155.792 199.786 156.004 199.966 156.143 200.195C156.284 200.425 156.355 200.685 156.355 200.975C156.355 201.214 156.309 201.418 156.218 201.588C156.126 201.756 156.003 201.893 155.848 201.998C155.693 202.103 155.52 202.179 155.329 202.225V202.282C155.537 202.293 155.737 202.357 155.928 202.474C156.121 202.589 156.279 202.751 156.401 202.961C156.523 203.171 156.584 203.425 156.584 203.724C156.584 204.027 156.511 204.301 156.364 204.543C156.217 204.784 155.995 204.974 155.699 205.114C155.403 205.253 155.03 205.323 154.581 205.323H152.205ZM153.268 204.434H154.412C154.798 204.434 155.076 204.361 155.246 204.214C155.418 204.065 155.504 203.874 155.504 203.64C155.504 203.467 155.461 203.31 155.375 203.17C155.289 203.029 155.167 202.918 155.008 202.838C154.849 202.756 154.66 202.715 154.441 202.715H153.268V204.434ZM153.268 201.949H154.32C154.504 201.949 154.669 201.916 154.816 201.849C154.963 201.78 155.079 201.684 155.163 201.56C155.249 201.434 155.292 201.285 155.292 201.113C155.292 200.885 155.212 200.698 155.051 200.551C154.892 200.404 154.657 200.33 154.343 200.33H153.268V201.949Z" fill="#B91C1C"/>
<path d="M13.756 229.76V225.793H14.6559V229.76H13.756ZM12.2227 228.226V227.326H16.1893V228.226H12.2227Z" fill="#B91C1C"/>
<path d="M6.76709 230.7V224.83H9.01407C9.43825 224.83 9.79077 224.897 10.0716 225.031C10.3544 225.163 10.5656 225.343 10.705 225.572C10.8464 225.802 10.9171 226.062 10.9171 226.352C10.9171 226.591 10.8713 226.795 10.7796 226.965C10.6878 227.133 10.5646 227.27 10.4098 227.375C10.2551 227.48 10.0822 227.556 9.89108 227.602V227.659C10.0993 227.67 10.299 227.734 10.4901 227.851C10.6831 227.966 10.8407 228.128 10.963 228.338C11.0853 228.548 11.1464 228.802 11.1464 229.1C11.1464 229.404 11.0728 229.678 10.9257 229.92C10.7786 230.161 10.557 230.351 10.2608 230.491C9.96464 230.63 9.59206 230.7 9.14304 230.7H6.76709ZM7.83039 229.811H8.97395C9.35991 229.811 9.63791 229.738 9.80797 229.591C9.97993 229.442 10.0659 229.25 10.0659 229.017C10.0659 228.844 10.0229 228.687 9.93694 228.547C9.85096 228.406 9.72867 228.295 9.57009 228.215C9.4115 228.133 9.22234 228.092 9.00261 228.092H7.83039V229.811ZM7.83039 227.326H8.88223C9.06566 227.326 9.23094 227.293 9.37806 227.226C9.52518 227.157 9.64078 227.061 9.72485 226.937C9.81083 226.811 9.85382 226.661 9.85382 226.49C9.85382 226.262 9.77357 226.075 9.61308 225.928C9.45449 225.781 9.21852 225.707 8.90516 225.707H7.83039V227.326Z" fill="#B91C1C"/>
<path d="M1.68037 230.7H0.54541L2.61183 224.83H3.92448L5.99377 230.7H4.85881L3.29108 226.034H3.24523L1.68037 230.7ZM1.71762 228.398H4.81296V229.252H1.71762V228.398Z" fill="#B91C1C"/>
<path d="M165.455 227.338V228.192H162.812V227.338H165.455Z" fill="#B91C1C"/>
<path d="M157.528 230.7V224.83H159.775C160.199 224.83 160.552 224.897 160.833 225.031C161.116 225.163 161.327 225.343 161.466 225.572C161.608 225.802 161.678 226.062 161.678 226.352C161.678 226.591 161.633 226.795 161.541 226.965C161.449 227.133 161.326 227.27 161.171 227.375C161.016 227.48 160.843 227.556 160.652 227.602V227.659C160.861 227.67 161.06 227.734 161.251 227.851C161.444 227.966 161.602 228.128 161.724 228.338C161.846 228.548 161.908 228.802 161.908 229.1C161.908 229.404 161.834 229.678 161.687 229.92C161.54 230.161 161.318 230.351 161.022 230.491C160.726 230.63 160.353 230.7 159.904 230.7H157.528ZM158.592 229.811H159.735C160.121 229.811 160.399 229.738 160.569 229.591C160.741 229.442 160.827 229.25 160.827 229.017C160.827 228.844 160.784 228.687 160.698 228.547C160.612 228.406 160.49 228.295 160.331 228.215C160.173 228.133 159.984 228.092 159.764 228.092H158.592V229.811ZM158.592 227.326H159.643C159.827 227.326 159.992 227.293 160.139 227.226C160.286 227.157 160.402 227.061 160.486 226.937C160.572 226.811 160.615 226.661 160.615 226.49C160.615 226.262 160.535 226.075 160.374 225.928C160.216 225.781 159.98 225.707 159.666 225.707H158.592V227.326Z" fill="#B91C1C"/>
<path d="M152.442 230.7H151.307L153.373 224.83H154.686L156.755 230.7H155.62L154.052 226.034H154.006L152.442 230.7ZM152.479 228.398H155.574V229.252H152.479V228.398Z" fill="#B91C1C"/>
<path d="M92.3105 62.4277V64.055H87.2759V62.4277H92.3105Z" fill="#B91C1C"/>
<path d="M85.3989 63.2426C85.3989 64.4475 85.1732 65.4796 84.7218 66.3387C84.274 67.1942 83.6624 67.8495 82.887 68.3045C82.1153 68.7596 81.2397 68.9871 80.2605 68.9871C79.2812 68.9871 78.4039 68.7596 77.6285 68.3045C76.8567 67.8458 76.2451 67.1888 75.7937 66.3333C75.346 65.4741 75.1221 64.4439 75.1221 63.2426C75.1221 62.0376 75.346 61.0074 75.7937 60.1519C76.2451 59.2928 76.8567 58.6357 77.6285 58.1806C78.4039 57.7256 79.2812 57.498 80.2605 57.498C81.2397 57.498 82.1153 57.7256 82.887 58.1806C83.6624 58.6357 84.274 59.2928 84.7218 60.1519C85.1732 61.0074 85.3989 62.0376 85.3989 63.2426ZM83.3621 63.2426C83.3621 62.3944 83.2292 61.679 82.9635 61.0966C82.7014 60.5105 82.3373 60.0682 81.8713 59.7696C81.4054 59.4675 80.8684 59.3164 80.2605 59.3164C79.6525 59.3164 79.1156 59.4675 78.6496 59.7696C78.1836 60.0682 77.8178 60.5105 77.552 61.0966C77.2899 61.679 77.1589 62.3944 77.1589 63.2426C77.1589 64.0908 77.2899 64.8079 77.552 65.394C77.8178 65.9765 78.1836 66.4188 78.6496 66.721C79.1156 67.0195 79.6525 67.1687 80.2605 67.1687C80.8684 67.1687 81.4054 67.0195 81.8713 66.721C82.3373 66.4188 82.7014 65.9765 82.9635 65.394C83.2292 64.8079 83.3621 64.0908 83.3621 63.2426Z" fill="#B91C1C"/>
</svg>
