<svg width="165" height="238" viewBox="0 0 165 238" fill="none" xmlns="http://www.w3.org/2000/svg">
<path d="M144.66 146.246C146.195 146.246 147.439 145.106 147.439 143.699C147.439 142.293 146.195 141.152 144.66 141.152C143.125 141.152 141.88 142.293 141.88 143.699C141.88 145.106 143.125 146.246 144.66 146.246Z" fill="#B3B3B3"/>
<path d="M146.705 147.01H142.615C141.877 147.01 141.278 147.558 141.278 148.235V155.055C141.278 155.731 141.877 156.28 142.615 156.28H146.705C147.443 156.28 148.041 155.731 148.041 155.055V148.235C148.041 147.558 147.443 147.01 146.705 147.01Z" fill="#B3B3B3"/>
<path d="M145.765 153.605H143.554C142.975 153.605 142.506 154.035 142.506 154.565V160.379C142.506 160.91 142.975 161.339 143.554 161.339H145.765C146.344 161.339 146.813 160.91 146.813 160.379V154.565C146.813 154.035 146.344 153.605 145.765 153.605Z" fill="#B3B3B3"/>
<path d="M21.3902 146.246C22.9252 146.246 24.1696 145.106 24.1696 143.699C24.1696 142.293 22.9252 141.152 21.3902 141.152C19.8552 141.152 18.6108 142.293 18.6108 143.699C18.6108 145.106 19.8552 146.246 21.3902 146.246Z" fill="#B3B3B3"/>
<path d="M23.4352 147.01H19.3453C18.6072 147.01 18.0088 147.558 18.0088 148.235V155.055C18.0088 155.731 18.6072 156.28 19.3453 156.28H23.4352C24.1734 156.28 24.7718 155.731 24.7718 155.055V148.235C24.7718 147.558 24.1734 147.01 23.4352 147.01Z" fill="#B3B3B3"/>
<path d="M22.4956 153.605H20.2843C19.7058 153.605 19.2368 154.035 19.2368 154.565V160.379C19.2368 160.91 19.7058 161.339 20.2843 161.339H22.4956C23.0742 161.339 23.5431 160.91 23.5431 160.379V154.565C23.5431 154.035 23.0742 153.605 22.4956 153.605Z" fill="#B3B3B3"/>
<path d="M81.7599 117.424C81.7599 117.424 89.9294 197.136 30.8237 202.698" stroke="#B3B3B3" stroke-width="2"/>
<path d="M32.0693 200.459L30.4634 202.688L32.7068 204.245" stroke="#B3B3B3" stroke-width="2"/>
<path d="M81.8104 127.631C81.8104 127.631 82.4299 152.109 30.7832 151.2" stroke="#B3B3B3" stroke-width="2"/>
<path d="M32.3559 149.027L30.5327 151.194L32.3559 153.112" stroke="#B3B3B3" stroke-width="2"/>
<path d="M144.659 171.645C146.194 171.645 147.439 170.505 147.439 169.098C147.439 167.691 146.194 166.551 144.659 166.551C143.124 166.551 141.88 167.691 141.88 169.098C141.88 170.505 143.124 171.645 144.659 171.645Z" fill="#B3B3B3"/>
<path d="M146.705 172.408H142.615C141.877 172.408 141.278 172.957 141.278 173.633V180.453C141.278 181.13 141.877 181.678 142.615 181.678H146.705C147.443 181.678 148.041 181.13 148.041 180.453V173.633C148.041 172.957 147.443 172.408 146.705 172.408Z" fill="#B3B3B3"/>
<path d="M145.765 179.004H143.554C142.975 179.004 142.506 179.434 142.506 179.964V185.778C142.506 186.308 142.975 186.738 143.554 186.738H145.765C146.344 186.738 146.813 186.308 146.813 185.778V179.964C146.813 179.434 146.344 179.004 145.765 179.004Z" fill="#B3B3B3"/>
<path d="M21.3897 171.645C22.9247 171.645 24.1691 170.505 24.1691 169.098C24.1691 167.691 22.9247 166.551 21.3897 166.551C19.8547 166.551 18.6104 167.691 18.6104 169.098C18.6104 170.505 19.8547 171.645 21.3897 171.645Z" fill="#B91C1C"/>
<path d="M23.4352 172.408H19.3453C18.6072 172.408 18.0088 172.957 18.0088 173.633V180.453C18.0088 181.13 18.6072 181.678 19.3453 181.678H23.4352C24.1734 181.678 24.7718 181.13 24.7718 180.453V173.633C24.7718 172.957 24.1734 172.408 23.4352 172.408Z" fill="#B91C1C"/>
<path d="M22.4956 179.004H20.2843C19.7058 179.004 19.2368 179.434 19.2368 179.964V185.778C19.2368 186.308 19.7058 186.738 20.2843 186.738H22.4956C23.0742 186.738 23.5431 186.308 23.5431 185.778V179.964C23.5431 179.434 23.0742 179.004 22.4956 179.004Z" fill="#B91C1C"/>
<path d="M144.661 197.043C146.196 197.043 147.44 195.903 147.44 194.496C147.44 193.09 146.196 191.949 144.661 191.949C143.126 191.949 141.881 193.09 141.881 194.496C141.881 195.903 143.126 197.043 144.661 197.043Z" fill="#B3B3B3"/>
<path d="M146.706 197.807H142.616C141.878 197.807 141.279 198.355 141.279 199.031V205.852C141.279 206.528 141.878 207.077 142.616 207.077H146.706C147.444 207.077 148.042 206.528 148.042 205.852V199.031C148.042 198.355 147.444 197.807 146.706 197.807Z" fill="#B3B3B3"/>
<path d="M145.766 204.402H143.555C142.976 204.402 142.507 204.832 142.507 205.362V211.176C142.507 211.706 142.976 212.136 143.555 212.136H145.766C146.345 212.136 146.814 211.706 146.814 211.176V205.362C146.814 204.832 146.345 204.402 145.766 204.402Z" fill="#B3B3B3"/>
<path d="M21.3907 197.043C22.9257 197.043 24.1701 195.903 24.1701 194.496C24.1701 193.09 22.9257 191.949 21.3907 191.949C19.8557 191.949 18.6113 193.09 18.6113 194.496C18.6113 195.903 19.8557 197.043 21.3907 197.043Z" fill="#B3B3B3"/>
<path d="M23.4352 197.807H19.3453C18.6072 197.807 18.0088 198.355 18.0088 199.031V205.852C18.0088 206.528 18.6072 207.077 19.3453 207.077H23.4352C24.1734 207.077 24.7718 206.528 24.7718 205.852V199.031C24.7718 198.355 24.1734 197.807 23.4352 197.807Z" fill="#B3B3B3"/>
<path d="M22.4956 204.402H20.2843C19.7058 204.402 19.2368 204.832 19.2368 205.362V211.176C19.2368 211.706 19.7058 212.136 20.2843 212.136H22.4956C23.0742 212.136 23.5431 211.706 23.5431 211.176V205.362C23.5431 204.832 23.0742 204.402 22.4956 204.402Z" fill="#B3B3B3"/>
<path d="M144.659 222.446C146.194 222.446 147.439 221.305 147.439 219.899C147.439 218.492 146.194 217.352 144.659 217.352C143.124 217.352 141.88 218.492 141.88 219.899C141.88 221.305 143.124 222.446 144.659 222.446Z" fill="#B3B3B3"/>
<path d="M146.705 223.209H142.615C141.877 223.209 141.278 223.757 141.278 224.434V231.254C141.278 231.931 141.877 232.479 142.615 232.479H146.705C147.443 232.479 148.041 231.931 148.041 231.254V224.434C148.041 223.757 147.443 223.209 146.705 223.209Z" fill="#B3B3B3"/>
<path d="M145.765 229.805H143.554C142.975 229.805 142.506 230.234 142.506 230.765V236.579C142.506 237.109 142.975 237.539 143.554 237.539H145.765C146.344 237.539 146.813 237.109 146.813 236.579V230.765C146.813 230.234 146.344 229.805 145.765 229.805Z" fill="#B3B3B3"/>
<path d="M21.3902 222.446C22.9252 222.446 24.1696 221.305 24.1696 219.899C24.1696 218.492 22.9252 217.352 21.3902 217.352C19.8552 217.352 18.6108 218.492 18.6108 219.899C18.6108 221.305 19.8552 222.446 21.3902 222.446Z" fill="#B91C1C"/>
<path d="M23.4357 223.209H19.3458C18.6077 223.209 18.0093 223.757 18.0093 224.434V231.254C18.0093 231.931 18.6077 232.479 19.3458 232.479H23.4357C24.1739 232.479 24.7722 231.931 24.7722 231.254V224.434C24.7722 223.757 24.1739 223.209 23.4357 223.209Z" fill="#B91C1C"/>
<path d="M22.4961 229.805H20.2848C19.7063 229.805 19.2373 230.234 19.2373 230.765V236.579C19.2373 237.109 19.7063 237.539 20.2848 237.539H22.4961C23.0746 237.539 23.5436 237.109 23.5436 236.579V230.765C23.5436 230.234 23.0746 229.805 22.4961 229.805Z" fill="#B91C1C"/>
<path d="M84.7253 117.314C84.7253 117.314 84.0969 173.818 135.7 176.319" stroke="#B3B3B3" stroke-width="2"/>
<path d="M133.923 174.557L135.817 176.364L133.804 178.024" stroke="#B3B3B3" stroke-width="2"/>
<path d="M84.725 117.424C84.725 117.424 76.5555 197.136 135.661 202.698" stroke="#B3B3B3" stroke-width="2"/>
<path d="M134.416 200.459L136.021 202.688L133.778 204.245" stroke="#B3B3B3" stroke-width="2"/>
<path d="M84.7258 117.33C84.7258 117.33 70.2315 208.164 135.611 228.286" stroke="#B3B3B3" stroke-width="2"/>
<path d="M134.75 226.168L135.932 228.543L133.445 229.644" stroke="#B3B3B3" stroke-width="2"/>
<path d="M84.675 127.631C84.675 127.631 84.0555 152.109 135.702 151.2" stroke="#B3B3B3" stroke-width="2"/>
<path d="M133.94 149.264L135.953 151.19L133.94 153.108" stroke="#B3B3B3" stroke-width="2"/>
<path d="M13.1671 153.873V149.906H14.0671V153.873H13.1671ZM11.6338 152.34V151.44H15.6004V152.34H11.6338Z" fill="#B3B3B3"/>
<path d="M10.4764 151.878C10.4764 152.511 10.358 153.052 10.121 153.503C9.88602 153.952 9.56502 154.296 9.15804 154.535C8.75297 154.774 8.29345 154.893 7.77947 154.893C7.26549 154.893 6.80501 154.774 6.39804 154.535C5.99297 154.294 5.67197 153.95 5.43504 153.501C5.20003 153.05 5.08252 152.509 5.08252 151.878C5.08252 151.246 5.20003 150.705 5.43504 150.256C5.67197 149.805 5.99297 149.46 6.39804 149.222C6.80501 148.983 7.26549 148.863 7.77947 148.863C8.29345 148.863 8.75297 148.983 9.15804 149.222C9.56502 149.46 9.88602 149.805 10.121 150.256C10.358 150.705 10.4764 151.246 10.4764 151.878ZM9.40739 151.878C9.40739 151.433 9.33765 151.058 9.19816 150.752C9.06059 150.444 8.86952 150.212 8.62495 150.056C8.38039 149.897 8.09856 149.818 7.77947 149.818C7.46038 149.818 7.17856 149.897 6.93399 150.056C6.68942 150.212 6.49739 150.444 6.35791 150.752C6.22034 151.058 6.15156 151.433 6.15156 151.878C6.15156 152.324 6.22034 152.7 6.35791 153.008C6.49739 153.313 6.68942 153.545 6.93399 153.704C7.17856 153.861 7.46038 153.939 7.77947 153.939C8.09856 153.939 8.38039 153.861 8.62495 153.704C8.86952 153.545 9.06059 153.313 9.19816 153.008C9.33765 152.7 9.40739 152.324 9.40739 151.878Z" fill="#B3B3B3"/>
<path d="M160.06 151.451V152.305H157.417V151.451H160.06Z" fill="#B3B3B3"/>
<path d="M156.432 151.878C156.432 152.511 156.314 153.052 156.077 153.503C155.842 153.952 155.521 154.296 155.114 154.535C154.709 154.774 154.249 154.893 153.735 154.893C153.221 154.893 152.761 154.774 152.354 154.535C151.949 154.294 151.628 153.95 151.391 153.501C151.156 153.05 151.038 152.509 151.038 151.878C151.038 151.246 151.156 150.705 151.391 150.256C151.628 149.805 151.949 149.46 152.354 149.222C152.761 148.983 153.221 148.863 153.735 148.863C154.249 148.863 154.709 148.983 155.114 149.222C155.521 149.46 155.842 149.805 156.077 150.256C156.314 150.705 156.432 151.246 156.432 151.878ZM155.363 151.878C155.363 151.433 155.293 151.058 155.154 150.752C155.016 150.444 154.825 150.212 154.581 150.056C154.336 149.897 154.054 149.818 153.735 149.818C153.416 149.818 153.134 149.897 152.89 150.056C152.645 150.212 152.453 150.444 152.313 150.752C152.176 151.058 152.107 151.433 152.107 151.878C152.107 152.324 152.176 152.7 152.313 153.008C152.453 153.313 152.645 153.545 152.89 153.704C153.134 153.861 153.416 153.939 153.735 153.939C154.054 153.939 154.336 153.861 154.581 153.704C154.825 153.545 155.016 153.313 155.154 153.008C155.293 152.7 155.363 152.324 155.363 151.878Z" fill="#B3B3B3"/>
<path d="M12.9611 179.34V175.373H13.861V179.34H12.9611ZM11.4277 177.806V176.906H15.3943V177.806H11.4277Z" fill="#B91C1C"/>
<path d="M6.18964 180.28H5.05469L7.12111 174.41H8.43376L10.503 180.28H9.36809L7.80036 175.614H7.7545L6.18964 180.28ZM6.2269 177.978H9.32223V178.832H6.2269V177.978Z" fill="#B91C1C"/>
<path d="M159.855 176.918V177.772H157.212V176.918H159.855Z" fill="#B3B3B3"/>
<path d="M152.146 180.28H151.011L153.077 174.41H154.39L156.459 180.28H155.324L153.756 175.614H153.711L152.146 180.28ZM152.183 177.978H155.278V178.832H152.183V177.978Z" fill="#B3B3B3"/>
<path d="M12.694 204.808V200.842H13.5939V204.808H12.694ZM11.1606 203.275V202.375H15.1273V203.275H11.1606Z" fill="#B3B3B3"/>
<path d="M5.7041 205.749V199.879H7.95108C8.37526 199.879 8.72778 199.946 9.00866 200.08C9.29144 200.211 9.50257 200.392 9.64205 200.621C9.78344 200.85 9.85414 201.11 9.85414 201.401C9.85414 201.64 9.80828 201.844 9.71657 202.014C9.62486 202.182 9.50162 202.319 9.34685 202.424C9.19208 202.529 9.01916 202.605 8.82809 202.65V202.708C9.03636 202.719 9.23603 202.783 9.4271 202.9C9.62008 203.014 9.77771 203.177 9.9 203.387C10.0223 203.597 10.0834 203.851 10.0834 204.149C10.0834 204.453 10.0099 204.726 9.86274 204.969C9.71561 205.21 9.49397 205.4 9.19781 205.539C8.90166 205.679 8.52907 205.749 8.08006 205.749H5.7041ZM6.76741 204.86H7.91096C8.29692 204.86 8.57493 204.787 8.74498 204.639C8.91694 204.49 9.00292 204.299 9.00292 204.066C9.00292 203.892 8.95993 203.736 8.87395 203.596C8.78797 203.455 8.66569 203.344 8.5071 203.264C8.34851 203.182 8.15935 203.14 7.93962 203.14H6.76741V204.86ZM6.76741 202.375H7.81925C8.00267 202.375 8.16795 202.342 8.31507 202.275C8.4622 202.206 8.57779 202.11 8.66186 201.985C8.74785 201.859 8.79084 201.71 8.79084 201.538C8.79084 201.311 8.71059 201.124 8.55009 200.977C8.3915 200.829 8.15553 200.756 7.84217 200.756H6.76741V202.375Z" fill="#B3B3B3"/>
<path d="M159.586 202.387V203.241H156.944V202.387H159.586Z" fill="#B3B3B3"/>
<path d="M151.66 205.749V199.879H153.907C154.331 199.879 154.683 199.946 154.964 200.08C155.247 200.211 155.458 200.392 155.598 200.621C155.739 200.85 155.81 201.11 155.81 201.401C155.81 201.64 155.764 201.844 155.672 202.014C155.58 202.182 155.457 202.319 155.302 202.424C155.148 202.529 154.975 202.605 154.784 202.65V202.708C154.992 202.719 155.192 202.783 155.383 202.9C155.576 203.014 155.733 203.177 155.856 203.387C155.978 203.597 156.039 203.851 156.039 204.149C156.039 204.453 155.965 204.726 155.818 204.969C155.671 205.21 155.45 205.4 155.153 205.539C154.857 205.679 154.485 205.749 154.036 205.749H151.66ZM152.723 204.86H153.867C154.252 204.86 154.53 204.787 154.701 204.639C154.873 204.49 154.958 204.299 154.958 204.066C154.958 203.892 154.915 203.736 154.83 203.596C154.744 203.455 154.621 203.344 154.463 203.264C154.304 203.182 154.115 203.14 153.895 203.14H152.723V204.86ZM152.723 202.375H153.775C153.958 202.375 154.124 202.342 154.271 202.275C154.418 202.206 154.533 202.11 154.617 201.985C154.703 201.859 154.746 201.71 154.746 201.538C154.746 201.311 154.666 201.124 154.506 200.977C154.347 200.829 154.111 200.756 153.798 200.756H152.723V202.375Z" fill="#B3B3B3"/>
<path d="M13.2111 230.183V226.217H14.111V230.183H13.2111ZM11.6777 228.65V227.75H15.6443V228.65H11.6777Z" fill="#B91C1C"/>
<path d="M6.22168 231.124V225.254H8.46866C8.89284 225.254 9.24536 225.321 9.52623 225.455C9.80902 225.586 10.0201 225.767 10.1596 225.996C10.301 226.225 10.3717 226.485 10.3717 226.776C10.3717 227.015 10.3259 227.219 10.2341 227.389C10.1424 227.557 10.0192 227.694 9.86443 227.799C9.70966 227.904 9.53674 227.98 9.34567 228.025V228.083C9.55394 228.094 9.75361 228.158 9.94468 228.275C10.1377 228.389 10.2953 228.552 10.4176 228.762C10.5399 228.972 10.601 229.226 10.601 229.524C10.601 229.828 10.5274 230.101 10.3803 230.344C10.2332 230.585 10.0116 230.775 9.71539 230.914C9.41923 231.054 9.04665 231.124 8.59763 231.124H6.22168ZM7.28498 230.235H8.42854C8.8145 230.235 9.0925 230.162 9.26256 230.014C9.43452 229.865 9.5205 229.674 9.5205 229.441C9.5205 229.267 9.47751 229.111 9.39153 228.971C9.30555 228.83 9.18326 228.719 9.02467 228.639C8.86609 228.557 8.67693 228.515 8.4572 228.515H7.28498V230.235ZM7.28498 227.75H8.33682C8.52025 227.75 8.68553 227.717 8.83265 227.65C8.97977 227.581 9.09537 227.485 9.17944 227.36C9.26542 227.234 9.30841 227.085 9.30841 226.913C9.30841 226.686 9.22816 226.499 9.06767 226.352C8.90908 226.204 8.67311 226.131 8.35975 226.131H7.28498V227.75Z" fill="#B91C1C"/>
<path d="M1.13496 231.124H0L2.06642 225.254H3.37907L5.44836 231.124H4.3134L2.74567 226.458H2.69982L1.13496 231.124ZM1.17221 228.822H4.26755V229.676H1.17221V228.822Z" fill="#B91C1C"/>
<path d="M164.909 227.762V228.616H162.267V227.762H164.909Z" fill="#B3B3B3"/>
<path d="M156.982 231.124V225.254H159.229C159.654 225.254 160.006 225.321 160.287 225.455C160.57 225.586 160.781 225.767 160.92 225.996C161.062 226.225 161.132 226.485 161.132 226.776C161.132 227.015 161.087 227.219 160.995 227.389C160.903 227.557 160.78 227.694 160.625 227.799C160.47 227.904 160.297 227.98 160.106 228.025V228.083C160.315 228.094 160.514 228.158 160.705 228.275C160.898 228.389 161.056 228.552 161.178 228.762C161.301 228.972 161.362 229.226 161.362 229.524C161.362 229.828 161.288 230.101 161.141 230.344C160.994 230.585 160.772 230.775 160.476 230.914C160.18 231.054 159.807 231.124 159.358 231.124H156.982ZM158.046 230.235H159.189C159.575 230.235 159.853 230.162 160.023 230.014C160.195 229.865 160.281 229.674 160.281 229.441C160.281 229.267 160.238 229.111 160.152 228.971C160.066 228.83 159.944 228.719 159.785 228.639C159.627 228.557 159.438 228.515 159.218 228.515H158.046V230.235ZM158.046 227.75H159.098C159.281 227.75 159.446 227.717 159.593 227.65C159.741 227.581 159.856 227.485 159.94 227.36C160.026 227.234 160.069 227.085 160.069 226.913C160.069 226.686 159.989 226.499 159.828 226.352C159.67 226.204 159.434 226.131 159.12 226.131H158.046V227.75Z" fill="#B3B3B3"/>
<path d="M151.896 231.124H150.761L152.827 225.254H154.14L156.209 231.124H155.074L153.506 226.458H153.461L151.896 231.124ZM151.933 228.822H155.028V229.676H151.933V228.822Z" fill="#B3B3B3"/>
<path d="M103.475 120.998H108.734C110.216 120.998 111.41 119.868 111.41 118.465V112.152C111.41 110.749 110.216 109.619 108.734 109.619H103.475V120.998Z" fill="#42DCFF"/>
<path d="M103.478 109.621H98.2197C96.7373 109.621 95.5439 110.751 95.5439 112.154V118.467C95.5439 119.87 96.7373 121 98.2197 121H103.478V109.621Z" fill="#4AF3FF"/>
<path d="M62.9155 120.998H68.1743C69.6567 120.998 70.8501 119.868 70.8501 118.465V112.152C70.8501 110.749 69.6567 109.619 68.1743 109.619H62.9155V120.998Z" fill="#42DCFF"/>
<path d="M62.9189 109.621H57.6602C56.1778 109.621 54.9844 110.751 54.9844 112.154V118.467C54.9844 119.87 56.1778 121 57.6602 121H62.9189V109.621Z" fill="#4AF3FF"/>
<path d="M83.098 112.623L49.3652 112.271C49.3652 112.271 46.8111 112.14 41.8789 108.363C36.9467 104.587 37.2957 96.9506 37.2957 96.9506V19.7008C37.2957 19.7008 36.198 1.66246 63.3251 8.33676C63.3251 8.33676 69.9748 0.872096 73.1455 1.02578H83.076L83.098 112.623Z" fill="#42DCFF"/>
<path d="M82.9565 112.623L116.689 112.271C116.689 112.271 119.243 112.14 124.176 108.363C129.108 104.587 128.759 96.9506 128.759 96.9506V19.7008C128.759 19.7008 129.857 1.66246 102.729 8.33676C102.729 8.33676 96.0797 0.872096 92.909 1.02578H82.9786L82.9565 112.623Z" fill="#42DCFF"/>
<path d="M80.7004 112.574L48.7264 112.222C48.7264 112.222 46.3054 112.091 41.6303 108.314C36.9553 104.538 37.2861 96.9017 37.2861 96.9017V19.652C37.2861 19.652 36.2457 1.61364 61.9585 8.28793C61.9585 8.28793 68.2614 0.823268 71.2668 0.97695H80.6796L80.7004 112.574Z" fill="#4AF3FF"/>
<path d="M80.5669 112.574L112.541 112.222C112.541 112.222 114.962 112.091 119.637 108.314C124.312 104.538 123.981 96.9017 123.981 96.9017V19.652C123.981 19.652 125.022 1.61364 99.3089 8.28793C99.3089 8.28793 93.0059 0.823268 90.0005 0.97695H80.5878L80.5669 112.574Z" fill="#4AF3FF"/>
<path d="M58.7813 104.738L58.7813 112.438H66.9157L66.9157 104.738L75.8374 104.738C76.761 104.738 78.3771 104.46 78.9788 105.314C79.7532 106.412 79.2486 108.924 79.2486 110.203V122.622C79.2486 123.923 78.7744 126.241 79.8568 127.234C80.9314 128.22 83.3814 127.909 84.759 127.828C87.821 127.646 87.1206 124.466 87.1206 122.374V110.203C87.1206 108.924 86.616 106.412 87.3904 105.314C87.9921 104.46 89.6082 104.738 90.5318 104.738H99.4535V112.438H107.588V104.738C112.23 104.738 118.269 105.88 121.709 102.251C125.278 98.4854 123.857 91.2748 123.857 86.6056L123.857 46.6146C123.857 41.1383 124.907 34.5393 123.396 29.2272C122.561 26.2934 119.769 23.9227 116.51 23.7725C98.8473 22.9587 80.9277 23.7626 63.2421 23.7626C57.5858 23.7626 48.1262 21.9232 44.2264 26.7435C40.8772 30.8835 42.5124 39.2088 42.5124 44.1307V84.6185C42.5124 89.4067 41.0305 97.0475 43.8593 101.261C47.0197 105.967 53.7637 104.738 58.7813 104.738ZM82.9222 47.8565H83.447C84.5286 45.6794 87.4082 44.3642 89.7446 43.6848C98.1968 41.2277 106.26 46.7818 107.476 54.8115C108.993 64.8383 99.2181 74.3229 91.8438 80.0421C89.8971 81.5518 85.8349 85.4933 83.1846 85.4749C81.0206 85.4598 77.7238 82.4152 76.0998 81.1904C69.9811 76.5756 63.8682 71.1959 60.7301 64.2504C58.1368 58.5103 57.8157 51.2958 63.0033 46.6864C67.7654 42.4555 79.5333 41.0345 82.9222 47.8565Z" fill="#B91C1C"/>
<path d="M111.95 23.6935C111.95 23.6935 117.862 29.0185 117.204 36.7962V91.5307C117.204 91.5307 118.074 99.9766 113.556 104.811C113.556 104.811 126.144 107.096 123.869 89.2889V35.7846C123.869 35.7846 126.316 22.2373 111.95 23.6935Z" fill="#A80202"/>
<path d="M94.4595 43.1367C94.4595 43.1367 114.794 59.3723 83.5269 85.6569C83.5269 85.6569 85.1923 84.9478 86.7154 84.1345C86.7154 84.1345 94.5651 78.1826 98.8219 73.9313C98.8219 73.9313 103.782 69.1623 106.164 63.6171C106.164 63.6171 109.728 57.0495 106.369 50.8019C106.369 50.8019 103.18 43.5435 94.4595 43.1367Z" fill="#42DCFF"/>
<path d="M90.8646 7.83594H73.852C72.2861 7.83594 71.0166 9.03763 71.0166 10.52C71.0166 12.0023 72.2861 13.204 73.852 13.204H90.8646C92.4305 13.204 93.7 12.0023 93.7 10.52C93.7 9.03763 92.4305 7.83594 90.8646 7.83594Z" fill="#AFFCFF"/>
<path d="M87.9971 67.952V60.3945H89.7117V67.952H87.9971ZM85.0757 65.0306V63.3159H92.6331V65.0306H85.0757Z" fill="#B91C1C"/>
<path d="M75.095 69.7419H72.9326L76.8697 58.5586H79.3706L83.3132 69.7419H81.1508L78.1639 60.852H78.0765L75.095 69.7419ZM75.166 65.357H81.0634V66.9843H75.166V65.357Z" fill="#B91C1C"/>
<path d="M81.7605 117.314C81.7605 117.314 82.389 173.818 30.7856 176.319" stroke="#B91C1C" stroke-width="2"/>
<path d="M32.562 174.557L30.6685 176.364L32.6812 178.024" stroke="#B91C1C" stroke-width="2"/>
<path d="M81.7615 117.33C81.7615 117.33 96.2558 208.164 30.876 228.286" stroke="#B91C1C" stroke-width="2"/>
<path d="M31.7357 226.168L30.5537 228.543L33.041 229.644" stroke="#B91C1C" stroke-width="2"/>
</svg>
