<svg width="165" height="238" viewBox="0 0 165 238" fill="none" xmlns="http://www.w3.org/2000/svg">
<path d="M144.752 145.848C146.287 145.848 147.531 144.708 147.531 143.301C147.531 141.894 146.287 140.754 144.752 140.754C143.217 140.754 141.972 141.894 141.972 143.301C141.972 144.708 143.217 145.848 144.752 145.848Z" fill="#B3B3B3"/>
<path d="M146.797 146.611H142.707C141.969 146.611 141.37 147.16 141.37 147.836V154.657C141.37 155.333 141.969 155.881 142.707 155.881H146.797C147.535 155.881 148.133 155.333 148.133 154.657V147.836C148.133 147.16 147.535 146.611 146.797 146.611Z" fill="#B3B3B3"/>
<path d="M145.857 153.207H143.646C143.067 153.207 142.598 153.637 142.598 154.167V159.981C142.598 160.511 143.067 160.941 143.646 160.941H145.857C146.435 160.941 146.904 160.511 146.904 159.981V154.167C146.904 153.637 146.435 153.207 145.857 153.207Z" fill="#B3B3B3"/>
<path d="M21.482 145.848C23.017 145.848 24.2614 144.708 24.2614 143.301C24.2614 141.894 23.017 140.754 21.482 140.754C19.947 140.754 18.7026 141.894 18.7026 143.301C18.7026 144.708 19.947 145.848 21.482 145.848Z" fill="#B3B3B3"/>
<path d="M23.527 146.611H19.4371C18.699 146.611 18.1006 147.16 18.1006 147.836V154.657C18.1006 155.333 18.699 155.881 19.4371 155.881H23.527C24.2652 155.881 24.8635 155.333 24.8635 154.657V147.836C24.8635 147.16 24.2652 146.611 23.527 146.611Z" fill="#B3B3B3"/>
<path d="M22.5874 153.207H20.3761C19.7976 153.207 19.3286 153.637 19.3286 154.167V159.981C19.3286 160.511 19.7976 160.941 20.3761 160.941H22.5874C23.166 160.941 23.6349 160.511 23.6349 159.981V154.167C23.6349 153.637 23.166 153.207 22.5874 153.207Z" fill="#B3B3B3"/>
<path d="M81.8523 116.918C81.8523 116.918 82.4808 173.421 30.8774 175.923" stroke="#B3B3B3" stroke-width="2"/>
<path d="M32.6534 174.16L30.7598 175.968L32.7725 177.627" stroke="#B3B3B3" stroke-width="2"/>
<path d="M81.9022 127.242C81.9022 127.242 82.5217 151.72 30.875 150.812" stroke="#B3B3B3" stroke-width="2"/>
<path d="M32.4477 148.639L30.6245 150.805L32.4477 152.723" stroke="#B3B3B3" stroke-width="2"/>
<path d="M144.751 171.25C146.286 171.25 147.53 170.11 147.53 168.703C147.53 167.297 146.286 166.156 144.751 166.156C143.216 166.156 141.972 167.297 141.972 168.703C141.972 170.11 143.216 171.25 144.751 171.25Z" fill="#B3B3B3"/>
<path d="M146.797 172.014H142.707C141.969 172.014 141.37 172.562 141.37 173.238V180.059C141.37 180.735 141.969 181.284 142.707 181.284H146.797C147.535 181.284 148.133 180.735 148.133 180.059V173.238C148.133 172.562 147.535 172.014 146.797 172.014Z" fill="#B3B3B3"/>
<path d="M145.857 178.609H143.646C143.067 178.609 142.598 179.039 142.598 179.569V185.383C142.598 185.913 143.067 186.343 143.646 186.343H145.857C146.435 186.343 146.904 185.913 146.904 185.383V179.569C146.904 179.039 146.435 178.609 145.857 178.609Z" fill="#B3B3B3"/>
<path d="M21.482 171.25C23.017 171.25 24.2614 170.11 24.2614 168.703C24.2614 167.297 23.017 166.156 21.482 166.156C19.947 166.156 18.7026 167.297 18.7026 168.703C18.7026 170.11 19.947 171.25 21.482 171.25Z" fill="#B3B3B3"/>
<path d="M23.527 172.014H19.4371C18.699 172.014 18.1006 172.562 18.1006 173.238V180.059C18.1006 180.735 18.699 181.284 19.4371 181.284H23.527C24.2652 181.284 24.8635 180.735 24.8635 180.059V173.238C24.8635 172.562 24.2652 172.014 23.527 172.014Z" fill="#B3B3B3"/>
<path d="M22.5879 178.609H20.3766C19.7981 178.609 19.3291 179.039 19.3291 179.569V185.383C19.3291 185.913 19.7981 186.343 20.3766 186.343H22.5879C23.1664 186.343 23.6354 185.913 23.6354 185.383V179.569C23.6354 179.039 23.1664 178.609 22.5879 178.609Z" fill="#B3B3B3"/>
<path d="M144.752 196.651C146.287 196.651 147.531 195.51 147.531 194.104C147.531 192.697 146.287 191.557 144.752 191.557C143.217 191.557 141.972 192.697 141.972 194.104C141.972 195.51 143.217 196.651 144.752 196.651Z" fill="#B91C1C"/>
<path d="M146.797 197.414H142.707C141.969 197.414 141.37 197.962 141.37 198.639V205.459C141.37 206.136 141.969 206.684 142.707 206.684H146.797C147.535 206.684 148.133 206.136 148.133 205.459V198.639C148.133 197.962 147.535 197.414 146.797 197.414Z" fill="#B91C1C"/>
<path d="M145.857 204.01H143.646C143.067 204.01 142.598 204.44 142.598 204.97V210.784C142.598 211.314 143.067 211.744 143.646 211.744H145.857C146.435 211.744 146.904 211.314 146.904 210.784V204.97C146.904 204.44 146.435 204.01 145.857 204.01Z" fill="#B91C1C"/>
<path d="M21.482 196.651C23.017 196.651 24.2614 195.51 24.2614 194.104C24.2614 192.697 23.017 191.557 21.482 191.557C19.947 191.557 18.7026 192.697 18.7026 194.104C18.7026 195.51 19.947 196.651 21.482 196.651Z" fill="#B91C1C"/>
<path d="M23.527 197.414H19.4371C18.699 197.414 18.1006 197.962 18.1006 198.639V205.459C18.1006 206.136 18.699 206.684 19.4371 206.684H23.527C24.2652 206.684 24.8635 206.136 24.8635 205.459V198.639C24.8635 197.962 24.2652 197.414 23.527 197.414Z" fill="#B91C1C"/>
<path d="M22.5874 204.01H20.3761C19.7976 204.01 19.3286 204.44 19.3286 204.97V210.784C19.3286 211.314 19.7976 211.744 20.3761 211.744H22.5874C23.166 211.744 23.6349 211.314 23.6349 210.784V204.97C23.6349 204.44 23.166 204.01 22.5874 204.01Z" fill="#B91C1C"/>
<path d="M144.751 222.049C146.286 222.049 147.53 220.909 147.53 219.502C147.53 218.095 146.286 216.955 144.751 216.955C143.216 216.955 141.972 218.095 141.972 219.502C141.972 220.909 143.216 222.049 144.751 222.049Z" fill="#B91C1C"/>
<path d="M146.797 222.812H142.707C141.969 222.812 141.37 223.361 141.37 224.037V230.858C141.37 231.534 141.969 232.083 142.707 232.083H146.797C147.535 232.083 148.133 231.534 148.133 230.858V224.037C148.133 223.361 147.535 222.812 146.797 222.812Z" fill="#B91C1C"/>
<path d="M145.857 229.408H143.646C143.067 229.408 142.598 229.838 142.598 230.368V236.182C142.598 236.712 143.067 237.142 143.646 237.142H145.857C146.435 237.142 146.904 236.712 146.904 236.182V230.368C146.904 229.838 146.435 229.408 145.857 229.408Z" fill="#B91C1C"/>
<path d="M21.482 222.049C23.017 222.049 24.2614 220.909 24.2614 219.502C24.2614 218.095 23.017 216.955 21.482 216.955C19.947 216.955 18.7026 218.095 18.7026 219.502C18.7026 220.909 19.947 222.049 21.482 222.049Z" fill="#B91C1C"/>
<path d="M23.527 222.812H19.4371C18.699 222.812 18.1006 223.361 18.1006 224.037V230.858C18.1006 231.534 18.699 232.083 19.4371 232.083H23.527C24.2652 232.083 24.8635 231.534 24.8635 230.858V224.037C24.8635 223.361 24.2652 222.812 23.527 222.812Z" fill="#B91C1C"/>
<path d="M22.5879 229.408H20.3766C19.7981 229.408 19.3291 229.838 19.3291 230.368V236.182C19.3291 236.712 19.7981 237.142 20.3766 237.142H22.5879C23.1664 237.142 23.6354 236.712 23.6354 236.182V230.368C23.6354 229.838 23.1664 229.408 22.5879 229.408Z" fill="#B91C1C"/>
<path d="M84.8167 116.918C84.8167 116.918 84.1882 173.421 135.792 175.923" stroke="#B3B3B3" stroke-width="2"/>
<path d="M134.015 174.16L135.909 175.968L133.896 177.627" stroke="#B3B3B3" stroke-width="2"/>
<path d="M84.7653 127.242C84.7653 127.242 84.1458 151.72 135.792 150.812" stroke="#B3B3B3" stroke-width="2"/>
<path d="M134.03 148.877L136.042 150.803L134.03 152.721" stroke="#B3B3B3" stroke-width="2"/>
<path d="M13.2579 153.478V149.512H14.1579V153.478H13.2579ZM11.7246 151.945V151.045H15.6912V151.945H11.7246Z" fill="#B3B3B3"/>
<path d="M10.5672 151.484C10.5672 152.116 10.4488 152.658 10.2119 153.109C9.97684 153.558 9.65584 153.902 9.24886 154.141C8.84379 154.379 8.38427 154.499 7.87029 154.499C7.35631 154.499 6.89583 154.379 6.48886 154.141C6.08379 153.9 5.76279 153.555 5.52586 153.106C5.29085 152.655 5.17334 152.114 5.17334 151.484C5.17334 150.851 5.29085 150.311 5.52586 149.862C5.76279 149.411 6.08379 149.066 6.48886 148.827C6.89583 148.588 7.35631 148.469 7.87029 148.469C8.38427 148.469 8.84379 148.588 9.24886 148.827C9.65584 149.066 9.97684 149.411 10.2119 149.862C10.4488 150.311 10.5672 150.851 10.5672 151.484ZM9.49821 151.484C9.49821 151.039 9.42847 150.663 9.28898 150.357C9.15141 150.05 8.96034 149.818 8.71578 149.661C8.47121 149.502 8.18938 149.423 7.87029 149.423C7.5512 149.423 7.26938 149.502 7.02481 149.661C6.78024 149.818 6.58821 150.05 6.44873 150.357C6.31116 150.663 6.24238 151.039 6.24238 151.484C6.24238 151.929 6.31116 152.305 6.44873 152.613C6.58821 152.919 6.78024 153.151 7.02481 153.31C7.26938 153.466 7.5512 153.545 7.87029 153.545C8.18938 153.545 8.47121 153.466 8.71578 153.31C8.96034 153.151 9.15141 152.919 9.28898 152.613C9.42847 152.305 9.49821 151.929 9.49821 151.484Z" fill="#B3B3B3"/>
<path d="M160.151 151.057V151.911H157.508V151.057H160.151Z" fill="#B3B3B3"/>
<path d="M156.523 151.484C156.523 152.116 156.404 152.658 156.167 153.109C155.932 153.558 155.611 153.902 155.204 154.141C154.799 154.379 154.34 154.499 153.826 154.499C153.312 154.499 152.851 154.379 152.444 154.141C152.039 153.9 151.718 153.555 151.481 153.106C151.246 152.655 151.129 152.114 151.129 151.484C151.129 150.851 151.246 150.311 151.481 149.862C151.718 149.411 152.039 149.066 152.444 148.827C152.851 148.588 153.312 148.469 153.826 148.469C154.34 148.469 154.799 148.588 155.204 148.827C155.611 149.066 155.932 149.411 156.167 149.862C156.404 150.311 156.523 150.851 156.523 151.484ZM155.454 151.484C155.454 151.039 155.384 150.663 155.245 150.357C155.107 150.05 154.916 149.818 154.671 149.661C154.427 149.502 154.145 149.423 153.826 149.423C153.507 149.423 153.225 149.502 152.98 149.661C152.736 149.818 152.544 150.05 152.404 150.357C152.267 150.663 152.198 151.039 152.198 151.484C152.198 151.929 152.267 152.305 152.404 152.613C152.544 152.919 152.736 153.151 152.98 153.31C153.225 153.466 153.507 153.545 153.826 153.545C154.145 153.545 154.427 153.466 154.671 153.31C154.916 153.151 155.107 152.919 155.245 152.613C155.384 152.305 155.454 151.929 155.454 151.484Z" fill="#B3B3B3"/>
<path d="M13.0524 178.945V174.979H13.9523V178.945H13.0524ZM11.519 177.412V176.512H15.4857V177.412H11.519Z" fill="#B3B3B3"/>
<path d="M6.28095 179.885H5.146L7.21242 174.016H8.52507L10.5944 179.885H9.4594L7.89167 175.219H7.84581L6.28095 179.885ZM6.31821 177.584H9.41354V178.438H6.31821V177.584Z" fill="#B3B3B3"/>
<path d="M159.946 176.523V177.378H157.303V176.523H159.946Z" fill="#B3B3B3"/>
<path d="M152.237 179.885H151.102L153.168 174.016H154.481L156.55 179.885H155.415L153.847 175.219H153.801L152.237 179.885ZM152.274 177.584H155.369V178.438H152.274V177.584Z" fill="#B3B3B3"/>
<path d="M12.7848 204.414V200.447H13.6847V204.414H12.7848ZM11.2515 202.881V201.981H15.2181V202.881H11.2515Z" fill="#B91C1C"/>
<path d="M5.79492 205.354V199.484H8.0419C8.46608 199.484 8.8186 199.551 9.09948 199.685C9.38226 199.817 9.59339 199.997 9.73287 200.227C9.87426 200.456 9.94496 200.716 9.94496 201.006C9.94496 201.245 9.8991 201.45 9.80739 201.62C9.71568 201.788 9.59244 201.924 9.43767 202.029C9.2829 202.135 9.10998 202.21 8.91892 202.256V202.313C9.12718 202.325 9.32685 202.389 9.51792 202.505C9.7109 202.62 9.86853 202.782 9.99082 202.992C10.1131 203.203 10.1742 203.457 10.1742 203.755C10.1742 204.059 10.1007 204.332 9.95356 204.574C9.80643 204.815 9.58479 205.005 9.28864 205.145C8.99248 205.284 8.61989 205.354 8.17088 205.354H5.79492ZM6.85823 204.466H8.00178C8.38774 204.466 8.66575 204.392 8.8358 204.245C9.00776 204.096 9.09374 203.905 9.09374 203.672C9.09374 203.498 9.05075 203.341 8.96477 203.202C8.87879 203.06 8.75651 202.949 8.59792 202.869C8.43933 202.787 8.25017 202.746 8.03044 202.746H6.85823V204.466ZM6.85823 201.981H7.91007C8.09349 201.981 8.25877 201.947 8.40589 201.88C8.55302 201.812 8.66861 201.715 8.75268 201.591C8.83867 201.465 8.88166 201.316 8.88166 201.144C8.88166 200.916 8.80141 200.729 8.64091 200.582C8.48232 200.435 8.24635 200.361 7.93299 200.361H6.85823V201.981Z" fill="#B91C1C"/>
<path d="M159.677 201.992V202.846H157.035V201.992H159.677Z" fill="#B91C1C"/>
<path d="M151.75 205.354V199.484H153.997C154.422 199.484 154.774 199.551 155.055 199.685C155.338 199.817 155.549 199.997 155.688 200.227C155.83 200.456 155.901 200.716 155.901 201.006C155.901 201.245 155.855 201.45 155.763 201.62C155.671 201.788 155.548 201.924 155.393 202.029C155.238 202.135 155.066 202.21 154.874 202.256V202.313C155.083 202.325 155.282 202.389 155.473 202.505C155.666 202.62 155.824 202.782 155.946 202.992C156.069 203.203 156.13 203.457 156.13 203.755C156.13 204.059 156.056 204.332 155.909 204.574C155.762 204.815 155.54 205.005 155.244 205.145C154.948 205.284 154.575 205.354 154.126 205.354H151.75ZM152.814 204.466H153.957C154.343 204.466 154.621 204.392 154.791 204.245C154.963 204.096 155.049 203.905 155.049 203.672C155.049 203.498 155.006 203.341 154.92 203.202C154.834 203.06 154.712 202.949 154.553 202.869C154.395 202.787 154.206 202.746 153.986 202.746H152.814V204.466ZM152.814 201.981H153.866C154.049 201.981 154.214 201.947 154.361 201.88C154.509 201.812 154.624 201.715 154.708 201.591C154.794 201.465 154.837 201.316 154.837 201.144C154.837 200.916 154.757 200.729 154.596 200.582C154.438 200.435 154.202 200.361 153.889 200.361H152.814V201.981Z" fill="#B91C1C"/>
<path d="M13.3019 229.789V225.822H14.2018V229.789H13.3019ZM11.7686 228.256V227.356H15.7352V228.256H11.7686Z" fill="#B91C1C"/>
<path d="M6.3125 230.729V224.859H8.55948C8.98366 224.859 9.33618 224.926 9.61705 225.06C9.89984 225.192 10.111 225.372 10.2505 225.602C10.3918 225.831 10.4625 226.091 10.4625 226.381C10.4625 226.62 10.4167 226.825 10.325 226.995C10.2333 227.163 10.11 227.299 9.95525 227.404C9.80048 227.51 9.62756 227.585 9.43649 227.631V227.688C9.64476 227.7 9.84443 227.764 10.0355 227.88C10.2285 227.995 10.3861 228.157 10.5084 228.367C10.6307 228.578 10.6918 228.832 10.6918 229.13C10.6918 229.434 10.6183 229.707 10.4711 229.949C10.324 230.19 10.1024 230.38 9.80621 230.52C9.51005 230.659 9.13747 230.729 8.68845 230.729H6.3125ZM7.3758 229.841H8.51936C8.90532 229.841 9.18332 229.767 9.35338 229.62C9.52534 229.471 9.61132 229.28 9.61132 229.047C9.61132 228.873 9.56833 228.716 9.48235 228.577C9.39637 228.435 9.27408 228.324 9.1155 228.244C8.95691 228.162 8.76775 228.121 8.54802 228.121H7.3758V229.841ZM7.3758 227.356H8.42764C8.61107 227.356 8.77635 227.322 8.92347 227.255C9.07059 227.187 9.18619 227.09 9.27026 226.966C9.35624 226.84 9.39923 226.691 9.39923 226.519C9.39923 226.291 9.31898 226.104 9.15849 225.957C8.9999 225.81 8.76393 225.736 8.45057 225.736H7.3758V227.356Z" fill="#B91C1C"/>
<path d="M1.22578 230.729H0.0908203L2.15724 224.859H3.46989L5.53918 230.729H4.40422L2.83649 226.063H2.79064L1.22578 230.729ZM1.26303 228.428H4.35837V229.282H1.26303V228.428Z" fill="#B91C1C"/>
<path d="M165 227.367V228.221H162.358V227.367H165Z" fill="#B91C1C"/>
<path d="M157.074 230.729V224.859H159.321C159.745 224.859 160.097 224.926 160.378 225.06C160.661 225.192 160.872 225.372 161.012 225.602C161.153 225.831 161.224 226.091 161.224 226.381C161.224 226.62 161.178 226.825 161.086 226.995C160.994 227.163 160.871 227.299 160.716 227.404C160.562 227.51 160.389 227.585 160.198 227.631V227.688C160.406 227.7 160.606 227.764 160.797 227.88C160.99 227.995 161.147 228.157 161.27 228.367C161.392 228.578 161.453 228.832 161.453 229.13C161.453 229.434 161.379 229.707 161.232 229.949C161.085 230.19 160.864 230.38 160.567 230.52C160.271 230.659 159.899 230.729 159.45 230.729H157.074ZM158.137 229.841H159.281C159.667 229.841 159.945 229.767 160.115 229.62C160.287 229.471 160.373 229.28 160.373 229.047C160.373 228.873 160.33 228.716 160.244 228.577C160.158 228.435 160.035 228.324 159.877 228.244C159.718 228.162 159.529 228.121 159.309 228.121H158.137V229.841ZM158.137 227.356H159.189C159.372 227.356 159.538 227.322 159.685 227.255C159.832 227.187 159.947 227.09 160.031 226.966C160.117 226.84 160.16 226.691 160.16 226.519C160.16 226.291 160.08 226.104 159.92 225.957C159.761 225.81 159.525 225.736 159.212 225.736H158.137V227.356Z" fill="#B91C1C"/>
<path d="M151.987 230.729H150.852L152.918 224.859H154.231L156.3 230.729H155.165L153.598 226.063H153.552L151.987 230.729ZM152.024 228.428H155.12V229.282H152.024V228.428Z" fill="#B91C1C"/>
<path d="M103.566 120.604H108.825C110.308 120.604 111.501 119.474 111.501 118.071V111.758C111.501 110.354 110.308 109.225 108.825 109.225H103.566V120.604Z" fill="#42DCFF"/>
<path d="M103.57 109.227H98.311C96.8286 109.227 95.6353 110.356 95.6353 111.759V118.073C95.6353 119.476 96.8286 120.605 98.311 120.605H103.57V109.227Z" fill="#4AF3FF"/>
<path d="M63.0068 120.604H68.2656C69.748 120.604 70.9414 119.474 70.9414 118.071V111.758C70.9414 110.354 69.748 109.225 68.2656 109.225H63.0068V120.604Z" fill="#42DCFF"/>
<path d="M63.0107 109.227H57.7519C56.2696 109.227 55.0762 110.356 55.0762 111.759V118.073C55.0762 119.476 56.2696 120.605 57.7519 120.605H63.0107V109.227Z" fill="#4AF3FF"/>
<path d="M83.1893 112.232L49.4566 111.881C49.4566 111.881 46.9024 111.749 41.9702 107.973C37.038 104.196 37.387 96.5599 37.387 96.5599V19.3102C37.387 19.3102 36.2893 1.27184 63.4165 7.94613C63.4165 7.94613 70.0661 0.481471 73.2368 0.635153H83.1673L83.1893 112.232Z" fill="#42DCFF"/>
<path d="M83.0479 112.232L116.781 111.881C116.781 111.881 119.335 111.749 124.267 107.973C129.199 104.196 128.85 96.5599 128.85 96.5599V19.3102C128.85 19.3102 129.948 1.27184 102.821 7.94613C102.821 7.94613 96.171 0.481471 93.0003 0.635153H83.0699L83.0479 112.232Z" fill="#42DCFF"/>
<path d="M80.7927 112.181L48.8187 111.83C48.8187 111.83 46.3977 111.698 41.7226 107.922C37.0475 104.146 37.3784 96.5091 37.3784 96.5091V19.2594C37.3784 19.2594 36.3379 1.22106 62.0507 7.89535C62.0507 7.89535 68.3537 0.43069 71.3591 0.584372H80.7718L80.7927 112.181Z" fill="#4AF3FF"/>
<path d="M80.6587 112.181L112.633 111.83C112.633 111.83 115.054 111.698 119.729 107.922C124.404 104.146 124.073 96.5091 124.073 96.5091V19.2594C124.073 19.2594 125.113 1.22106 99.4007 7.89535C99.4007 7.89535 93.0977 0.43069 90.0923 0.584372H80.6796L80.6587 112.181Z" fill="#4AF3FF"/>
<path d="M58.8731 104.344L58.8731 112.044H67.0075L67.0075 104.344L75.9292 104.344C76.8528 104.344 78.4689 104.066 79.0706 104.919C79.845 106.018 79.3404 108.53 79.3404 109.808V122.228C79.3404 123.528 78.8662 125.846 79.9486 126.839C81.0232 127.826 83.4732 127.515 84.8508 127.433C87.9128 127.252 87.2124 124.072 87.2124 121.979V109.808C87.2124 108.53 86.7078 106.018 87.4822 104.919C88.0839 104.066 89.7 104.344 90.6236 104.344H99.5453V112.044H107.68V104.344C112.322 104.344 118.36 105.485 121.801 101.856C125.37 98.0909 123.949 90.8803 123.949 86.2111L123.949 46.22C123.949 40.7438 124.999 34.1447 123.488 28.8326C122.653 25.8989 119.86 23.5282 116.601 23.378C98.9391 22.5641 81.0195 23.368 63.3339 23.368C57.6776 23.368 48.218 21.5287 44.3182 26.349C40.969 30.4889 42.6042 38.8143 42.6042 43.7362V84.2239C42.6042 89.0122 41.1223 96.6529 43.9511 100.866C47.1115 105.573 53.8555 104.344 58.8731 104.344ZM83.014 47.462H83.5388C84.6204 45.2849 87.5 43.9696 89.8364 43.2903C98.2886 40.8332 106.352 46.3872 107.567 54.417C109.085 64.4438 99.3099 73.9284 91.9356 79.6476C89.9889 81.1573 85.9267 85.0988 83.2764 85.0804C81.1124 85.0653 77.8156 82.0207 76.1916 80.7959C70.0729 76.181 63.96 70.8014 60.8219 63.8558C58.2286 58.1158 57.9075 50.9012 63.0951 46.2918C67.8572 42.061 79.6251 40.6399 83.014 47.462Z" fill="#B91C1C"/>
<path d="M94.5513 42.7441C94.5513 42.7441 114.886 58.9797 83.6187 85.2643C83.6187 85.2643 85.2841 84.5553 86.8072 83.742C86.8072 83.742 94.6569 77.7901 98.9137 73.5387C98.9137 73.5387 103.874 68.7698 106.256 63.2245C106.256 63.2245 109.82 56.6569 106.461 50.4093C106.461 50.4093 103.272 43.1509 94.5513 42.7441Z" fill="#42DCFF"/>
<path d="M90.9564 7.44531H73.9438C72.3779 7.44531 71.1084 8.647 71.1084 10.1294C71.1084 11.6117 72.3779 12.8134 73.9438 12.8134H90.9564C92.5223 12.8134 93.7918 11.6117 93.7918 10.1294C93.7918 8.647 92.5223 7.44531 90.9564 7.44531Z" fill="#AFFCFF"/>
<path d="M112.042 23.3009C112.042 23.3009 117.953 28.626 117.295 36.4037V91.1381C117.295 91.1381 118.166 99.584 113.648 104.419C113.648 104.419 126.235 106.703 123.96 88.8963V35.392C123.96 35.392 126.407 21.8447 112.042 23.3009Z" fill="#A80202"/>
<path d="M90.956 62.9434V64.5706H85.9214V62.9434H90.956Z" fill="#B91C1C"/>
<path d="M75.853 69.3473V58.1641H80.1341C80.9423 58.1641 81.6139 58.2915 82.1491 58.5463C82.6879 58.7975 83.0901 59.1415 83.3559 59.5784C83.6252 60.0152 83.7599 60.5103 83.7599 61.0636C83.7599 61.5187 83.6726 61.9082 83.4978 62.2322C83.3231 62.5525 83.0883 62.8128 82.7934 63.0131C82.4986 63.2133 82.1691 63.3571 81.8051 63.4444V63.5537C82.2019 63.5755 82.5823 63.6974 82.9463 63.9195C83.314 64.1379 83.6143 64.4474 83.8473 64.8478C84.0803 65.2483 84.1968 65.7324 84.1968 66.3003C84.1968 66.8791 84.0566 67.3997 83.7763 67.862C83.496 68.3207 83.0737 68.683 82.5095 68.9487C81.9452 69.2145 81.2353 69.3473 80.3798 69.3473H75.853ZM77.8789 67.6545H80.0577C80.793 67.6545 81.3227 67.5144 81.6467 67.2341C81.9743 66.9501 82.1382 66.5861 82.1382 66.142C82.1382 65.8107 82.0562 65.5122 81.8924 65.2464C81.7286 64.977 81.4956 64.7659 81.1935 64.613C80.8913 64.4565 80.5309 64.3782 80.1123 64.3782H77.8789V67.6545ZM77.8789 62.9202H79.8829C80.2324 62.9202 80.5473 62.8565 80.8276 62.7291C81.1079 62.5981 81.3282 62.4142 81.4883 62.1776C81.6522 61.9373 81.7341 61.6534 81.7341 61.3257C81.7341 60.8925 81.5812 60.5358 81.2754 60.2555C80.9732 59.9752 80.5236 59.835 79.9266 59.835H77.8789V62.9202Z" fill="#B91C1C"/>
<path d="M81.8517 117.027C81.8517 117.027 90.0212 196.74 30.9155 202.301" stroke="#B91C1C" stroke-width="2"/>
<path d="M32.1611 200.062L30.5552 202.292L32.7986 203.849" stroke="#B91C1C" stroke-width="2"/>
<path d="M81.8523 116.939C81.8523 116.939 96.3466 207.773 30.9668 227.896" stroke="#B91C1C" stroke-width="2"/>
<path d="M31.827 225.775L30.645 228.15L33.1323 229.251" stroke="#B91C1C" stroke-width="2"/>
<path d="M84.8153 117.027C84.8153 117.027 76.6458 196.74 135.751 202.301" stroke="#B91C1C" stroke-width="2"/>
<path d="M134.506 200.062L136.112 202.292L133.868 203.849" stroke="#B91C1C" stroke-width="2"/>
<path d="M84.8166 116.939C84.8166 116.939 70.3223 207.773 135.702 227.896" stroke="#B91C1C" stroke-width="2"/>
<path d="M134.841 225.775L136.023 228.15L133.536 229.251" stroke="#B91C1C" stroke-width="2"/>
</svg>
