<svg width="166" height="238" viewBox="0 0 166 238" fill="none" xmlns="http://www.w3.org/2000/svg">
<path d="M145.206 145.848C146.741 145.848 147.985 144.708 147.985 143.301C147.985 141.894 146.741 140.754 145.206 140.754C143.671 140.754 142.426 141.894 142.426 143.301C142.426 144.708 143.671 145.848 145.206 145.848Z" fill="#B3B3B3"/>
<path d="M147.251 146.611H143.161C142.423 146.611 141.824 147.16 141.824 147.836V154.657C141.824 155.333 142.423 155.881 143.161 155.881H147.251C147.989 155.881 148.587 155.333 148.587 154.657V147.836C148.587 147.16 147.989 146.611 147.251 146.611Z" fill="#B3B3B3"/>
<path d="M146.311 153.207H144.1C143.521 153.207 143.052 153.637 143.052 154.167V159.981C143.052 160.511 143.521 160.941 144.1 160.941H146.311C146.89 160.941 147.359 160.511 147.359 159.981V154.167C147.359 153.637 146.89 153.207 146.311 153.207Z" fill="#B3B3B3"/>
<path d="M21.9356 145.848C23.4706 145.848 24.715 144.708 24.715 143.301C24.715 141.894 23.4706 140.754 21.9356 140.754C20.4006 140.754 19.1562 141.894 19.1562 143.301C19.1562 144.708 20.4006 145.848 21.9356 145.848Z" fill="#B3B3B3"/>
<path d="M23.9806 146.611H19.8907C19.1526 146.611 18.5542 147.16 18.5542 147.836V154.657C18.5542 155.333 19.1526 155.881 19.8907 155.881H23.9806C24.7188 155.881 25.3172 155.333 25.3172 154.657V147.836C25.3172 147.16 24.7188 146.611 23.9806 146.611Z" fill="#B3B3B3"/>
<path d="M23.041 153.207H20.8297C20.2512 153.207 19.7822 153.637 19.7822 154.167V159.981C19.7822 160.511 20.2512 160.941 20.8297 160.941H23.041C23.6196 160.941 24.0886 160.511 24.0886 159.981V154.167C24.0886 153.637 23.6196 153.207 23.041 153.207Z" fill="#B3B3B3"/>
<path d="M82.3054 116.918C82.3054 116.918 82.9339 173.421 31.3306 175.923" stroke="#B3B3B3" stroke-width="2"/>
<path d="M33.107 174.16L31.2134 175.968L33.2261 177.627" stroke="#B3B3B3" stroke-width="2"/>
<path d="M82.3563 127.242C82.3563 127.242 82.9758 151.72 31.3291 150.812" stroke="#B3B3B3" stroke-width="2"/>
<path d="M32.9018 148.639L31.0786 150.805L32.9018 152.723" stroke="#B3B3B3" stroke-width="2"/>
<path d="M145.205 171.25C146.74 171.25 147.985 170.11 147.985 168.703C147.985 167.297 146.74 166.156 145.205 166.156C143.67 166.156 142.426 167.297 142.426 168.703C142.426 170.11 143.67 171.25 145.205 171.25Z" fill="#B3B3B3"/>
<path d="M147.251 172.014H143.161C142.423 172.014 141.824 172.562 141.824 173.238V180.059C141.824 180.735 142.423 181.284 143.161 181.284H147.251C147.989 181.284 148.587 180.735 148.587 180.059V173.238C148.587 172.562 147.989 172.014 147.251 172.014Z" fill="#B3B3B3"/>
<path d="M146.311 178.609H144.1C143.521 178.609 143.052 179.039 143.052 179.569V185.383C143.052 185.913 143.521 186.343 144.1 186.343H146.311C146.89 186.343 147.359 185.913 147.359 185.383V179.569C147.359 179.039 146.89 178.609 146.311 178.609Z" fill="#B3B3B3"/>
<path d="M21.9361 171.25C23.4711 171.25 24.7155 170.11 24.7155 168.703C24.7155 167.297 23.4711 166.156 21.9361 166.156C20.4011 166.156 19.1567 167.297 19.1567 168.703C19.1567 170.11 20.4011 171.25 21.9361 171.25Z" fill="#B3B3B3"/>
<path d="M23.9811 172.014H19.8912C19.1531 172.014 18.5547 172.562 18.5547 173.238V180.059C18.5547 180.735 19.1531 181.284 19.8912 181.284H23.9811C24.7193 181.284 25.3177 180.735 25.3177 180.059V173.238C25.3177 172.562 24.7193 172.014 23.9811 172.014Z" fill="#B3B3B3"/>
<path d="M23.042 178.609H20.8307C20.2522 178.609 19.7832 179.039 19.7832 179.569V185.383C19.7832 185.913 20.2522 186.343 20.8307 186.343H23.042C23.6205 186.343 24.0895 185.913 24.0895 185.383V179.569C24.0895 179.039 23.6205 178.609 23.042 178.609Z" fill="#B3B3B3"/>
<path d="M145.206 196.651C146.741 196.651 147.985 195.51 147.985 194.104C147.985 192.697 146.741 191.557 145.206 191.557C143.671 191.557 142.426 192.697 142.426 194.104C142.426 195.51 143.671 196.651 145.206 196.651Z" fill="#B3B3B3"/>
<path d="M147.251 197.414H143.161C142.423 197.414 141.824 197.962 141.824 198.639V205.459C141.824 206.136 142.423 206.684 143.161 206.684H147.251C147.989 206.684 148.587 206.136 148.587 205.459V198.639C148.587 197.962 147.989 197.414 147.251 197.414Z" fill="#B3B3B3"/>
<path d="M146.311 204.01H144.1C143.521 204.01 143.052 204.44 143.052 204.97V210.784C143.052 211.314 143.521 211.744 144.1 211.744H146.311C146.89 211.744 147.359 211.314 147.359 210.784V204.97C147.359 204.44 146.89 204.01 146.311 204.01Z" fill="#B3B3B3"/>
<path d="M21.9356 196.651C23.4706 196.651 24.715 195.51 24.715 194.104C24.715 192.697 23.4706 191.557 21.9356 191.557C20.4006 191.557 19.1562 192.697 19.1562 194.104C19.1562 195.51 20.4006 196.651 21.9356 196.651Z" fill="#B91C1C"/>
<path d="M23.9806 197.414H19.8907C19.1526 197.414 18.5542 197.962 18.5542 198.639V205.459C18.5542 206.136 19.1526 206.684 19.8907 206.684H23.9806C24.7188 206.684 25.3172 206.136 25.3172 205.459V198.639C25.3172 197.962 24.7188 197.414 23.9806 197.414Z" fill="#B91C1C"/>
<path d="M23.041 204.01H20.8297C20.2512 204.01 19.7822 204.44 19.7822 204.97V210.784C19.7822 211.314 20.2512 211.744 20.8297 211.744H23.041C23.6196 211.744 24.0886 211.314 24.0886 210.784V204.97C24.0886 204.44 23.6196 204.01 23.041 204.01Z" fill="#B91C1C"/>
<path d="M145.205 222.049C146.74 222.049 147.985 220.909 147.985 219.502C147.985 218.095 146.74 216.955 145.205 216.955C143.67 216.955 142.426 218.095 142.426 219.502C142.426 220.909 143.67 222.049 145.205 222.049Z" fill="#B3B3B3"/>
<path d="M147.251 222.812H143.161C142.423 222.812 141.824 223.361 141.824 224.037V230.858C141.824 231.534 142.423 232.083 143.161 232.083H147.251C147.989 232.083 148.587 231.534 148.587 230.858V224.037C148.587 223.361 147.989 222.812 147.251 222.812Z" fill="#B3B3B3"/>
<path d="M146.311 229.408H144.1C143.521 229.408 143.052 229.838 143.052 230.368V236.182C143.052 236.712 143.521 237.142 144.1 237.142H146.311C146.89 237.142 147.359 236.712 147.359 236.182V230.368C147.359 229.838 146.89 229.408 146.311 229.408Z" fill="#B3B3B3"/>
<path d="M21.9356 222.049C23.4706 222.049 24.715 220.909 24.715 219.502C24.715 218.095 23.4706 216.955 21.9356 216.955C20.4006 216.955 19.1562 218.095 19.1562 219.502C19.1562 220.909 20.4006 222.049 21.9356 222.049Z" fill="#B91C1C"/>
<path d="M23.9806 222.812H19.8907C19.1526 222.812 18.5542 223.361 18.5542 224.037V230.858C18.5542 231.534 19.1526 232.083 19.8907 232.083H23.9806C24.7188 232.083 25.3172 231.534 25.3172 230.858V224.037C25.3172 223.361 24.7188 222.812 23.9806 222.812Z" fill="#B91C1C"/>
<path d="M23.0415 229.408H20.8302C20.2517 229.408 19.7827 229.838 19.7827 230.368V236.182C19.7827 236.712 20.2517 237.142 20.8302 237.142H23.0415C23.6201 237.142 24.089 236.712 24.089 236.182V230.368C24.089 229.838 23.6201 229.408 23.0415 229.408Z" fill="#B91C1C"/>
<path d="M85.2698 116.918C85.2698 116.918 84.6413 173.421 136.245 175.923" stroke="#B3B3B3" stroke-width="2"/>
<path d="M134.469 174.16L136.362 175.968L134.35 177.627" stroke="#B3B3B3" stroke-width="2"/>
<path d="M85.2694 117.027C85.2694 117.027 77.0999 196.74 136.206 202.301" stroke="#B3B3B3" stroke-width="2"/>
<path d="M134.96 200.062L136.566 202.292L134.322 203.849" stroke="#B3B3B3" stroke-width="2"/>
<path d="M85.2702 116.939C85.2702 116.939 70.7759 207.773 136.156 227.896" stroke="#B3B3B3" stroke-width="2"/>
<path d="M135.295 225.775L136.477 228.15L133.989 229.251" stroke="#B3B3B3" stroke-width="2"/>
<path d="M85.2194 127.242C85.2194 127.242 84.5999 151.72 136.247 150.812" stroke="#B3B3B3" stroke-width="2"/>
<path d="M134.484 148.877L136.497 150.803L134.484 152.721" stroke="#B3B3B3" stroke-width="2"/>
<path d="M13.712 153.478V149.512H14.612V153.478H13.712ZM12.1787 151.945V151.045H16.1453V151.945H12.1787Z" fill="#B3B3B3"/>
<path d="M11.0213 151.484C11.0213 152.116 10.9029 152.658 10.666 153.109C10.4309 153.558 10.1099 153.902 9.70296 154.141C9.29789 154.379 8.83837 154.499 8.32439 154.499C7.81041 154.499 7.34994 154.379 6.94296 154.141C6.53789 153.9 6.21689 153.555 5.97997 153.106C5.74495 152.655 5.62744 152.114 5.62744 151.484C5.62744 150.851 5.74495 150.311 5.97997 149.862C6.21689 149.411 6.53789 149.066 6.94296 148.827C7.34994 148.588 7.81041 148.469 8.32439 148.469C8.83837 148.469 9.29789 148.588 9.70296 148.827C10.1099 149.066 10.4309 149.411 10.666 149.862C10.9029 150.311 11.0213 150.851 11.0213 151.484ZM9.95231 151.484C9.95231 151.039 9.88257 150.663 9.74309 150.357C9.60552 150.05 9.41445 149.818 9.16988 149.661C8.92531 149.502 8.64348 149.423 8.32439 149.423C8.00531 149.423 7.72348 149.502 7.47891 149.661C7.23434 149.818 7.04231 150.05 6.90283 150.357C6.76526 150.663 6.69648 151.039 6.69648 151.484C6.69648 151.929 6.76526 152.305 6.90283 152.613C7.04231 152.919 7.23434 153.151 7.47891 153.31C7.72348 153.466 8.00531 153.545 8.32439 153.545C8.64348 153.545 8.92531 153.466 9.16988 153.31C9.41445 153.151 9.60552 152.919 9.74309 152.613C9.88257 152.305 9.95231 151.929 9.95231 151.484Z" fill="#B3B3B3"/>
<path d="M160.605 151.057V151.911H157.962V151.057H160.605Z" fill="#B3B3B3"/>
<path d="M156.977 151.484C156.977 152.116 156.858 152.658 156.622 153.109C156.387 153.558 156.066 153.902 155.659 154.141C155.253 154.379 154.794 154.499 154.28 154.499C153.766 154.499 153.306 154.379 152.899 154.141C152.493 153.9 152.172 153.555 151.936 153.106C151.701 152.655 151.583 152.114 151.583 151.484C151.583 150.851 151.701 150.311 151.936 149.862C152.172 149.411 152.493 149.066 152.899 148.827C153.306 148.588 153.766 148.469 154.28 148.469C154.794 148.469 155.253 148.588 155.659 148.827C156.066 149.066 156.387 149.411 156.622 149.862C156.858 150.311 156.977 150.851 156.977 151.484ZM155.908 151.484C155.908 151.039 155.838 150.663 155.699 150.357C155.561 150.05 155.37 149.818 155.125 149.661C154.881 149.502 154.599 149.423 154.28 149.423C153.961 149.423 153.679 149.502 153.434 149.661C153.19 149.818 152.998 150.05 152.858 150.357C152.721 150.663 152.652 151.039 152.652 151.484C152.652 151.929 152.721 152.305 152.858 152.613C152.998 152.919 153.19 153.151 153.434 153.31C153.679 153.466 153.961 153.545 154.28 153.545C154.599 153.545 154.881 153.466 155.125 153.31C155.37 153.151 155.561 152.919 155.699 152.613C155.838 152.305 155.908 151.929 155.908 151.484Z" fill="#B3B3B3"/>
<path d="M13.5065 178.945V174.979H14.4064V178.945H13.5065ZM11.9731 177.412V176.512H15.9398V177.412H11.9731Z" fill="#B3B3B3"/>
<path d="M6.73505 179.885H5.6001L7.66652 174.016H8.97917L11.0485 179.885H9.9135L8.34577 175.219H8.29992L6.73505 179.885ZM6.77231 177.584H9.86764V178.438H6.77231V177.584Z" fill="#B3B3B3"/>
<path d="M160.399 176.523V177.378H157.757V176.523H160.399Z" fill="#B3B3B3"/>
<path d="M152.691 179.885H151.556L153.622 174.016H154.935L157.004 179.885H155.869L154.301 175.219H154.255L152.691 179.885ZM152.728 177.584H155.823V178.438H152.728V177.584Z" fill="#B3B3B3"/>
<path d="M13.2389 204.414V200.447H14.1388V204.414H13.2389ZM11.7056 202.881V201.981H15.6722V202.881H11.7056Z" fill="#B91C1C"/>
<path d="M6.24902 205.354V199.484H8.49601C8.92018 199.484 9.2727 199.551 9.55358 199.685C9.83636 199.817 10.0475 199.997 10.187 200.227C10.3284 200.456 10.3991 200.716 10.3991 201.006C10.3991 201.245 10.3532 201.45 10.2615 201.62C10.1698 201.788 10.0465 201.924 9.89177 202.029C9.737 202.135 9.56409 202.21 9.37302 202.256V202.313C9.58128 202.325 9.78095 202.389 9.97202 202.505C10.165 202.62 10.3226 202.782 10.4449 202.992C10.5672 203.203 10.6283 203.457 10.6283 203.755C10.6283 204.059 10.5548 204.332 10.4077 204.574C10.2605 204.815 10.0389 205.005 9.74274 205.145C9.44658 205.284 9.07399 205.354 8.62498 205.354H6.24902ZM7.31233 204.466H8.45588C8.84184 204.466 9.11985 204.392 9.2899 204.245C9.46186 204.096 9.54785 203.905 9.54785 203.672C9.54785 203.498 9.50485 203.341 9.41887 203.202C9.33289 203.06 9.21061 202.949 9.05202 202.869C8.89343 202.787 8.70427 202.746 8.48454 202.746H7.31233V204.466ZM7.31233 201.981H8.36417C8.54759 201.981 8.71287 201.947 8.85999 201.88C9.00712 201.812 9.12271 201.715 9.20679 201.591C9.29277 201.465 9.33576 201.316 9.33576 201.144C9.33576 200.916 9.25551 200.729 9.09501 200.582C8.93642 200.435 8.70045 200.361 8.3871 200.361H7.31233V201.981Z" fill="#B91C1C"/>
<path d="M160.131 201.992V202.846H157.489V201.992H160.131Z" fill="#B3B3B3"/>
<path d="M152.205 205.354V199.484H154.452C154.876 199.484 155.228 199.551 155.509 199.685C155.792 199.817 156.003 199.997 156.143 200.227C156.284 200.456 156.355 200.716 156.355 201.006C156.355 201.245 156.309 201.45 156.217 201.62C156.125 201.788 156.002 201.924 155.847 202.029C155.693 202.135 155.52 202.21 155.329 202.256V202.313C155.537 202.325 155.737 202.389 155.928 202.505C156.121 202.62 156.278 202.782 156.4 202.992C156.523 203.203 156.584 203.457 156.584 203.755C156.584 204.059 156.51 204.332 156.363 204.574C156.216 204.815 155.994 205.005 155.698 205.145C155.402 205.284 155.03 205.354 154.581 205.354H152.205ZM153.268 204.466H154.411C154.797 204.466 155.075 204.392 155.245 204.245C155.417 204.096 155.503 203.905 155.503 203.672C155.503 203.498 155.46 203.341 155.374 203.202C155.288 203.06 155.166 202.949 155.008 202.869C154.849 202.787 154.66 202.746 154.44 202.746H153.268V204.466ZM153.268 201.981H154.32C154.503 201.981 154.668 201.947 154.816 201.88C154.963 201.812 155.078 201.715 155.162 201.591C155.248 201.465 155.291 201.316 155.291 201.144C155.291 200.916 155.211 200.729 155.051 200.582C154.892 200.435 154.656 200.361 154.343 200.361H153.268V201.981Z" fill="#B3B3B3"/>
<path d="M13.756 229.789V225.822H14.6559V229.789H13.756ZM12.2227 228.256V227.356H16.1893V228.256H12.2227Z" fill="#B91C1C"/>
<path d="M6.7666 230.729V224.859H9.01358C9.43776 224.859 9.79028 224.926 10.0712 225.06C10.3539 225.192 10.5651 225.372 10.7046 225.602C10.8459 225.831 10.9166 226.091 10.9166 226.381C10.9166 226.62 10.8708 226.825 10.7791 226.995C10.6874 227.163 10.5641 227.299 10.4093 227.404C10.2546 227.51 10.0817 227.585 9.89059 227.631V227.688C10.0989 227.7 10.2985 227.764 10.4896 227.88C10.6826 227.995 10.8402 228.157 10.9625 228.367C11.0848 228.578 11.1459 228.832 11.1459 229.13C11.1459 229.434 11.0724 229.707 10.9252 229.949C10.7781 230.19 10.5565 230.38 10.2603 230.52C9.96416 230.659 9.59157 230.729 9.14255 230.729H6.7666ZM7.82991 229.841H8.97346C9.35942 229.841 9.63743 229.767 9.80748 229.62C9.97944 229.471 10.0654 229.28 10.0654 229.047C10.0654 228.873 10.0224 228.716 9.93645 228.577C9.85047 228.435 9.72818 228.324 9.5696 228.244C9.41101 228.162 9.22185 228.121 9.00212 228.121H7.82991V229.841ZM7.82991 227.356H8.88175C9.06517 227.356 9.23045 227.322 9.37757 227.255C9.5247 227.187 9.64029 227.09 9.72436 226.966C9.81034 226.84 9.85334 226.691 9.85334 226.519C9.85334 226.291 9.77309 226.104 9.61259 225.957C9.454 225.81 9.21803 225.736 8.90467 225.736H7.82991V227.356Z" fill="#B91C1C"/>
<path d="M1.67988 230.729H0.544922L2.61134 224.859H3.92399L5.99328 230.729H4.85832L3.2906 226.063H3.24474L1.67988 230.729ZM1.71714 228.428H4.81247V229.282H1.71714V228.428Z" fill="#B91C1C"/>
<path d="M165.454 227.367V228.221H162.812V227.367H165.454Z" fill="#B3B3B3"/>
<path d="M157.527 230.729V224.859H159.774C160.199 224.859 160.551 224.926 160.832 225.06C161.115 225.192 161.326 225.372 161.465 225.602C161.607 225.831 161.677 226.091 161.677 226.381C161.677 226.62 161.632 226.825 161.54 226.995C161.448 227.163 161.325 227.299 161.17 227.404C161.015 227.51 160.842 227.585 160.651 227.631V227.688C160.86 227.7 161.059 227.764 161.25 227.88C161.443 227.995 161.601 228.157 161.723 228.367C161.846 228.578 161.907 228.832 161.907 229.13C161.907 229.434 161.833 229.707 161.686 229.949C161.539 230.19 161.317 230.38 161.021 230.52C160.725 230.659 160.352 230.729 159.903 230.729H157.527ZM158.591 229.841H159.734C160.12 229.841 160.398 229.767 160.568 229.62C160.74 229.471 160.826 229.28 160.826 229.047C160.826 228.873 160.783 228.716 160.697 228.577C160.611 228.435 160.489 228.324 160.33 228.244C160.172 228.162 159.983 228.121 159.763 228.121H158.591V229.841ZM158.591 227.356H159.642C159.826 227.356 159.991 227.322 160.138 227.255C160.285 227.187 160.401 227.09 160.485 226.966C160.571 226.84 160.614 226.691 160.614 226.519C160.614 226.291 160.534 226.104 160.373 225.957C160.215 225.81 159.979 225.736 159.665 225.736H158.591V227.356Z" fill="#B3B3B3"/>
<path d="M152.441 230.729H151.306L153.372 224.859H154.685L156.754 230.729H155.619L154.051 226.063H154.005L152.441 230.729ZM152.478 228.428H155.573V229.282H152.478V228.428Z" fill="#B3B3B3"/>
<path d="M104.02 120.604H109.279C110.761 120.604 111.955 119.474 111.955 118.071V111.758C111.955 110.354 110.761 109.225 109.279 109.225H104.02V120.604Z" fill="#42DCFF"/>
<path d="M104.023 109.227H98.7646C97.2823 109.227 96.0889 110.356 96.0889 111.759V118.073C96.0889 119.476 97.2823 120.605 98.7646 120.605H104.023V109.227Z" fill="#4AF3FF"/>
<path d="M63.4609 120.604H68.7197C70.2021 120.604 71.3955 119.474 71.3955 118.071V111.758C71.3955 110.354 70.2021 109.225 68.7197 109.225H63.4609V120.604Z" fill="#42DCFF"/>
<path d="M63.4648 109.227H58.206C56.7237 109.227 55.5303 110.356 55.5303 111.759V118.073C55.5303 119.476 56.7237 120.605 58.206 120.605H63.4648V109.227Z" fill="#4AF3FF"/>
<path d="M83.6429 112.232L49.9102 111.881C49.9102 111.881 47.356 111.749 42.4238 107.973C37.4916 104.196 37.8406 96.5599 37.8406 96.5599V19.3102C37.8406 19.3102 36.7429 1.27184 63.8701 7.94613C63.8701 7.94613 70.5197 0.481471 73.6904 0.635153H83.6209L83.6429 112.232Z" fill="#42DCFF"/>
<path d="M83.5015 112.232L117.234 111.881C117.234 111.881 119.788 111.749 124.721 107.973C129.653 104.196 129.304 96.5599 129.304 96.5599V19.3102C129.304 19.3102 130.401 1.27184 103.274 7.94613C103.274 7.94613 96.6246 0.481471 93.4539 0.635153H83.5235L83.5015 112.232Z" fill="#42DCFF"/>
<path d="M81.2463 112.181L49.2723 111.83C49.2723 111.83 46.8513 111.698 42.1762 107.922C37.5012 104.146 37.832 96.5091 37.832 96.5091V19.2594C37.832 19.2594 36.7916 1.22106 62.5044 7.89535C62.5044 7.89535 68.8073 0.43069 71.8127 0.584372H81.2254L81.2463 112.181Z" fill="#4AF3FF"/>
<path d="M81.1123 112.181L113.086 111.83C113.086 111.83 115.507 111.698 120.182 107.922C124.857 104.146 124.527 96.5091 124.527 96.5091V19.2594C124.527 19.2594 125.567 1.22106 99.8543 7.89535C99.8543 7.89535 93.5513 0.43069 90.5459 0.584372H81.1332L81.1123 112.181Z" fill="#4AF3FF"/>
<path d="M59.3267 104.344L59.3267 112.044H67.4612L67.4611 104.344L76.3828 104.344C77.3064 104.344 78.9226 104.066 79.5243 104.919C80.2986 106.018 79.794 108.53 79.794 109.808V122.228C79.794 123.528 79.3198 125.846 80.4023 126.839C81.4768 127.826 83.9268 127.515 85.3044 127.433C88.3664 127.252 87.666 124.072 87.666 121.979V109.808C87.666 108.53 87.1614 106.018 87.9358 104.919C88.5375 104.066 90.1536 104.344 91.0772 104.344H99.9989V112.044H108.133V104.344C112.775 104.344 118.814 105.485 122.254 101.856C125.824 98.0909 124.402 90.8803 124.402 86.2111L124.402 46.22C124.402 40.7438 125.453 34.1447 123.941 28.8326C123.106 25.8989 120.314 23.5282 117.055 23.378C99.3927 22.5641 81.4731 23.368 63.7875 23.368C58.1312 23.368 48.6717 21.5287 44.7719 26.349C41.4226 30.4889 43.0578 38.8143 43.0578 43.7362V84.2239C43.0578 89.0122 41.5759 96.653 44.4047 100.866C47.5651 105.573 54.3091 104.344 59.3267 104.344ZM83.4676 47.462H83.9924C85.074 45.2849 87.9536 43.9696 90.29 43.2903C98.7423 40.8332 106.806 46.3872 108.021 54.417C109.538 64.4438 99.7635 73.9284 92.3893 79.6476C90.4425 81.1573 86.3803 85.0988 83.73 85.0804C81.566 85.0653 78.2692 82.0207 76.6452 80.7959C70.5265 76.181 64.4136 70.8014 61.2756 63.8558C58.6822 58.1158 58.3611 50.9012 63.5487 46.2918C68.3108 42.061 80.0787 40.6399 83.4676 47.462Z" fill="#B91C1C"/>
<path d="M112.496 23.3009C112.496 23.3009 118.407 28.626 117.75 36.4037V91.1381C117.75 91.1381 118.62 99.584 114.102 104.419C114.102 104.419 126.689 106.703 124.414 88.8963V35.392C124.414 35.392 126.861 21.8447 112.496 23.3009Z" fill="#A80202"/>
<path d="M95.0045 42.7441C95.0045 42.7441 115.339 58.9797 84.0718 85.2643C84.0718 85.2643 85.7372 84.5553 87.2603 83.742C87.2603 83.742 95.11 77.7901 99.3669 73.5387C99.3669 73.5387 104.327 68.7698 106.709 63.2245C106.709 63.2245 110.273 56.6569 106.914 50.4093C106.914 50.4093 103.725 43.1509 95.0045 42.7441Z" fill="#42DCFF"/>
<path d="M91.41 7.44531H74.3974C72.8315 7.44531 71.562 8.647 71.562 10.1294C71.562 11.6117 72.8315 12.8134 74.3974 12.8134H91.41C92.9759 12.8134 94.2454 11.6117 94.2454 10.1294C94.2454 8.647 92.9759 7.44531 91.41 7.44531Z" fill="#AFFCFF"/>
<path d="M88.0322 67.5555V59.998H89.7469V67.5555H88.0322ZM85.1108 64.6341V62.9195H92.6683V64.6341H85.1108Z" fill="#B91C1C"/>
<path d="M74.7148 69.3473V58.1641H78.9959C79.8041 58.1641 80.4758 58.2915 81.0109 58.5463C81.5497 58.7975 81.9519 59.1415 82.2177 59.5784C82.4871 60.0152 82.6218 60.5103 82.6218 61.0636C82.6218 61.5187 82.5344 61.9082 82.3597 62.2322C82.1849 62.5525 81.9501 62.8128 81.6552 63.0131C81.3604 63.2133 81.0309 63.3571 80.6669 63.4444V63.5537C81.0637 63.5755 81.4441 63.6974 81.8081 63.9195C82.1758 64.1379 82.4761 64.4474 82.7091 64.8478C82.9421 65.2483 83.0586 65.7324 83.0586 66.3003C83.0586 66.8791 82.9185 67.3997 82.6381 67.862C82.3578 68.3207 81.9355 68.683 81.3713 68.9487C80.807 69.2145 80.0972 69.3473 79.2417 69.3473H74.7148ZM76.7407 67.6545H78.9195C79.6548 67.6545 80.1845 67.5144 80.5085 67.2341C80.8362 66.9501 81 66.5861 81 66.142C81 65.8107 80.9181 65.5122 80.7542 65.2464C80.5904 64.977 80.3574 64.7659 80.0553 64.613C79.7531 64.4565 79.3927 64.3782 78.9741 64.3782H76.7407V67.6545ZM76.7407 62.9202H78.7448C79.0942 62.9202 79.4091 62.8565 79.6894 62.7291C79.9697 62.5981 80.19 62.4142 80.3502 62.1776C80.514 61.9373 80.5959 61.6534 80.5959 61.3257C80.5959 60.8925 80.443 60.5358 80.1372 60.2555C79.835 59.9752 79.3855 59.835 78.7884 59.835H76.7407V62.9202Z" fill="#B91C1C"/>
<path d="M82.3053 117.027C82.3053 117.027 90.4748 196.74 31.3691 202.301" stroke="#B91C1C" stroke-width="2"/>
<path d="M32.6148 200.062L31.0088 202.292L33.2522 203.849" stroke="#B91C1C" stroke-width="2"/>
<path d="M82.3064 116.939C82.3064 116.939 96.8007 207.773 31.4209 227.896" stroke="#B91C1C" stroke-width="2"/>
<path d="M32.2811 225.775L31.0991 228.15L33.5864 229.251" stroke="#B91C1C" stroke-width="2"/>
</svg>
