<svg width="166" height="237" viewBox="0 0 166 237" fill="none" xmlns="http://www.w3.org/2000/svg">
<path d="M145.205 145.707C146.74 145.707 147.985 144.567 147.985 143.16C147.985 141.754 146.74 140.613 145.205 140.613C143.67 140.613 142.426 141.754 142.426 143.16C142.426 144.567 143.67 145.707 145.205 145.707Z" fill="#B3B3B3"/>
<path d="M147.251 146.471H143.161C142.423 146.471 141.824 147.019 141.824 147.696V154.516C141.824 155.192 142.423 155.741 143.161 155.741H147.251C147.989 155.741 148.587 155.192 148.587 154.516V147.696C148.587 147.019 147.989 146.471 147.251 146.471Z" fill="#B3B3B3"/>
<path d="M146.311 153.066H144.1C143.521 153.066 143.052 153.496 143.052 154.026V159.84C143.052 160.37 143.521 160.8 144.1 160.8H146.311C146.89 160.8 147.359 160.37 147.359 159.84V154.026C147.359 153.496 146.89 153.066 146.311 153.066Z" fill="#B3B3B3"/>
<path d="M21.9356 145.707C23.4706 145.707 24.715 144.567 24.715 143.16C24.715 141.754 23.4706 140.613 21.9356 140.613C20.4006 140.613 19.1562 141.754 19.1562 143.16C19.1562 144.567 20.4006 145.707 21.9356 145.707Z" fill="#B3B3B3"/>
<path d="M23.9806 146.471H19.8907C19.1526 146.471 18.5542 147.019 18.5542 147.696V154.516C18.5542 155.192 19.1526 155.741 19.8907 155.741H23.9806C24.7188 155.741 25.3172 155.192 25.3172 154.516V147.696C25.3172 147.019 24.7188 146.471 23.9806 146.471Z" fill="#B3B3B3"/>
<path d="M23.0415 153.066H20.8302C20.2517 153.066 19.7827 153.496 19.7827 154.026V159.84C19.7827 160.37 20.2517 160.8 20.8302 160.8H23.0415C23.6201 160.8 24.089 160.37 24.089 159.84V154.026C24.089 153.496 23.6201 153.066 23.0415 153.066Z" fill="#B3B3B3"/>
<path d="M82.3059 116.773C82.3059 116.773 82.9344 173.277 31.3311 175.778" stroke="#B3B3B3" stroke-width="2"/>
<path d="M33.1075 174.016L31.2139 175.823L33.2266 177.483" stroke="#B3B3B3" stroke-width="2"/>
<path d="M82.3058 116.885C82.3058 116.885 90.4753 196.597 31.3696 202.159" stroke="#B3B3B3" stroke-width="2"/>
<path d="M32.6152 199.92L31.0093 202.149L33.2527 203.706" stroke="#B3B3B3" stroke-width="2"/>
<path d="M82.3064 116.791C82.3064 116.791 96.8007 207.625 31.4209 227.747" stroke="#B91C1C" stroke-width="2"/>
<path d="M32.2811 225.627L31.0991 228.002L33.5864 229.103" stroke="#B91C1C" stroke-width="2"/>
<path d="M82.3563 127.092C82.3563 127.092 82.9758 151.57 31.3291 150.661" stroke="#B3B3B3" stroke-width="2"/>
<path d="M32.9018 148.488L31.0786 150.655L32.9018 152.573" stroke="#B3B3B3" stroke-width="2"/>
<path d="M145.206 171.108C146.741 171.108 147.985 169.967 147.985 168.561C147.985 167.154 146.741 166.014 145.206 166.014C143.671 166.014 142.426 167.154 142.426 168.561C142.426 169.967 143.671 171.108 145.206 171.108Z" fill="#B3B3B3"/>
<path d="M147.251 171.871H143.161C142.423 171.871 141.824 172.419 141.824 173.096V179.916C141.824 180.593 142.423 181.141 143.161 181.141H147.251C147.989 181.141 148.587 180.593 148.587 179.916V173.096C148.587 172.419 147.989 171.871 147.251 171.871Z" fill="#B3B3B3"/>
<path d="M146.312 178.467H144.1C143.522 178.467 143.053 178.897 143.053 179.427V185.241C143.053 185.771 143.522 186.201 144.1 186.201H146.312C146.89 186.201 147.359 185.771 147.359 185.241V179.427C147.359 178.897 146.89 178.467 146.312 178.467Z" fill="#B3B3B3"/>
<path d="M21.9361 171.108C23.4711 171.108 24.7155 169.967 24.7155 168.561C24.7155 167.154 23.4711 166.014 21.9361 166.014C20.4011 166.014 19.1567 167.154 19.1567 168.561C19.1567 169.967 20.4011 171.108 21.9361 171.108Z" fill="#B3B3B3"/>
<path d="M23.9811 171.871H19.8912C19.1531 171.871 18.5547 172.419 18.5547 173.096V179.916C18.5547 180.593 19.1531 181.141 19.8912 181.141H23.9811C24.7193 181.141 25.3177 180.593 25.3177 179.916V173.096C25.3177 172.419 24.7193 171.871 23.9811 171.871Z" fill="#B3B3B3"/>
<path d="M23.0415 178.467H20.8302C20.2517 178.467 19.7827 178.897 19.7827 179.427V185.241C19.7827 185.771 20.2517 186.201 20.8302 186.201H23.0415C23.6201 186.201 24.089 185.771 24.089 185.241V179.427C24.089 178.897 23.6201 178.467 23.0415 178.467Z" fill="#B3B3B3"/>
<path d="M145.205 196.508C146.74 196.508 147.985 195.368 147.985 193.961C147.985 192.554 146.74 191.414 145.205 191.414C143.67 191.414 142.426 192.554 142.426 193.961C142.426 195.368 143.67 196.508 145.205 196.508Z" fill="#B3B3B3"/>
<path d="M147.251 197.271H143.161C142.423 197.271 141.824 197.82 141.824 198.496V205.317C141.824 205.993 142.423 206.542 143.161 206.542H147.251C147.989 206.542 148.587 205.993 148.587 205.317V198.496C148.587 197.82 147.989 197.271 147.251 197.271Z" fill="#B3B3B3"/>
<path d="M146.311 203.865H144.1C143.521 203.865 143.052 204.295 143.052 204.825V210.639C143.052 211.169 143.521 211.599 144.1 211.599H146.311C146.89 211.599 147.359 211.169 147.359 210.639V204.825C147.359 204.295 146.89 203.865 146.311 203.865Z" fill="#B3B3B3"/>
<path d="M21.9356 196.508C23.4706 196.508 24.715 195.368 24.715 193.961C24.715 192.554 23.4706 191.414 21.9356 191.414C20.4006 191.414 19.1562 192.554 19.1562 193.961C19.1562 195.368 20.4006 196.508 21.9356 196.508Z" fill="#B3B3B3"/>
<path d="M23.9806 197.271H19.8907C19.1526 197.271 18.5542 197.82 18.5542 198.496V205.317C18.5542 205.993 19.1526 206.542 19.8907 206.542H23.9806C24.7188 206.542 25.3172 205.993 25.3172 205.317V198.496C25.3172 197.82 24.7188 197.271 23.9806 197.271Z" fill="#B3B3B3"/>
<path d="M23.0415 203.865H20.8302C20.2517 203.865 19.7827 204.295 19.7827 204.825V210.639C19.7827 211.169 20.2517 211.599 20.8302 211.599H23.0415C23.6201 211.599 24.089 211.169 24.089 210.639V204.825C24.089 204.295 23.6201 203.865 23.0415 203.865Z" fill="#B3B3B3"/>
<path d="M145.206 221.911C146.741 221.911 147.985 220.77 147.985 219.363C147.985 217.957 146.741 216.816 145.206 216.816C143.671 216.816 142.426 217.957 142.426 219.363C142.426 220.77 143.671 221.911 145.206 221.911Z" fill="#B91C1C"/>
<path d="M147.251 222.674H143.161C142.423 222.674 141.824 223.222 141.824 223.899V230.719C141.824 231.396 142.423 231.944 143.161 231.944H147.251C147.989 231.944 148.587 231.396 148.587 230.719V223.899C148.587 223.222 147.989 222.674 147.251 222.674Z" fill="#B91C1C"/>
<path d="M146.312 229.27H144.1C143.522 229.27 143.053 229.699 143.053 230.229V236.043C143.053 236.574 143.522 237.003 144.1 237.003H146.312C146.89 237.003 147.359 236.574 147.359 236.043V230.229C147.359 229.699 146.89 229.27 146.312 229.27Z" fill="#B91C1C"/>
<path d="M21.9356 221.911C23.4706 221.911 24.715 220.77 24.715 219.363C24.715 217.957 23.4706 216.816 21.9356 216.816C20.4006 216.816 19.1562 217.957 19.1562 219.363C19.1562 220.77 20.4006 221.911 21.9356 221.911Z" fill="#B91C1C"/>
<path d="M23.9806 222.674H19.8907C19.1526 222.674 18.5542 223.222 18.5542 223.899V230.719C18.5542 231.396 19.1526 231.944 19.8907 231.944H23.9806C24.7188 231.944 25.3172 231.396 25.3172 230.719V223.899C25.3172 223.222 24.7188 222.674 23.9806 222.674Z" fill="#B91C1C"/>
<path d="M23.0406 229.27H20.8293C20.2507 229.27 19.7817 229.699 19.7817 230.229V236.043C19.7817 236.574 20.2507 237.003 20.8293 237.003H23.0406C23.6191 237.003 24.0881 236.574 24.0881 236.043V230.229C24.0881 229.699 23.6191 229.27 23.0406 229.27Z" fill="#B91C1C"/>
<path d="M85.2698 116.773C85.2698 116.773 84.6413 173.277 136.245 175.778" stroke="#B3B3B3" stroke-width="2"/>
<path d="M134.469 174.016L136.362 175.823L134.35 177.483" stroke="#B3B3B3" stroke-width="2"/>
<path d="M85.2694 116.885C85.2694 116.885 77.0999 196.597 136.206 202.159" stroke="#B3B3B3" stroke-width="2"/>
<path d="M134.96 199.92L136.566 202.149L134.322 203.706" stroke="#B3B3B3" stroke-width="2"/>
<path d="M85.2702 116.791C85.2702 116.791 70.7759 207.625 136.156 227.747" stroke="#B91C1C" stroke-width="2"/>
<path d="M135.295 225.627L136.477 228.002L133.989 229.103" stroke="#B91C1C" stroke-width="2"/>
<path d="M85.2194 127.092C85.2194 127.092 84.5999 151.57 136.247 150.661" stroke="#B3B3B3" stroke-width="2"/>
<path d="M134.484 148.725L136.497 150.651L134.484 152.569" stroke="#B3B3B3" stroke-width="2"/>
<path d="M13.712 153.334V149.367H14.612V153.334H13.712ZM12.1787 151.8V150.901H16.1453V151.8H12.1787Z" fill="#B3B3B3"/>
<path d="M11.0213 151.339C11.0213 151.972 10.9029 152.513 10.666 152.964C10.4309 153.413 10.1099 153.757 9.70296 153.996C9.29789 154.235 8.83837 154.354 8.32439 154.354C7.81041 154.354 7.34994 154.235 6.94296 153.996C6.53789 153.755 6.21689 153.41 5.97997 152.961C5.74495 152.511 5.62744 151.97 5.62744 151.339C5.62744 150.707 5.74495 150.166 5.97997 149.717C6.21689 149.266 6.53789 148.921 6.94296 148.682C7.34994 148.444 7.81041 148.324 8.32439 148.324C8.83837 148.324 9.29789 148.444 9.70296 148.682C10.1099 148.921 10.4309 149.266 10.666 149.717C10.9029 150.166 11.0213 150.707 11.0213 151.339ZM9.95231 151.339C9.95231 150.894 9.88257 150.519 9.74309 150.213C9.60552 149.905 9.41445 149.673 9.16988 149.516C8.92531 149.358 8.64348 149.279 8.32439 149.279C8.00531 149.279 7.72348 149.358 7.47891 149.516C7.23434 149.673 7.04231 149.905 6.90283 150.213C6.76526 150.519 6.69648 150.894 6.69648 151.339C6.69648 151.784 6.76526 152.161 6.90283 152.469C7.04231 152.774 7.23434 153.006 7.47891 153.165C7.72348 153.322 8.00531 153.4 8.32439 153.4C8.64348 153.4 8.92531 153.322 9.16988 153.165C9.41445 153.006 9.60552 152.774 9.74309 152.469C9.88257 152.161 9.95231 151.784 9.95231 151.339Z" fill="#B3B3B3"/>
<path d="M160.605 150.912V151.766H157.962V150.912H160.605Z" fill="#B3B3B3"/>
<path d="M156.977 151.339C156.977 151.972 156.858 152.513 156.622 152.964C156.387 153.413 156.066 153.757 155.659 153.996C155.253 154.235 154.794 154.354 154.28 154.354C153.766 154.354 153.306 154.235 152.899 153.996C152.493 153.755 152.172 153.41 151.936 152.961C151.701 152.511 151.583 151.97 151.583 151.339C151.583 150.707 151.701 150.166 151.936 149.717C152.172 149.266 152.493 148.921 152.899 148.682C153.306 148.444 153.766 148.324 154.28 148.324C154.794 148.324 155.253 148.444 155.659 148.682C156.066 148.921 156.387 149.266 156.622 149.717C156.858 150.166 156.977 150.707 156.977 151.339ZM155.908 151.339C155.908 150.894 155.838 150.519 155.699 150.213C155.561 149.905 155.37 149.673 155.125 149.516C154.881 149.358 154.599 149.279 154.28 149.279C153.961 149.279 153.679 149.358 153.434 149.516C153.19 149.673 152.998 149.905 152.858 150.213C152.721 150.519 152.652 150.894 152.652 151.339C152.652 151.784 152.721 152.161 152.858 152.469C152.998 152.774 153.19 153.006 153.434 153.165C153.679 153.322 153.961 153.4 154.28 153.4C154.599 153.4 154.881 153.322 155.125 153.165C155.37 153.006 155.561 152.774 155.699 152.469C155.838 152.161 155.908 151.784 155.908 151.339Z" fill="#B3B3B3"/>
<path d="M13.5065 178.805V174.838H14.4064V178.805H13.5065ZM11.9731 177.271V176.371H15.9398V177.271H11.9731Z" fill="#B3B3B3"/>
<path d="M6.73456 179.745H5.59961L7.66603 173.875H8.97868L11.048 179.745H9.91301L8.34528 175.079H8.29943L6.73456 179.745ZM6.77182 177.443H9.86716V178.297H6.77182V177.443Z" fill="#B3B3B3"/>
<path d="M160.399 176.383V177.237H157.757V176.383H160.399Z" fill="#B3B3B3"/>
<path d="M152.691 179.745H151.556L153.622 173.875H154.935L157.004 179.745H155.869L154.301 175.079H154.255L152.691 179.745ZM152.728 177.443H155.823V178.297H152.728V177.443Z" fill="#B3B3B3"/>
<path d="M13.2389 204.269V200.303H14.1388V204.269H13.2389ZM11.7056 202.736V201.836H15.6722V202.736H11.7056Z" fill="#B3B3B3"/>
<path d="M6.24951 205.21V199.34H8.49649C8.92067 199.34 9.27319 199.407 9.55407 199.54C9.83685 199.672 10.048 199.853 10.1875 200.082C10.3289 200.311 10.3995 200.571 10.3995 200.862C10.3995 201.101 10.3537 201.305 10.262 201.475C10.1703 201.643 10.047 201.78 9.89226 201.885C9.73749 201.99 9.56457 202.065 9.37351 202.111V202.169C9.58177 202.18 9.78144 202.244 9.97251 202.361C10.1655 202.475 10.3231 202.638 10.4454 202.848C10.5677 203.058 10.6288 203.312 10.6288 203.61C10.6288 203.914 10.5553 204.187 10.4081 204.43C10.261 204.671 10.0394 204.861 9.74323 205C9.44707 205.14 9.07448 205.21 8.62547 205.21H6.24951ZM7.31282 204.321H8.45637C8.84233 204.321 9.12034 204.247 9.29039 204.1C9.46235 203.951 9.54833 203.76 9.54833 203.527C9.54833 203.353 9.50534 203.197 9.41936 203.057C9.33338 202.916 9.2111 202.805 9.05251 202.725C8.89392 202.642 8.70476 202.601 8.48503 202.601H7.31282V204.321ZM7.31282 201.836H8.36466C8.54808 201.836 8.71336 201.803 8.86048 201.736C9.00761 201.667 9.1232 201.571 9.20727 201.446C9.29326 201.32 9.33625 201.171 9.33625 200.999C9.33625 200.772 9.256 200.585 9.0955 200.438C8.93691 200.29 8.70094 200.217 8.38758 200.217H7.31282V201.836Z" fill="#B3B3B3"/>
<path d="M160.131 201.848V202.702H157.489V201.848H160.131Z" fill="#B3B3B3"/>
<path d="M152.205 205.21V199.34H154.452C154.876 199.34 155.228 199.407 155.509 199.54C155.792 199.672 156.003 199.853 156.143 200.082C156.284 200.311 156.355 200.571 156.355 200.862C156.355 201.101 156.309 201.305 156.217 201.475C156.125 201.643 156.002 201.78 155.847 201.885C155.693 201.99 155.52 202.065 155.329 202.111V202.169C155.537 202.18 155.737 202.244 155.928 202.361C156.121 202.475 156.278 202.638 156.4 202.848C156.523 203.058 156.584 203.312 156.584 203.61C156.584 203.914 156.51 204.187 156.363 204.43C156.216 204.671 155.994 204.861 155.698 205C155.402 205.14 155.03 205.21 154.581 205.21H152.205ZM153.268 204.321H154.411C154.797 204.321 155.075 204.247 155.245 204.1C155.417 203.951 155.503 203.76 155.503 203.527C155.503 203.353 155.46 203.197 155.374 203.057C155.288 202.916 155.166 202.805 155.008 202.725C154.849 202.642 154.66 202.601 154.44 202.601H153.268V204.321ZM153.268 201.836H154.32C154.503 201.836 154.668 201.803 154.816 201.736C154.963 201.667 155.078 201.571 155.162 201.446C155.248 201.32 155.291 201.171 155.291 200.999C155.291 200.772 155.211 200.585 155.051 200.438C154.892 200.29 154.656 200.217 154.343 200.217H153.268V201.836Z" fill="#B3B3B3"/>
<path d="M13.756 229.642V225.676H14.6559V229.642H13.756ZM12.2227 228.109V227.209H16.1893V228.109H12.2227Z" fill="#B91C1C"/>
<path d="M6.7666 230.583V224.713H9.01358C9.43776 224.713 9.79028 224.78 10.0712 224.914C10.3539 225.045 10.5651 225.226 10.7046 225.455C10.8459 225.684 10.9166 225.944 10.9166 226.235C10.9166 226.474 10.8708 226.678 10.7791 226.848C10.6874 227.016 10.5641 227.153 10.4093 227.258C10.2546 227.363 10.0817 227.439 9.89059 227.484V227.542C10.0989 227.553 10.2985 227.617 10.4896 227.734C10.6826 227.848 10.8402 228.011 10.9625 228.221C11.0848 228.431 11.1459 228.685 11.1459 228.983C11.1459 229.287 11.0724 229.56 10.9252 229.803C10.7781 230.044 10.5565 230.234 10.2603 230.373C9.96416 230.513 9.59157 230.583 9.14255 230.583H6.7666ZM7.82991 229.694H8.97346C9.35942 229.694 9.63743 229.621 9.80748 229.473C9.97944 229.324 10.0654 229.133 10.0654 228.9C10.0654 228.726 10.0224 228.57 9.93645 228.43C9.85047 228.289 9.72818 228.178 9.5696 228.098C9.41101 228.016 9.22185 227.974 9.00212 227.974H7.82991V229.694ZM7.82991 227.209H8.88175C9.06517 227.209 9.23045 227.176 9.37757 227.109C9.5247 227.04 9.64029 226.944 9.72436 226.819C9.81034 226.693 9.85334 226.544 9.85334 226.372C9.85334 226.145 9.77309 225.958 9.61259 225.811C9.454 225.663 9.21803 225.59 8.90467 225.59H7.82991V227.209Z" fill="#B91C1C"/>
<path d="M1.67988 230.583H0.544922L2.61134 224.713H3.92399L5.99328 230.583H4.85832L3.2906 225.917H3.24474L1.67988 230.583ZM1.71714 228.281H4.81247V229.135H1.71714V228.281Z" fill="#B91C1C"/>
<path d="M165.454 227.221V228.075H162.812V227.221H165.454Z" fill="#B91C1C"/>
<path d="M157.527 230.583V224.713H159.774C160.199 224.713 160.551 224.78 160.832 224.914C161.115 225.045 161.326 225.226 161.465 225.455C161.607 225.684 161.677 225.944 161.677 226.235C161.677 226.474 161.632 226.678 161.54 226.848C161.448 227.016 161.325 227.153 161.17 227.258C161.015 227.363 160.842 227.439 160.651 227.484V227.542C160.86 227.553 161.059 227.617 161.25 227.734C161.443 227.848 161.601 228.011 161.723 228.221C161.846 228.431 161.907 228.685 161.907 228.983C161.907 229.287 161.833 229.56 161.686 229.803C161.539 230.044 161.317 230.234 161.021 230.373C160.725 230.513 160.352 230.583 159.903 230.583H157.527ZM158.591 229.694H159.734C160.12 229.694 160.398 229.621 160.568 229.473C160.74 229.324 160.826 229.133 160.826 228.9C160.826 228.726 160.783 228.57 160.697 228.43C160.611 228.289 160.489 228.178 160.33 228.098C160.172 228.016 159.983 227.974 159.763 227.974H158.591V229.694ZM158.591 227.209H159.642C159.826 227.209 159.991 227.176 160.138 227.109C160.285 227.04 160.401 226.944 160.485 226.819C160.571 226.693 160.614 226.544 160.614 226.372C160.614 226.145 160.534 225.958 160.373 225.811C160.215 225.663 159.979 225.59 159.665 225.59H158.591V227.209Z" fill="#B91C1C"/>
<path d="M152.441 230.583H151.306L153.372 224.713H154.685L156.754 230.583H155.619L154.051 225.917H154.005L152.441 230.583ZM152.478 228.281H155.573V229.135H152.478V228.281Z" fill="#B91C1C"/>
<path d="M104.02 120.459H109.278C110.761 120.459 111.954 119.329 111.954 117.926V111.613C111.954 110.21 110.761 109.08 109.278 109.08H104.02V120.459Z" fill="#42DCFF"/>
<path d="M104.023 109.082H98.7642C97.2818 109.082 96.0884 110.212 96.0884 111.615V117.928C96.0884 119.331 97.2818 120.461 98.7642 120.461H104.023V109.082Z" fill="#4AF3FF"/>
<path d="M63.4609 120.459H68.7197C70.2021 120.459 71.3955 119.329 71.3955 117.926V111.613C71.3955 110.21 70.2021 109.08 68.7197 109.08H63.4609V120.459Z" fill="#42DCFF"/>
<path d="M63.4643 109.082H58.2056C56.7232 109.082 55.5298 110.212 55.5298 111.615V117.928C55.5298 119.331 56.7232 120.461 58.2056 120.461H63.4643V109.082Z" fill="#4AF3FF"/>
<path d="M83.6424 112.089L49.9097 111.738C49.9097 111.738 47.3555 111.606 42.4233 107.83C37.4911 104.054 37.8401 96.4174 37.8401 96.4174V19.1676C37.8401 19.1676 36.7425 1.12926 63.8696 7.80355C63.8696 7.80355 70.5192 0.338893 73.6899 0.492575H83.6204L83.6424 112.089Z" fill="#42DCFF"/>
<path d="M83.5015 112.089L117.234 111.738C117.234 111.738 119.788 111.606 124.721 107.83C129.653 104.054 129.304 96.4174 129.304 96.4174V19.1676C129.304 19.1676 130.401 1.12926 103.274 7.80355C103.274 7.80355 96.6246 0.338893 93.4539 0.492575H83.5235L83.5015 112.089Z" fill="#42DCFF"/>
<path d="M81.2458 112.039L49.2718 111.687C49.2718 111.687 46.8508 111.556 42.1757 107.779C37.5007 104.003 37.8315 96.3666 37.8315 96.3666V19.1168C37.8315 19.1168 36.7911 1.07848 62.5039 7.75277C62.5039 7.75277 68.8068 0.288112 71.8122 0.441794H81.225L81.2458 112.039Z" fill="#4AF3FF"/>
<path d="M81.1123 112.039L113.086 111.687C113.086 111.687 115.507 111.556 120.182 107.779C124.857 104.003 124.527 96.3666 124.527 96.3666V19.1168C124.527 19.1168 125.567 1.07848 99.8543 7.75277C99.8543 7.75277 93.5513 0.288112 90.5459 0.441794H81.1332L81.1123 112.039Z" fill="#4AF3FF"/>
<path d="M59.3262 104.201L59.3262 111.901H67.4607L67.4606 104.201L76.3823 104.201C77.3059 104.201 78.9221 103.923 79.5238 104.777C80.2981 105.875 79.7935 108.387 79.7935 109.666V122.085C79.7935 123.386 79.3194 125.704 80.4018 126.697C81.4763 127.683 83.9263 127.372 85.3039 127.291C88.3659 127.109 87.6656 123.929 87.6656 121.837V109.666C87.6655 108.387 87.161 105.875 87.9353 104.777C88.537 103.923 90.1531 104.201 91.0768 104.201H99.9984V111.901H108.133V104.201C112.775 104.201 118.814 105.343 122.254 101.713C125.823 97.9483 124.402 90.7377 124.402 86.0685L124.402 46.0775C124.402 40.6012 125.452 34.0022 123.941 28.6901C123.106 25.7563 120.313 23.3856 117.054 23.2354C99.3923 22.4215 81.4726 23.2255 63.787 23.2255C58.1307 23.2255 48.6712 21.3861 44.7714 26.2064C41.4221 30.3464 43.0573 38.6717 43.0573 43.5936V84.0814C43.0574 88.8696 41.5754 96.5104 44.4043 100.724C47.5646 105.43 54.3086 104.201 59.3262 104.201ZM83.4671 47.3194H83.9919C85.0736 45.1423 87.9531 43.8271 90.2896 43.1477C98.7418 40.6906 106.805 46.2446 108.021 54.2744C109.538 64.3012 99.763 73.7858 92.3888 79.505C90.442 81.0147 86.3798 84.9562 83.7295 84.9378C81.5655 84.9227 78.2687 81.8781 76.6447 80.6533C70.526 76.0385 64.4131 70.6588 61.2751 63.7133C58.6818 57.9732 58.3606 50.7587 63.5482 46.1493C68.3103 41.9184 80.0782 40.4974 83.4671 47.3194Z" fill="#B91C1C"/>
<path d="M95.004 42.5977C95.004 42.5977 115.338 58.8332 84.0713 85.1178C84.0713 85.1178 85.7367 84.4088 87.2598 83.5955C87.2598 83.5955 95.1095 77.6436 99.3664 73.3922C99.3664 73.3922 104.326 68.6233 106.708 63.078C106.708 63.078 110.272 56.5105 106.914 50.2628C106.914 50.2628 103.724 43.0044 95.004 42.5977Z" fill="#42DCFF"/>
<path d="M91.41 7.30078H74.3974C72.8315 7.30078 71.562 8.50247 71.562 9.98482C71.562 11.4672 72.8315 12.6689 74.3974 12.6689H91.41C92.9759 12.6689 94.2454 11.4672 94.2454 9.98482C94.2454 8.50247 92.9759 7.30078 91.41 7.30078Z" fill="#AFFCFF"/>
<path d="M112.495 23.1583C112.495 23.1583 118.407 28.4834 117.749 36.2611V90.9955C117.749 90.9955 118.619 99.4414 114.101 104.276C114.101 104.276 126.689 106.561 124.414 88.7537V35.2494C124.414 35.2494 126.861 21.7022 112.495 23.1583Z" fill="#A80202"/>
<path d="M93.7839 62.8867V64.2344H90.0415V62.8867H93.7839Z" fill="#B91C1C"/>
<path d="M82.5576 68.1935V58.9316H85.7399C86.3406 58.9316 86.8398 59.0372 87.2376 59.2482C87.6381 59.4562 87.9371 59.7411 88.1346 60.1029C88.3349 60.4647 88.435 60.8748 88.435 61.333C88.435 61.7099 88.3701 62.0325 88.2402 62.3008C88.1103 62.5661 87.9358 62.7817 87.7166 62.9475C87.4974 63.1133 87.2525 63.2324 86.9819 63.3048V63.3952C87.2769 63.4133 87.5596 63.5143 87.8302 63.6982C88.1035 63.8791 88.3268 64.1354 88.5 64.467C88.6731 64.7987 88.7597 65.1997 88.7597 65.67C88.7597 66.1494 88.6555 66.5805 88.4472 66.9634C88.2388 67.3433 87.9249 67.6432 87.5055 67.8633C87.0861 68.0834 86.5584 68.1935 85.9225 68.1935H82.5576ZM84.0635 66.7915H85.683C86.2296 66.7915 86.6234 66.6755 86.8642 66.4433C87.1077 66.2081 87.2295 65.9066 87.2295 65.5388C87.2295 65.2645 87.1686 65.0172 87.0468 64.7972C86.9251 64.5741 86.7519 64.3992 86.5273 64.2726C86.3027 64.1429 86.0348 64.0781 85.7236 64.0781H84.0635V66.7915ZM84.0635 62.8706H85.5531C85.8129 62.8706 86.047 62.8179 86.2553 62.7123C86.4637 62.6038 86.6274 62.4516 86.7465 62.2556C86.8682 62.0566 86.9291 61.8214 86.9291 61.5501C86.9291 61.1913 86.8155 60.8959 86.5882 60.6637C86.3636 60.4316 86.0294 60.3155 85.5856 60.3155H84.0635V62.8706Z" fill="#B91C1C"/>
<path d="M75.3544 68.1935H73.7471L76.6736 58.9316H78.5326L81.4632 68.1935H79.8558L77.6356 60.831H77.5706L75.3544 68.1935ZM75.4072 64.562H79.7909V65.9097H75.4072V64.562Z" fill="#B91C1C"/>
</svg>
