<svg width="165" height="237" viewBox="0 0 165 237" fill="none" xmlns="http://www.w3.org/2000/svg">
<path d="M144.659 145.707C146.194 145.707 147.439 144.567 147.439 143.16C147.439 141.754 146.194 140.613 144.659 140.613C143.124 140.613 141.88 141.754 141.88 143.16C141.88 144.567 143.124 145.707 144.659 145.707Z" fill="#B3B3B3"/>
<path d="M146.705 146.471H142.615C141.877 146.471 141.278 147.019 141.278 147.696V154.516C141.278 155.192 141.877 155.741 142.615 155.741H146.705C147.443 155.741 148.041 155.192 148.041 154.516V147.696C148.041 147.019 147.443 146.471 146.705 146.471Z" fill="#B3B3B3"/>
<path d="M145.765 153.066H143.554C142.975 153.066 142.506 153.496 142.506 154.026V159.84C142.506 160.37 142.975 160.8 143.554 160.8H145.765C146.344 160.8 146.813 160.37 146.813 159.84V154.026C146.813 153.496 146.344 153.066 145.765 153.066Z" fill="#B3B3B3"/>
<path d="M21.3897 145.707C22.9247 145.707 24.1691 144.567 24.1691 143.16C24.1691 141.754 22.9247 140.613 21.3897 140.613C19.8547 140.613 18.6104 141.754 18.6104 143.16C18.6104 144.567 19.8547 145.707 21.3897 145.707Z" fill="#B3B3B3"/>
<path d="M23.4352 146.471H19.3453C18.6072 146.471 18.0088 147.019 18.0088 147.696V154.516C18.0088 155.192 18.6072 155.741 19.3453 155.741H23.4352C24.1734 155.741 24.7718 155.192 24.7718 154.516V147.696C24.7718 147.019 24.1734 146.471 23.4352 146.471Z" fill="#B3B3B3"/>
<path d="M22.4956 153.066H20.2843C19.7058 153.066 19.2368 153.496 19.2368 154.026V159.84C19.2368 160.37 19.7058 160.8 20.2843 160.8H22.4956C23.0742 160.8 23.5431 160.37 23.5431 159.84V154.026C23.5431 153.496 23.0742 153.066 22.4956 153.066Z" fill="#B3B3B3"/>
<path d="M81.7615 116.773C81.7615 116.773 82.3899 173.277 30.7866 175.778" stroke="#B3B3B3" stroke-width="2"/>
<path d="M32.563 174.016L30.6694 175.823L32.6821 177.483" stroke="#B3B3B3" stroke-width="2"/>
<path d="M81.7604 116.885C81.7604 116.885 89.9298 196.597 30.8242 202.159" stroke="#B3B3B3" stroke-width="2"/>
<path d="M32.0703 199.92L30.4644 202.149L32.7078 203.706" stroke="#B3B3B3" stroke-width="2"/>
<path d="M81.8104 127.092C81.8104 127.092 82.4299 151.57 30.7832 150.661" stroke="#B3B3B3" stroke-width="2"/>
<path d="M32.3559 148.488L30.5327 150.655L32.3559 152.573" stroke="#B3B3B3" stroke-width="2"/>
<path d="M144.66 171.108C146.195 171.108 147.44 169.967 147.44 168.561C147.44 167.154 146.195 166.014 144.66 166.014C143.125 166.014 141.881 167.154 141.881 168.561C141.881 169.967 143.125 171.108 144.66 171.108Z" fill="#B3B3B3"/>
<path d="M146.705 171.871H142.615C141.877 171.871 141.279 172.419 141.279 173.096V179.916C141.279 180.593 141.877 181.141 142.615 181.141H146.705C147.443 181.141 148.042 180.593 148.042 179.916V173.096C148.042 172.419 147.443 171.871 146.705 171.871Z" fill="#B3B3B3"/>
<path d="M145.766 178.467H143.554C142.976 178.467 142.507 178.897 142.507 179.427V185.241C142.507 185.771 142.976 186.201 143.554 186.201H145.766C146.344 186.201 146.813 185.771 146.813 185.241V179.427C146.813 178.897 146.344 178.467 145.766 178.467Z" fill="#B3B3B3"/>
<path d="M21.3907 171.108C22.9257 171.108 24.1701 169.967 24.1701 168.561C24.1701 167.154 22.9257 166.014 21.3907 166.014C19.8557 166.014 18.6113 167.154 18.6113 168.561C18.6113 169.967 19.8557 171.108 21.3907 171.108Z" fill="#B3B3B3"/>
<path d="M23.4357 171.871H19.3458C18.6077 171.871 18.0093 172.419 18.0093 173.096V179.916C18.0093 180.593 18.6077 181.141 19.3458 181.141H23.4357C24.1739 181.141 24.7722 180.593 24.7722 179.916V173.096C24.7722 172.419 24.1739 171.871 23.4357 171.871Z" fill="#B3B3B3"/>
<path d="M22.4961 178.467H20.2848C19.7063 178.467 19.2373 178.897 19.2373 179.427V185.241C19.2373 185.771 19.7063 186.201 20.2848 186.201H22.4961C23.0746 186.201 23.5436 185.771 23.5436 185.241V179.427C23.5436 178.897 23.0746 178.467 22.4961 178.467Z" fill="#B3B3B3"/>
<path d="M144.659 196.508C146.194 196.508 147.439 195.368 147.439 193.961C147.439 192.554 146.194 191.414 144.659 191.414C143.124 191.414 141.88 192.554 141.88 193.961C141.88 195.368 143.124 196.508 144.659 196.508Z" fill="#B3B3B3"/>
<path d="M146.705 197.271H142.615C141.877 197.271 141.278 197.82 141.278 198.496V205.317C141.278 205.993 141.877 206.542 142.615 206.542H146.705C147.443 206.542 148.041 205.993 148.041 205.317V198.496C148.041 197.82 147.443 197.271 146.705 197.271Z" fill="#B3B3B3"/>
<path d="M145.765 203.865H143.554C142.975 203.865 142.506 204.295 142.506 204.825V210.639C142.506 211.169 142.975 211.599 143.554 211.599H145.765C146.344 211.599 146.813 211.169 146.813 210.639V204.825C146.813 204.295 146.344 203.865 145.765 203.865Z" fill="#B3B3B3"/>
<path d="M21.3902 196.508C22.9252 196.508 24.1696 195.368 24.1696 193.961C24.1696 192.554 22.9252 191.414 21.3902 191.414C19.8552 191.414 18.6108 192.554 18.6108 193.961C18.6108 195.368 19.8552 196.508 21.3902 196.508Z" fill="#B3B3B3"/>
<path d="M23.4357 197.271H19.3458C18.6077 197.271 18.0093 197.82 18.0093 198.496V205.317C18.0093 205.993 18.6077 206.542 19.3458 206.542H23.4357C24.1739 206.542 24.7722 205.993 24.7722 205.317V198.496C24.7722 197.82 24.1739 197.271 23.4357 197.271Z" fill="#B3B3B3"/>
<path d="M22.4961 203.865H20.2848C19.7063 203.865 19.2373 204.295 19.2373 204.825V210.639C19.2373 211.169 19.7063 211.599 20.2848 211.599H22.4961C23.0746 211.599 23.5436 211.169 23.5436 210.639V204.825C23.5436 204.295 23.0746 203.865 22.4961 203.865Z" fill="#B3B3B3"/>
<path d="M144.66 221.911C146.195 221.911 147.439 220.77 147.439 219.363C147.439 217.957 146.195 216.816 144.66 216.816C143.125 216.816 141.88 217.957 141.88 219.363C141.88 220.77 143.125 221.911 144.66 221.911Z" fill="#B3B3B3"/>
<path d="M146.705 222.674H142.615C141.877 222.674 141.278 223.222 141.278 223.899V230.719C141.278 231.396 141.877 231.944 142.615 231.944H146.705C147.443 231.944 148.041 231.396 148.041 230.719V223.899C148.041 223.222 147.443 222.674 146.705 222.674Z" fill="#B3B3B3"/>
<path d="M145.765 229.27H143.553C142.975 229.27 142.506 229.699 142.506 230.229V236.043C142.506 236.574 142.975 237.003 143.553 237.003H145.765C146.343 237.003 146.812 236.574 146.812 236.043V230.229C146.812 229.699 146.343 229.27 145.765 229.27Z" fill="#B3B3B3"/>
<path d="M21.3897 221.911C22.9247 221.911 24.1691 220.77 24.1691 219.363C24.1691 217.957 22.9247 216.816 21.3897 216.816C19.8547 216.816 18.6104 217.957 18.6104 219.363C18.6104 220.77 19.8547 221.911 21.3897 221.911Z" fill="#B91C1C"/>
<path d="M23.4347 222.674H19.3448C18.6067 222.674 18.0083 223.222 18.0083 223.899V230.719C18.0083 231.396 18.6067 231.944 19.3448 231.944H23.4347C24.1729 231.944 24.7713 231.396 24.7713 230.719V223.899C24.7713 223.222 24.1729 222.674 23.4347 222.674Z" fill="#B91C1C"/>
<path d="M22.4947 229.27H20.2834C19.7048 229.27 19.2358 229.699 19.2358 230.229V236.043C19.2358 236.574 19.7048 237.003 20.2834 237.003H22.4947C23.0732 237.003 23.5422 236.574 23.5422 236.043V230.229C23.5422 229.699 23.0732 229.27 22.4947 229.27Z" fill="#B91C1C"/>
<path d="M84.7249 116.773C84.7249 116.773 84.0964 173.277 135.7 175.778" stroke="#B3B3B3" stroke-width="2"/>
<path d="M133.924 174.016L135.817 175.823L133.805 177.483" stroke="#B3B3B3" stroke-width="2"/>
<path d="M84.7255 116.885C84.7255 116.885 76.556 196.597 135.662 202.159" stroke="#B3B3B3" stroke-width="2"/>
<path d="M134.416 199.92L136.021 202.149L133.778 203.706" stroke="#B3B3B3" stroke-width="2"/>
<path d="M84.7253 116.791C84.7253 116.791 70.231 207.625 135.611 227.747" stroke="#B3B3B3" stroke-width="2"/>
<path d="M134.75 225.627L135.932 228.002L133.444 229.103" stroke="#B3B3B3" stroke-width="2"/>
<path d="M84.675 127.092C84.675 127.092 84.0555 151.57 135.702 150.661" stroke="#B3B3B3" stroke-width="2"/>
<path d="M133.94 148.725L135.953 150.651L133.94 152.569" stroke="#B3B3B3" stroke-width="2"/>
<path d="M13.1671 153.334V149.367H14.0671V153.334H13.1671ZM11.6338 151.8V150.901H15.6004V151.8H11.6338Z" fill="#B3B3B3"/>
<path d="M10.4764 151.339C10.4764 151.972 10.358 152.513 10.121 152.964C9.88602 153.413 9.56502 153.757 9.15804 153.996C8.75297 154.235 8.29345 154.354 7.77947 154.354C7.26549 154.354 6.80501 154.235 6.39804 153.996C5.99297 153.755 5.67197 153.41 5.43504 152.961C5.20003 152.511 5.08252 151.97 5.08252 151.339C5.08252 150.707 5.20003 150.166 5.43504 149.717C5.67197 149.266 5.99297 148.921 6.39804 148.682C6.80501 148.444 7.26549 148.324 7.77947 148.324C8.29345 148.324 8.75297 148.444 9.15804 148.682C9.56502 148.921 9.88602 149.266 10.121 149.717C10.358 150.166 10.4764 150.707 10.4764 151.339ZM9.40739 151.339C9.40739 150.894 9.33765 150.519 9.19816 150.213C9.06059 149.905 8.86952 149.673 8.62495 149.516C8.38039 149.358 8.09856 149.279 7.77947 149.279C7.46038 149.279 7.17856 149.358 6.93399 149.516C6.68942 149.673 6.49739 149.905 6.35791 150.213C6.22034 150.519 6.15156 150.894 6.15156 151.339C6.15156 151.784 6.22034 152.161 6.35791 152.469C6.49739 152.774 6.68942 153.006 6.93399 153.165C7.17856 153.322 7.46038 153.4 7.77947 153.4C8.09856 153.4 8.38039 153.322 8.62495 153.165C8.86952 153.006 9.06059 152.774 9.19816 152.469C9.33765 152.161 9.40739 151.784 9.40739 151.339Z" fill="#B3B3B3"/>
<path d="M160.06 150.912V151.766H157.417V150.912H160.06Z" fill="#B3B3B3"/>
<path d="M156.432 151.339C156.432 151.972 156.314 152.513 156.077 152.964C155.842 153.413 155.521 153.757 155.114 153.996C154.709 154.235 154.249 154.354 153.735 154.354C153.221 154.354 152.761 154.235 152.354 153.996C151.949 153.755 151.628 153.41 151.391 152.961C151.156 152.511 151.038 151.97 151.038 151.339C151.038 150.707 151.156 150.166 151.391 149.717C151.628 149.266 151.949 148.921 152.354 148.682C152.761 148.444 153.221 148.324 153.735 148.324C154.249 148.324 154.709 148.444 155.114 148.682C155.521 148.921 155.842 149.266 156.077 149.717C156.314 150.166 156.432 150.707 156.432 151.339ZM155.363 151.339C155.363 150.894 155.293 150.519 155.154 150.213C155.016 149.905 154.825 149.673 154.581 149.516C154.336 149.358 154.054 149.279 153.735 149.279C153.416 149.279 153.134 149.358 152.89 149.516C152.645 149.673 152.453 149.905 152.313 150.213C152.176 150.519 152.107 150.894 152.107 151.339C152.107 151.784 152.176 152.161 152.313 152.469C152.453 152.774 152.645 153.006 152.89 153.165C153.134 153.322 153.416 153.4 153.735 153.4C154.054 153.4 154.336 153.322 154.581 153.165C154.825 153.006 155.016 152.774 155.154 152.469C155.293 152.161 155.363 151.784 155.363 151.339Z" fill="#B3B3B3"/>
<path d="M12.9611 178.805V174.838H13.861V178.805H12.9611ZM11.4277 177.271V176.371H15.3943V177.271H11.4277Z" fill="#B3B3B3"/>
<path d="M6.18915 179.745H5.0542L7.12062 173.875H8.43327L10.5026 179.745H9.3676L7.79987 175.079H7.75402L6.18915 179.745ZM6.22641 177.443H9.32175V178.297H6.22641V177.443Z" fill="#B3B3B3"/>
<path d="M159.854 176.383V177.237H157.212V176.383H159.854Z" fill="#B3B3B3"/>
<path d="M152.146 179.745H151.011L153.077 173.875H154.39L156.459 179.745H155.324L153.756 175.079H153.711L152.146 179.745ZM152.183 177.443H155.278V178.297H152.183V177.443Z" fill="#B3B3B3"/>
<path d="M12.694 204.269V200.303H13.5939V204.269H12.694ZM11.1606 202.736V201.836H15.1273V202.736H11.1606Z" fill="#B3B3B3"/>
<path d="M5.70459 205.21V199.34H7.95157C8.37575 199.34 8.72827 199.407 9.00914 199.54C9.29193 199.672 9.50306 199.853 9.64254 200.082C9.78393 200.311 9.85463 200.571 9.85463 200.862C9.85463 201.101 9.80877 201.305 9.71706 201.475C9.62534 201.643 9.5021 201.78 9.34734 201.885C9.19257 201.99 9.01965 202.065 8.82858 202.111V202.169C9.03685 202.18 9.23652 202.244 9.42759 202.361C9.62057 202.475 9.7782 202.638 9.90049 202.848C10.0228 203.058 10.0839 203.312 10.0839 203.61C10.0839 203.914 10.0104 204.187 9.86323 204.43C9.7161 204.671 9.49446 204.861 9.1983 205C8.90214 205.14 8.52956 205.21 8.08054 205.21H5.70459ZM6.76789 204.321H7.91145C8.29741 204.321 8.57541 204.247 8.74547 204.1C8.91743 203.951 9.00341 203.76 9.00341 203.527C9.00341 203.353 8.96042 203.197 8.87444 203.057C8.78846 202.916 8.66617 202.805 8.50759 202.725C8.349 202.642 8.15984 202.601 7.94011 202.601H6.76789V204.321ZM6.76789 201.836H7.81973C8.00316 201.836 8.16844 201.803 8.31556 201.736C8.46268 201.667 8.57828 201.571 8.66235 201.446C8.74833 201.32 8.79132 201.171 8.79132 200.999C8.79132 200.772 8.71108 200.585 8.55058 200.438C8.39199 200.29 8.15602 200.217 7.84266 200.217H6.76789V201.836Z" fill="#B3B3B3"/>
<path d="M159.586 201.848V202.702H156.944V201.848H159.586Z" fill="#B3B3B3"/>
<path d="M151.66 205.21V199.34H153.907C154.331 199.34 154.683 199.407 154.964 199.54C155.247 199.672 155.458 199.853 155.598 200.082C155.739 200.311 155.81 200.571 155.81 200.862C155.81 201.101 155.764 201.305 155.672 201.475C155.58 201.643 155.457 201.78 155.302 201.885C155.148 201.99 154.975 202.065 154.784 202.111V202.169C154.992 202.18 155.192 202.244 155.383 202.361C155.576 202.475 155.733 202.638 155.856 202.848C155.978 203.058 156.039 203.312 156.039 203.61C156.039 203.914 155.965 204.187 155.818 204.43C155.671 204.671 155.45 204.861 155.153 205C154.857 205.14 154.485 205.21 154.036 205.21H151.66ZM152.723 204.321H153.867C154.252 204.321 154.53 204.247 154.701 204.1C154.873 203.951 154.958 203.76 154.958 203.527C154.958 203.353 154.915 203.197 154.83 203.057C154.744 202.916 154.621 202.805 154.463 202.725C154.304 202.642 154.115 202.601 153.895 202.601H152.723V204.321ZM152.723 201.836H153.775C153.958 201.836 154.124 201.803 154.271 201.736C154.418 201.667 154.533 201.571 154.617 201.446C154.703 201.32 154.746 201.171 154.746 200.999C154.746 200.772 154.666 200.585 154.506 200.438C154.347 200.29 154.111 200.217 153.798 200.217H152.723V201.836Z" fill="#B3B3B3"/>
<path d="M13.2111 229.642V225.676H14.111V229.642H13.2111ZM11.6777 228.109V227.209H15.6443V228.109H11.6777Z" fill="#B91C1C"/>
<path d="M6.22168 230.583V224.713H8.46866C8.89284 224.713 9.24536 224.78 9.52623 224.914C9.80902 225.045 10.0201 225.226 10.1596 225.455C10.301 225.684 10.3717 225.944 10.3717 226.235C10.3717 226.474 10.3259 226.678 10.2341 226.848C10.1424 227.016 10.0192 227.153 9.86443 227.258C9.70966 227.363 9.53674 227.439 9.34567 227.484V227.542C9.55394 227.553 9.75361 227.617 9.94468 227.734C10.1377 227.848 10.2953 228.011 10.4176 228.221C10.5399 228.431 10.601 228.685 10.601 228.983C10.601 229.287 10.5274 229.56 10.3803 229.803C10.2332 230.044 10.0116 230.234 9.71539 230.373C9.41923 230.513 9.04665 230.583 8.59763 230.583H6.22168ZM7.28498 229.694H8.42854C8.8145 229.694 9.0925 229.621 9.26256 229.473C9.43452 229.324 9.5205 229.133 9.5205 228.9C9.5205 228.726 9.47751 228.57 9.39153 228.43C9.30555 228.289 9.18326 228.178 9.02467 228.098C8.86609 228.016 8.67693 227.974 8.4572 227.974H7.28498V229.694ZM7.28498 227.209H8.33682C8.52025 227.209 8.68553 227.176 8.83265 227.109C8.97977 227.04 9.09537 226.944 9.17944 226.819C9.26542 226.693 9.30841 226.544 9.30841 226.372C9.30841 226.145 9.22816 225.958 9.06767 225.811C8.90908 225.663 8.67311 225.59 8.35975 225.59H7.28498V227.209Z" fill="#B91C1C"/>
<path d="M1.13496 230.583H0L2.06642 224.713H3.37907L5.44836 230.583H4.3134L2.74567 225.917H2.69982L1.13496 230.583ZM1.17221 228.281H4.26755V229.135H1.17221V228.281Z" fill="#B91C1C"/>
<path d="M164.909 227.221V228.075H162.267V227.221H164.909Z" fill="#B3B3B3"/>
<path d="M156.982 230.583V224.713H159.229C159.654 224.713 160.006 224.78 160.287 224.914C160.57 225.045 160.781 225.226 160.92 225.455C161.062 225.684 161.132 225.944 161.132 226.235C161.132 226.474 161.087 226.678 160.995 226.848C160.903 227.016 160.78 227.153 160.625 227.258C160.47 227.363 160.297 227.439 160.106 227.484V227.542C160.315 227.553 160.514 227.617 160.705 227.734C160.898 227.848 161.056 228.011 161.178 228.221C161.301 228.431 161.362 228.685 161.362 228.983C161.362 229.287 161.288 229.56 161.141 229.803C160.994 230.044 160.772 230.234 160.476 230.373C160.18 230.513 159.807 230.583 159.358 230.583H156.982ZM158.046 229.694H159.189C159.575 229.694 159.853 229.621 160.023 229.473C160.195 229.324 160.281 229.133 160.281 228.9C160.281 228.726 160.238 228.57 160.152 228.43C160.066 228.289 159.944 228.178 159.785 228.098C159.627 228.016 159.438 227.974 159.218 227.974H158.046V229.694ZM158.046 227.209H159.098C159.281 227.209 159.446 227.176 159.593 227.109C159.741 227.04 159.856 226.944 159.94 226.819C160.026 226.693 160.069 226.544 160.069 226.372C160.069 226.145 159.989 225.958 159.828 225.811C159.67 225.663 159.434 225.59 159.12 225.59H158.046V227.209Z" fill="#B3B3B3"/>
<path d="M151.896 230.583H150.761L152.827 224.713H154.14L156.209 230.583H155.074L153.506 225.917H153.461L151.896 230.583ZM151.933 228.281H155.028V229.135H151.933V228.281Z" fill="#B3B3B3"/>
<path d="M103.476 120.459H108.734C110.217 120.459 111.41 119.329 111.41 117.926V111.613C111.41 110.21 110.217 109.08 108.734 109.08H103.476V120.459Z" fill="#42DCFF"/>
<path d="M103.479 109.082H98.2202C96.7378 109.082 95.5444 110.212 95.5444 111.615V117.928C95.5444 119.331 96.7378 120.461 98.2202 120.461H103.479V109.082Z" fill="#4AF3FF"/>
<path d="M62.916 120.459H68.1748C69.6572 120.459 70.8506 119.329 70.8506 117.926V111.613C70.8506 110.21 69.6572 109.08 68.1748 109.08H62.916V120.459Z" fill="#42DCFF"/>
<path d="M62.9194 109.082H57.6606C56.1783 109.082 54.9849 110.212 54.9849 111.615V117.928C54.9849 119.331 56.1783 120.461 57.6606 120.461H62.9194V109.082Z" fill="#4AF3FF"/>
<path d="M83.098 112.089L49.3652 111.738C49.3652 111.738 46.8111 111.606 41.8789 107.83C36.9467 104.054 37.2957 96.4174 37.2957 96.4174V19.1676C37.2957 19.1676 36.198 1.12926 63.3251 7.80355C63.3251 7.80355 69.9748 0.338893 73.1455 0.492575H83.076L83.098 112.089Z" fill="#42DCFF"/>
<path d="M82.9575 112.089L116.69 111.738C116.69 111.738 119.244 111.606 124.177 107.83C129.109 104.054 128.76 96.4174 128.76 96.4174V19.1676C128.76 19.1676 129.857 1.12926 102.73 7.80355C102.73 7.80355 96.0807 0.338893 92.91 0.492575H82.9795L82.9575 112.089Z" fill="#42DCFF"/>
<path d="M80.7014 112.039L48.7274 111.687C48.7274 111.687 46.3063 111.556 41.6313 107.779C36.9562 104.003 37.2871 96.3666 37.2871 96.3666V19.1168C37.2871 19.1168 36.2466 1.07848 61.9594 7.75277C61.9594 7.75277 68.2624 0.288112 71.2678 0.441794H80.6805L80.7014 112.039Z" fill="#4AF3FF"/>
<path d="M80.5684 112.039L112.542 111.687C112.542 111.687 114.963 111.556 119.638 107.779C124.314 104.003 123.983 96.3666 123.983 96.3666V19.1168C123.983 19.1168 125.023 1.07848 99.3103 7.75277C99.3103 7.75277 93.0073 0.288112 90.002 0.441794H80.5892L80.5684 112.039Z" fill="#4AF3FF"/>
<path d="M58.7818 104.201L58.7818 111.901H66.9162L66.9162 104.201L75.8379 104.201C76.7615 104.201 78.3776 103.923 78.9793 104.777C79.7537 105.875 79.2491 108.387 79.2491 109.666V122.085C79.2491 123.386 78.7749 125.704 79.8573 126.697C80.9319 127.683 83.3819 127.372 84.7595 127.291C87.8215 127.109 87.1211 123.929 87.1211 121.837V109.666C87.1211 108.387 86.6165 105.875 87.3909 104.777C87.9925 103.923 89.6087 104.201 90.5323 104.201H99.454V111.901H107.588V104.201C112.231 104.201 118.269 105.343 121.71 101.713C125.279 97.9483 123.857 90.7377 123.857 86.0685L123.857 46.0775C123.857 40.6012 124.908 34.0022 123.396 28.6901C122.562 25.7563 119.769 23.3856 116.51 23.2354C98.8478 22.4215 80.9282 23.2255 63.2426 23.2255C57.5863 23.2255 48.1267 21.3861 44.2269 26.2064C40.8777 30.3464 42.5129 38.6717 42.5129 43.5936V84.0814C42.5129 88.8696 41.031 96.5104 43.8598 100.724C47.0202 105.43 53.7642 104.201 58.7818 104.201ZM82.9227 47.3194H83.4475C84.5291 45.1423 87.4087 43.8271 89.7451 43.1477C98.1973 40.6906 106.261 46.2446 107.476 54.2744C108.994 64.3012 99.2186 73.7858 91.8443 79.505C89.8976 81.0147 85.8354 84.9562 83.1851 84.9378C81.0211 84.9227 77.7243 81.8781 76.1003 80.6533C69.9816 76.0385 63.8687 70.6588 60.7306 63.7133C58.1373 57.9732 57.8161 50.7587 63.0038 46.1493C67.7659 41.9184 79.5338 40.4974 82.9227 47.3194Z" fill="#B91C1C"/>
<path d="M111.95 23.1583C111.95 23.1583 117.862 28.4834 117.204 36.2611V90.9955C117.204 90.9955 118.074 99.4414 113.556 104.276C113.556 104.276 126.144 106.561 123.869 88.7537V35.2494C123.869 35.2494 126.316 21.7022 111.95 23.1583Z" fill="#A80202"/>
<path d="M94.4595 42.5977C94.4595 42.5977 114.794 58.8332 83.5269 85.1178C83.5269 85.1178 85.1923 84.4088 86.7154 83.5955C86.7154 83.5955 94.5651 77.6436 98.8219 73.3922C98.8219 73.3922 103.782 68.6233 106.164 63.078C106.164 63.078 109.728 56.5105 106.369 50.2628C106.369 50.2628 103.18 43.0044 94.4595 42.5977Z" fill="#42DCFF"/>
<path d="M90.8651 7.30078H73.8525C72.2865 7.30078 71.0171 8.50247 71.0171 9.98482C71.0171 11.4672 72.2865 12.6689 73.8525 12.6689H90.8651C92.431 12.6689 93.7005 11.4672 93.7005 9.98482C93.7005 8.50247 92.431 7.30078 90.8651 7.30078Z" fill="#AFFCFF"/>
<path d="M89.9889 66.7101V60.4512H91.2635V66.7101H89.9889ZM87.8174 64.2907V62.8706H93.435V64.2907H87.8174Z" fill="#B91C1C"/>
<path d="M80.0898 68.1935V58.9316H83.2721C83.8728 58.9316 84.3721 59.0372 84.7698 59.2482C85.1703 59.4562 85.4693 59.7411 85.6669 60.1029C85.8671 60.4647 85.9672 60.8748 85.9672 61.333C85.9672 61.7099 85.9023 62.0325 85.7724 62.3008C85.6425 62.5661 85.468 62.7817 85.2488 62.9475C85.0296 63.1133 84.7847 63.2324 84.5141 63.3048V63.3952C84.8091 63.4133 85.0919 63.5143 85.3625 63.6982C85.6358 63.8791 85.859 64.1354 86.0322 64.467C86.2054 64.7987 86.292 65.1997 86.292 65.67C86.292 66.1494 86.1878 66.5805 85.9794 66.9634C85.7711 67.3433 85.4572 67.6432 85.0377 67.8633C84.6183 68.0834 84.0906 68.1935 83.4547 68.1935H80.0898ZM81.5957 66.7915H83.2153C83.7619 66.7915 84.1556 66.6755 84.3964 66.4433C84.64 66.2081 84.7617 65.9066 84.7617 65.5388C84.7617 65.2645 84.7008 65.0172 84.5791 64.7972C84.4573 64.5741 84.2841 64.3992 84.0595 64.2726C83.8349 64.1429 83.567 64.0781 83.2558 64.0781H81.5957V66.7915ZM81.5957 62.8706H83.0854C83.3451 62.8706 83.5792 62.8179 83.7876 62.7123C83.9959 62.6038 84.1596 62.4516 84.2787 62.2556C84.4005 62.0566 84.4614 61.8214 84.4614 61.5501C84.4614 61.1913 84.3477 60.8959 84.1204 60.6637C83.8958 60.4316 83.5616 60.3155 83.1178 60.3155H81.5957V62.8706Z" fill="#B91C1C"/>
<path d="M72.8862 68.1935H71.2788L74.2053 58.9316H76.0643L78.9949 68.1935H77.3876L75.1673 60.831H75.1024L72.8862 68.1935ZM72.9389 64.562H77.3226V65.9097H72.9389V64.562Z" fill="#B91C1C"/>
<path d="M81.7615 116.791C81.7615 116.791 96.2558 207.625 30.876 227.747" stroke="#B91C1C" stroke-width="2"/>
<path d="M31.7362 225.627L30.5542 228.002L33.0415 229.103" stroke="#B91C1C" stroke-width="2"/>
</svg>
