<svg width="165" height="237" viewBox="0 0 165 237" fill="none" xmlns="http://www.w3.org/2000/svg">
<path d="M144.751 145.389C146.286 145.389 147.53 144.249 147.53 142.842C147.53 141.435 146.286 140.295 144.751 140.295C143.216 140.295 141.972 141.435 141.972 142.842C141.972 144.249 143.216 145.389 144.751 145.389Z" fill="#B3B3B3"/>
<path d="M146.797 146.152H142.707C141.969 146.152 141.37 146.701 141.37 147.377V154.198C141.37 154.874 141.969 155.422 142.707 155.422H146.797C147.535 155.422 148.133 154.874 148.133 154.198V147.377C148.133 146.701 147.535 146.152 146.797 146.152Z" fill="#B3B3B3"/>
<path d="M145.857 152.748H143.646C143.067 152.748 142.598 153.178 142.598 153.708V159.522C142.598 160.052 143.067 160.482 143.646 160.482H145.857C146.435 160.482 146.904 160.052 146.904 159.522V153.708C146.904 153.178 146.435 152.748 145.857 152.748Z" fill="#B3B3B3"/>
<path d="M21.4815 145.389C23.0165 145.389 24.2609 144.249 24.2609 142.842C24.2609 141.435 23.0165 140.295 21.4815 140.295C19.9465 140.295 18.7021 141.435 18.7021 142.842C18.7021 144.249 19.9465 145.389 21.4815 145.389Z" fill="#B3B3B3"/>
<path d="M23.5265 146.152H19.4366C18.6985 146.152 18.1001 146.701 18.1001 147.377V154.198C18.1001 154.874 18.6985 155.422 19.4366 155.422H23.5265C24.2647 155.422 24.8631 154.874 24.8631 154.198V147.377C24.8631 146.701 24.2647 146.152 23.5265 146.152Z" fill="#B3B3B3"/>
<path d="M22.5874 152.748H20.3761C19.7976 152.748 19.3286 153.178 19.3286 153.708V159.522C19.3286 160.052 19.7976 160.482 20.3761 160.482H22.5874C23.166 160.482 23.6349 160.052 23.6349 159.522V153.708C23.6349 153.178 23.166 152.748 22.5874 152.748Z" fill="#B3B3B3"/>
<path d="M81.8517 116.561C81.8517 116.561 90.0212 196.273 30.9155 201.834" stroke="#B3B3B3" stroke-width="2"/>
<path d="M32.1611 199.596L30.5552 201.825L32.7986 203.382" stroke="#B3B3B3" stroke-width="2"/>
<path d="M81.9017 126.771C81.9017 126.771 82.5212 151.25 30.8745 150.341" stroke="#B3B3B3" stroke-width="2"/>
<path d="M32.4472 148.168L30.624 150.335L32.4472 152.252" stroke="#B3B3B3" stroke-width="2"/>
<path d="M144.752 170.786C146.287 170.786 147.531 169.645 147.531 168.238C147.531 166.832 146.287 165.691 144.752 165.691C143.217 165.691 141.972 166.832 141.972 168.238C141.972 169.645 143.217 170.786 144.752 170.786Z" fill="#B91C1C"/>
<path d="M146.797 171.549H142.707C141.969 171.549 141.37 172.097 141.37 172.774V179.594C141.37 180.271 141.969 180.819 142.707 180.819H146.797C147.535 180.819 148.133 180.271 148.133 179.594V172.774C148.133 172.097 147.535 171.549 146.797 171.549Z" fill="#B91C1C"/>
<path d="M145.857 178.145H143.646C143.067 178.145 142.598 178.574 142.598 179.104V184.918C142.598 185.449 143.067 185.878 143.646 185.878H145.857C146.435 185.878 146.904 185.449 146.904 184.918V179.104C146.904 178.574 146.435 178.145 145.857 178.145Z" fill="#B91C1C"/>
<path d="M21.4815 170.786C23.0165 170.786 24.2609 169.645 24.2609 168.238C24.2609 166.832 23.0165 165.691 21.4815 165.691C19.9465 165.691 18.7021 166.832 18.7021 168.238C18.7021 169.645 19.9465 170.786 21.4815 170.786Z" fill="#B91C1C"/>
<path d="M23.5265 171.549H19.4366C18.6985 171.549 18.1001 172.097 18.1001 172.774V179.594C18.1001 180.271 18.6985 180.819 19.4366 180.819H23.5265C24.2647 180.819 24.8631 180.271 24.8631 179.594V172.774C24.8631 172.097 24.2647 171.549 23.5265 171.549Z" fill="#B91C1C"/>
<path d="M22.5869 178.145H20.3756C19.7971 178.145 19.3281 178.574 19.3281 179.104V184.918C19.3281 185.449 19.7971 185.878 20.3756 185.878H22.5869C23.1655 185.878 23.6345 185.449 23.6345 184.918V179.104C23.6345 178.574 23.1655 178.145 22.5869 178.145Z" fill="#B91C1C"/>
<path d="M144.751 196.184C146.286 196.184 147.53 195.044 147.53 193.637C147.53 192.23 146.286 191.09 144.751 191.09C143.216 191.09 141.972 192.23 141.972 193.637C141.972 195.044 143.216 196.184 144.751 196.184Z" fill="#B3B3B3"/>
<path d="M146.797 196.947H142.707C141.969 196.947 141.37 197.496 141.37 198.172V204.992C141.37 205.669 141.969 206.217 142.707 206.217H146.797C147.535 206.217 148.133 205.669 148.133 204.992V198.172C148.133 197.496 147.535 196.947 146.797 196.947Z" fill="#B3B3B3"/>
<path d="M145.857 203.543H143.646C143.067 203.543 142.598 203.973 142.598 204.503V210.317C142.598 210.847 143.067 211.277 143.646 211.277H145.857C146.435 211.277 146.904 210.847 146.904 210.317V204.503C146.904 203.973 146.435 203.543 145.857 203.543Z" fill="#B3B3B3"/>
<path d="M21.4815 196.184C23.0165 196.184 24.2609 195.044 24.2609 193.637C24.2609 192.23 23.0165 191.09 21.4815 191.09C19.9465 191.09 18.7021 192.23 18.7021 193.637C18.7021 195.044 19.9465 196.184 21.4815 196.184Z" fill="#B3B3B3"/>
<path d="M23.5265 196.947H19.4366C18.6985 196.947 18.1001 197.496 18.1001 198.172V204.992C18.1001 205.669 18.6985 206.217 19.4366 206.217H23.5265C24.2647 206.217 24.8631 205.669 24.8631 204.992V198.172C24.8631 197.496 24.2647 196.947 23.5265 196.947Z" fill="#B3B3B3"/>
<path d="M22.5879 203.543H20.3766C19.7981 203.543 19.3291 203.973 19.3291 204.503V210.317C19.3291 210.847 19.7981 211.277 20.3766 211.277H22.5879C23.1664 211.277 23.6354 210.847 23.6354 210.317V204.503C23.6354 203.973 23.1664 203.543 22.5879 203.543Z" fill="#B3B3B3"/>
<path d="M144.752 221.584C146.287 221.584 147.531 220.444 147.531 219.037C147.531 217.631 146.287 216.49 144.752 216.49C143.217 216.49 141.972 217.631 141.972 219.037C141.972 220.444 143.217 221.584 144.752 221.584Z" fill="#B91C1C"/>
<path d="M146.797 222.348H142.707C141.969 222.348 141.37 222.896 141.37 223.572V230.393C141.37 231.069 141.969 231.618 142.707 231.618H146.797C147.535 231.618 148.133 231.069 148.133 230.393V223.572C148.133 222.896 147.535 222.348 146.797 222.348Z" fill="#B91C1C"/>
<path d="M145.857 228.943H143.646C143.067 228.943 142.598 229.373 142.598 229.903V235.717C142.598 236.247 143.067 236.677 143.646 236.677H145.857C146.435 236.677 146.904 236.247 146.904 235.717V229.903C146.904 229.373 146.435 228.943 145.857 228.943Z" fill="#B91C1C"/>
<path d="M21.4815 221.584C23.0165 221.584 24.2609 220.444 24.2609 219.037C24.2609 217.631 23.0165 216.49 21.4815 216.49C19.9465 216.49 18.7021 217.631 18.7021 219.037C18.7021 220.444 19.9465 221.584 21.4815 221.584Z" fill="#B91C1C"/>
<path d="M23.5265 222.348H19.4366C18.6985 222.348 18.1001 222.896 18.1001 223.572V230.393C18.1001 231.069 18.6985 231.618 19.4366 231.618H23.5265C24.2647 231.618 24.8631 231.069 24.8631 230.393V223.572C24.8631 222.896 24.2647 222.348 23.5265 222.348Z" fill="#B91C1C"/>
<path d="M22.5874 228.943H20.3761C19.7976 228.943 19.3286 229.373 19.3286 229.903V235.717C19.3286 236.247 19.7976 236.677 20.3761 236.677H22.5874C23.166 236.677 23.6349 236.247 23.6349 235.717V229.903C23.6349 229.373 23.166 228.943 22.5874 228.943Z" fill="#B91C1C"/>
<path d="M84.8148 116.561C84.8148 116.561 76.6454 196.273 135.751 201.834" stroke="#B3B3B3" stroke-width="2"/>
<path d="M134.506 199.596L136.112 201.825L133.868 203.382" stroke="#B3B3B3" stroke-width="2"/>
<path d="M84.7648 126.771C84.7648 126.771 84.1453 151.25 135.792 150.341" stroke="#B3B3B3" stroke-width="2"/>
<path d="M134.03 148.404L136.042 150.331L134.03 152.249" stroke="#B3B3B3" stroke-width="2"/>
<path d="M13.2579 153.013V149.047H14.1579V153.013H13.2579ZM11.7246 151.48V150.58H15.6912V151.48H11.7246Z" fill="#B3B3B3"/>
<path d="M10.5672 151.019C10.5672 151.651 10.4488 152.193 10.2119 152.644C9.97684 153.093 9.65584 153.437 9.24886 153.676C8.84379 153.915 8.38427 154.034 7.87029 154.034C7.35631 154.034 6.89583 153.915 6.48886 153.676C6.08379 153.435 5.76279 153.09 5.52586 152.641C5.29085 152.19 5.17334 151.65 5.17334 151.019C5.17334 150.387 5.29085 149.846 5.52586 149.397C5.76279 148.946 6.08379 148.601 6.48886 148.362C6.89583 148.123 7.35631 148.004 7.87029 148.004C8.38427 148.004 8.84379 148.123 9.24886 148.362C9.65584 148.601 9.97684 148.946 10.2119 149.397C10.4488 149.846 10.5672 150.387 10.5672 151.019ZM9.49821 151.019C9.49821 150.574 9.42847 150.198 9.28898 149.893C9.15141 149.585 8.96034 149.353 8.71578 149.196C8.47121 149.038 8.18938 148.958 7.87029 148.958C7.5512 148.958 7.26938 149.038 7.02481 149.196C6.78024 149.353 6.58821 149.585 6.44873 149.893C6.31116 150.198 6.24238 150.574 6.24238 151.019C6.24238 151.464 6.31116 151.841 6.44873 152.148C6.58821 152.454 6.78024 152.686 7.02481 152.845C7.26938 153.001 7.5512 153.08 7.87029 153.08C8.18938 153.08 8.47121 153.001 8.71578 152.845C8.96034 152.686 9.15141 152.454 9.28898 152.148C9.42847 151.841 9.49821 151.464 9.49821 151.019Z" fill="#B3B3B3"/>
<path d="M160.151 150.592V151.446H157.508V150.592H160.151Z" fill="#B3B3B3"/>
<path d="M156.523 151.019C156.523 151.651 156.404 152.193 156.167 152.644C155.932 153.093 155.611 153.437 155.204 153.676C154.799 153.915 154.34 154.034 153.826 154.034C153.312 154.034 152.851 153.915 152.444 153.676C152.039 153.435 151.718 153.09 151.481 152.641C151.246 152.19 151.129 151.65 151.129 151.019C151.129 150.387 151.246 149.846 151.481 149.397C151.718 148.946 152.039 148.601 152.444 148.362C152.851 148.123 153.312 148.004 153.826 148.004C154.34 148.004 154.799 148.123 155.204 148.362C155.611 148.601 155.932 148.946 156.167 149.397C156.404 149.846 156.523 150.387 156.523 151.019ZM155.454 151.019C155.454 150.574 155.384 150.198 155.245 149.893C155.107 149.585 154.916 149.353 154.671 149.196C154.427 149.038 154.145 148.958 153.826 148.958C153.507 148.958 153.225 149.038 152.98 149.196C152.736 149.353 152.544 149.585 152.404 149.893C152.267 150.198 152.198 150.574 152.198 151.019C152.198 151.464 152.267 151.841 152.404 152.148C152.544 152.454 152.736 152.686 152.98 152.845C153.225 153.001 153.507 153.08 153.826 153.08C154.145 153.08 154.427 153.001 154.671 152.845C154.916 152.686 155.107 152.454 155.245 152.148C155.384 151.841 155.454 151.464 155.454 151.019Z" fill="#B3B3B3"/>
<path d="M13.0524 178.48V174.514H13.9523V178.48H13.0524ZM11.519 176.947V176.047H15.4857V176.947H11.519Z" fill="#B91C1C"/>
<path d="M6.28046 179.42H5.14551L7.21193 173.551H8.52458L10.5939 179.42H9.45891L7.89118 174.755H7.84533L6.28046 179.42ZM6.31772 177.119H9.41305V177.973H6.31772V177.119Z" fill="#B91C1C"/>
<path d="M159.945 176.059V176.913H157.303V176.059H159.945Z" fill="#B91C1C"/>
<path d="M152.237 179.42H151.102L153.168 173.551H154.481L156.55 179.42H155.415L153.847 174.755H153.801L152.237 179.42ZM152.274 177.119H155.369V177.973H152.274V177.119Z" fill="#B91C1C"/>
<path d="M12.7848 203.949V199.982H13.6847V203.949H12.7848ZM11.2515 202.416V201.516H15.2181V202.416H11.2515Z" fill="#B3B3B3"/>
<path d="M5.79492 204.889V199.02H8.0419C8.46608 199.02 8.8186 199.086 9.09948 199.22C9.38226 199.352 9.59339 199.533 9.73287 199.762C9.87426 199.991 9.94496 200.251 9.94496 200.541C9.94496 200.78 9.8991 200.985 9.80739 201.155C9.71568 201.323 9.59244 201.459 9.43767 201.565C9.2829 201.67 9.10998 201.745 8.91892 201.791V201.848C9.12718 201.86 9.32685 201.924 9.51792 202.04C9.7109 202.155 9.86853 202.317 9.99082 202.528C10.1131 202.738 10.1742 202.992 10.1742 203.29C10.1742 203.594 10.1007 203.867 9.95356 204.11C9.80643 204.35 9.58479 204.54 9.28864 204.68C8.99248 204.819 8.61989 204.889 8.17088 204.889H5.79492ZM6.85823 204.001H8.00178C8.38774 204.001 8.66575 203.927 8.8358 203.78C9.00776 203.631 9.09374 203.44 9.09374 203.207C9.09374 203.033 9.05075 202.876 8.96477 202.737C8.87879 202.595 8.75651 202.485 8.59792 202.404C8.43933 202.322 8.25017 202.281 8.03044 202.281H6.85823V204.001ZM6.85823 201.516H7.91007C8.09349 201.516 8.25877 201.482 8.40589 201.416C8.55302 201.347 8.66861 201.25 8.75268 201.126C8.83867 201 8.88166 200.851 8.88166 200.679C8.88166 200.452 8.80141 200.264 8.64091 200.117C8.48232 199.97 8.24635 199.897 7.93299 199.897H6.85823V201.516Z" fill="#B3B3B3"/>
<path d="M159.678 201.527V202.381H157.035V201.527H159.678Z" fill="#B3B3B3"/>
<path d="M151.751 204.889V199.02H153.998C154.422 199.02 154.775 199.086 155.056 199.22C155.338 199.352 155.549 199.533 155.689 199.762C155.83 199.991 155.901 200.251 155.901 200.541C155.901 200.78 155.855 200.985 155.763 201.155C155.672 201.323 155.548 201.459 155.394 201.565C155.239 201.67 155.066 201.745 154.875 201.791V201.848C155.083 201.86 155.283 201.924 155.474 202.04C155.667 202.155 155.825 202.317 155.947 202.528C156.069 202.738 156.13 202.992 156.13 203.29C156.13 203.594 156.057 203.867 155.91 204.11C155.762 204.35 155.541 204.54 155.245 204.68C154.949 204.819 154.576 204.889 154.127 204.889H151.751ZM152.814 204.001H153.958C154.344 204.001 154.622 203.927 154.792 203.78C154.964 203.631 155.05 203.44 155.05 203.207C155.05 203.033 155.007 202.876 154.921 202.737C154.835 202.595 154.713 202.485 154.554 202.404C154.395 202.322 154.206 202.281 153.986 202.281H152.814V204.001ZM152.814 201.516H153.866C154.05 201.516 154.215 201.482 154.362 201.416C154.509 201.347 154.625 201.25 154.709 201.126C154.795 201 154.838 200.851 154.838 200.679C154.838 200.452 154.757 200.264 154.597 200.117C154.438 199.97 154.202 199.897 153.889 199.897H152.814V201.516Z" fill="#B3B3B3"/>
<path d="M13.3014 229.326V225.359H14.2013V229.326H13.3014ZM11.7681 227.793V226.893H15.7347V227.793H11.7681Z" fill="#B91C1C"/>
<path d="M6.3125 230.266V224.396H8.55948C8.98366 224.396 9.33618 224.463 9.61705 224.597C9.89984 224.729 10.111 224.91 10.2505 225.139C10.3918 225.368 10.4625 225.628 10.4625 225.918C10.4625 226.157 10.4167 226.362 10.325 226.532C10.2333 226.7 10.11 226.836 9.95525 226.942C9.80048 227.047 9.62756 227.122 9.43649 227.168V227.225C9.64476 227.237 9.84443 227.301 10.0355 227.417C10.2285 227.532 10.3861 227.694 10.5084 227.905C10.6307 228.115 10.6918 228.369 10.6918 228.667C10.6918 228.971 10.6183 229.244 10.4711 229.487C10.324 229.727 10.1024 229.917 9.80621 230.057C9.51005 230.196 9.13747 230.266 8.68845 230.266H6.3125ZM7.3758 229.378H8.51936C8.90532 229.378 9.18332 229.304 9.35338 229.157C9.52534 229.008 9.61132 228.817 9.61132 228.584C9.61132 228.41 9.56833 228.253 9.48235 228.114C9.39637 227.972 9.27408 227.862 9.1155 227.781C8.95691 227.699 8.76775 227.658 8.54802 227.658H7.3758V229.378ZM7.3758 226.893H8.42764C8.61107 226.893 8.77635 226.859 8.92347 226.793C9.07059 226.724 9.18619 226.627 9.27026 226.503C9.35624 226.377 9.39923 226.228 9.39923 226.056C9.39923 225.829 9.31898 225.641 9.15849 225.494C8.9999 225.347 8.76393 225.273 8.45057 225.273H7.3758V226.893Z" fill="#B91C1C"/>
<path d="M1.22578 230.266H0.0908203L2.15724 224.396H3.46989L5.53918 230.266H4.40422L2.83649 225.6H2.79064L1.22578 230.266ZM1.26303 227.965H4.35837V228.819H1.26303V227.965Z" fill="#B91C1C"/>
<path d="M165 226.904V227.758H162.358V226.904H165Z" fill="#B91C1C"/>
<path d="M157.074 230.266V224.396H159.321C159.745 224.396 160.097 224.463 160.378 224.597C160.661 224.729 160.872 224.91 161.012 225.139C161.153 225.368 161.224 225.628 161.224 225.918C161.224 226.157 161.178 226.362 161.086 226.532C160.994 226.7 160.871 226.836 160.716 226.942C160.562 227.047 160.389 227.122 160.198 227.168V227.225C160.406 227.237 160.606 227.301 160.797 227.417C160.99 227.532 161.147 227.694 161.27 227.905C161.392 228.115 161.453 228.369 161.453 228.667C161.453 228.971 161.379 229.244 161.232 229.487C161.085 229.727 160.864 229.917 160.567 230.057C160.271 230.196 159.899 230.266 159.45 230.266H157.074ZM158.137 229.378H159.281C159.667 229.378 159.945 229.304 160.115 229.157C160.287 229.008 160.373 228.817 160.373 228.584C160.373 228.41 160.33 228.253 160.244 228.114C160.158 227.972 160.035 227.862 159.877 227.781C159.718 227.699 159.529 227.658 159.309 227.658H158.137V229.378ZM158.137 226.893H159.189C159.372 226.893 159.538 226.859 159.685 226.793C159.832 226.724 159.947 226.627 160.031 226.503C160.117 226.377 160.16 226.228 160.16 226.056C160.16 225.829 160.08 225.641 159.92 225.494C159.761 225.347 159.525 225.273 159.212 225.273H158.137V226.893Z" fill="#B91C1C"/>
<path d="M151.987 230.266H150.852L152.918 224.396H154.231L156.3 230.266H155.165L153.598 225.6H153.552L151.987 230.266ZM152.024 227.965H155.12V228.819H152.024V227.965Z" fill="#B91C1C"/>
<path d="M103.565 120.137H108.824C110.307 120.137 111.5 119.007 111.5 117.604V111.291C111.5 109.887 110.307 108.758 108.824 108.758H103.565V120.137Z" fill="#42DCFF"/>
<path d="M103.569 108.76H98.3105C96.8282 108.76 95.6348 109.889 95.6348 111.293V117.606C95.6348 119.009 96.8282 120.139 98.3105 120.139H103.569V108.76Z" fill="#4AF3FF"/>
<path d="M63.0063 120.137H68.2651C69.7475 120.137 70.9409 119.007 70.9409 117.604V111.291C70.9409 109.887 69.7475 108.758 68.2651 108.758H63.0063V120.137Z" fill="#42DCFF"/>
<path d="M63.0102 108.76H57.7515C56.2691 108.76 55.0757 109.889 55.0757 111.293V117.606C55.0757 119.009 56.2691 120.139 57.7515 120.139H63.0102V108.76Z" fill="#4AF3FF"/>
<path d="M83.1883 111.761L49.4556 111.41C49.4556 111.41 46.9014 111.278 41.9692 107.502C37.037 103.726 37.386 96.0892 37.386 96.0892V18.8395C37.386 18.8395 36.2884 0.801136 63.4155 7.47543C63.4155 7.47543 70.0651 0.0107683 73.2358 0.16445H83.1663L83.1883 111.761Z" fill="#42DCFF"/>
<path d="M83.0474 111.761L116.78 111.41C116.78 111.41 119.334 111.278 124.266 107.502C129.199 103.726 128.85 96.0892 128.85 96.0892V18.8395C128.85 18.8395 129.947 0.801136 102.82 7.47543C102.82 7.47543 96.1705 0.0107683 92.9998 0.16445H83.0694L83.0474 111.761Z" fill="#42DCFF"/>
<path d="M80.7917 111.714L48.8177 111.363C48.8177 111.363 46.3967 111.231 41.7216 107.455C37.0466 103.679 37.3774 96.0424 37.3774 96.0424V18.7926C37.3774 18.7926 36.337 0.75426 62.0498 7.42855C62.0498 7.42855 68.3527 -0.0361067 71.3581 0.117575H80.7709L80.7917 111.714Z" fill="#4AF3FF"/>
<path d="M80.6577 111.714L112.632 111.363C112.632 111.363 115.053 111.231 119.728 107.455C124.403 103.679 124.072 96.0424 124.072 96.0424V18.7926C124.072 18.7926 125.112 0.754261 99.3997 7.42855C99.3997 7.42855 93.0967 -0.0361067 90.0913 0.117575H80.6786L80.6577 111.714Z" fill="#4AF3FF"/>
<path d="M58.8721 103.879L58.8721 111.579H67.0066L67.0065 103.879L75.9282 103.879C76.8518 103.879 78.468 103.601 79.0697 104.455C79.844 105.553 79.3394 108.065 79.3394 109.343V121.763C79.3394 123.063 78.8652 125.382 79.9477 126.375C81.0222 127.361 83.4722 127.05 84.8498 126.968C87.9118 126.787 87.2114 123.607 87.2114 121.515V109.343C87.2114 108.065 86.7069 105.553 87.4812 104.455C88.0829 103.601 89.699 103.879 90.6227 103.879H99.5443V111.579H107.679V103.879C112.321 103.879 118.36 105.02 121.8 101.391C125.369 97.626 123.948 90.4155 123.948 85.7462L123.948 45.7552C123.948 40.2789 124.998 33.6799 123.487 28.3678C122.652 25.434 119.859 23.0633 116.6 22.9131C98.9381 22.0993 81.0185 22.9032 63.3329 22.9032C57.6766 22.9032 48.2171 21.0638 44.3173 25.8841C40.968 30.0241 42.6032 38.3494 42.6032 43.2713V83.7591C42.6033 88.5473 41.1213 96.1881 43.9502 100.401C47.1105 105.108 53.8545 103.879 58.8721 103.879ZM83.013 46.9972H83.5378C84.6194 44.82 87.499 43.5048 89.8355 42.8254C98.2877 40.3683 106.351 45.9224 107.566 53.9521C109.084 63.9789 99.3089 73.4635 91.9347 79.1827C89.9879 80.6925 85.9257 84.6339 83.2754 84.6155C81.1114 84.6004 77.8146 81.5559 76.1906 80.331C70.0719 75.7162 63.959 70.3365 60.821 63.391C58.2277 57.6509 57.9065 50.4364 63.0941 45.827C67.8562 41.5961 79.6241 40.1751 83.013 46.9972Z" fill="#B91C1C"/>
<path d="M94.5504 42.2754C94.5504 42.2754 114.885 58.5109 83.6177 84.7955C83.6177 84.7955 85.2831 84.0865 86.8062 83.2732C86.8062 83.2732 94.6559 77.3213 98.9128 73.0699C98.9128 73.0699 103.873 68.301 106.255 62.7558C106.255 62.7558 109.819 56.1882 106.46 49.9405C106.46 49.9405 103.271 42.6821 94.5504 42.2754Z" fill="#42DCFF"/>
<path d="M90.9559 6.97852H73.9433C72.3774 6.97852 71.1079 8.1802 71.1079 9.66256C71.1079 11.1449 72.3774 12.3466 73.9433 12.3466H90.9559C92.5218 12.3466 93.7913 11.1449 93.7913 9.66256C93.7913 8.1802 92.5218 6.97852 90.9559 6.97852Z" fill="#AFFCFF"/>
<path d="M112.041 22.8341C112.041 22.8341 117.953 28.1592 117.295 35.9369V90.6713C117.295 90.6713 118.165 99.1172 113.647 103.952C113.647 103.952 126.234 106.237 123.96 88.4295V34.9252C123.96 34.9252 126.406 21.3779 112.041 22.8341Z" fill="#A80202"/>
<path d="M81.8523 116.455C81.8523 116.455 82.4808 172.958 30.8774 175.46" stroke="#B91C1C" stroke-width="2"/>
<path d="M32.6538 173.697L30.7603 175.505L32.773 177.164" stroke="#B91C1C" stroke-width="2"/>
<path d="M81.8523 116.475C81.8523 116.475 96.3466 207.309 30.9668 227.431" stroke="#B91C1C" stroke-width="2"/>
<path d="M31.827 225.312L30.645 227.687L33.1323 228.788" stroke="#B91C1C" stroke-width="2"/>
<path d="M84.8167 116.455C84.8167 116.455 84.1882 172.958 135.792 175.46" stroke="#B91C1C" stroke-width="2"/>
<path d="M134.015 173.697L135.909 175.505L133.896 177.164" stroke="#B91C1C" stroke-width="2"/>
<path d="M84.8166 116.475C84.8166 116.475 70.3223 207.309 135.702 227.431" stroke="#B91C1C" stroke-width="2"/>
<path d="M134.842 225.312L136.024 227.687L133.537 228.788" stroke="#B91C1C" stroke-width="2"/>
<path d="M91.4658 62.4785V64.1058H86.4312V62.4785H91.4658Z" fill="#B91C1C"/>
<path d="M76.7781 68.8844H74.6157L78.5528 57.7012H81.0537L84.9963 68.8844H82.8339L79.847 59.9946H79.7596L76.7781 68.8844ZM76.8491 64.4996H82.7465V66.1268H76.8491V64.4996Z" fill="#B91C1C"/>
</svg>
