<svg width="78" height="273" viewBox="0 0 78 273" fill="none" xmlns="http://www.w3.org/2000/svg">
<line x1="40" y1="185" x2="40" y2="273" stroke="white" stroke-width="2"/>
<line x1="40" y1="4.37114e-08" x2="40" y2="88" stroke="white" stroke-width="2"/>
<path d="M39 143.5L52 130.5" stroke="white" stroke-width="2" stroke-linecap="round" stroke-linejoin="round"/>
<path d="M10.855 159.749C8.00221 154.809 6.50022 149.204 6.5 143.499C6.49978 137.794 8.00135 132.19 10.8538 127.249C13.7062 122.308 17.8089 118.205 22.7496 115.352C27.6904 112.5 33.2949 110.998 39 110.998C44.7051 110.998 50.3097 112.5 55.2504 115.352C60.1911 118.205 64.2938 122.308 67.1462 127.249C69.9987 132.19 71.5002 137.794 71.5 143.499C71.4998 149.204 69.9978 154.809 67.145 159.749" stroke="white" stroke-width="2" stroke-linecap="round" stroke-linejoin="round"/>
</svg>
