<svg width="124" height="22" viewBox="0 0 124 22" fill="none" xmlns="http://www.w3.org/2000/svg">
<path d="M25.9834 20.8612C22.6905 22.9318 18.4199 21.8965 16.3618 18.6353C15.2813 16.8753 15.1784 15.0635 15.59 13.3035C15.59 13.2518 15.6415 13.2 15.6415 13.1482C16.8249 8.48941 21.61 3.83059 22.1759 0.103529C22.1759 0.0517647 22.2788 0 22.3303 0C22.3817 0 22.4332 0.0517647 22.4332 0.103529C22.8963 3.26118 27.5784 8.38588 28.9162 13.1482C28.9162 13.2 28.9676 13.2518 28.9676 13.3035C29.688 16.0988 29.2249 18.8424 25.9834 20.8612Z" fill="url(#paint0_linear_36_20)"/>
<path d="M24.0282 5.02118C26.961 10.4047 29.9452 16.6165 24.1826 20.6541C23.8739 20.8612 23.6166 21.0165 23.3079 21.1718C23.8739 21.0165 24.4398 20.7576 25.0058 20.3953C31.2315 16.4612 27.1668 10.1459 24.0282 5.02118Z" fill="white"/>
<path d="M28.9162 13.3035H24.7485L24.1826 15.9435C24.1826 15.9953 24.1311 15.9953 24.0797 15.9953C24.0282 15.9953 23.9768 15.9435 23.9768 15.8918L23.668 12.32L22.8448 19.9812C22.8448 20.0329 22.7934 20.0847 22.7419 20.0847C22.6905 20.0847 22.639 20.0329 22.639 19.9812L21.8672 7.24706L20.6324 16.3059C20.6324 16.3576 20.5809 16.4094 20.5295 16.4094C20.478 16.4094 20.5809 16.3059 20.5809 16.2541L20.0664 12.1647L19.7062 13.2C19.7062 13.2518 19.6548 13.2518 19.6033 13.2518H15.59C15.59 13.2 15.6415 13.1482 15.6415 13.0965H19.5519L20.0149 11.7506C20.0149 11.6988 20.0664 11.6988 20.1178 11.6988C20.1693 11.6988 20.1693 11.7506 20.2207 11.8024L20.7353 15.5812L21.9701 6.31529C21.9701 6.26353 22.0216 6.26353 22.073 6.21176C22.1245 6.21176 22.1759 6.26353 22.1759 6.31529L22.9477 18.8941L23.668 11.3365C23.668 11.2847 23.7195 11.2329 23.771 11.2329C23.8224 11.2329 23.8739 11.2847 23.8739 11.3365L24.1826 15.2706L24.6456 13.2C24.6456 13.1482 24.6971 13.1482 24.7485 13.1482H28.9676C28.9162 13.1482 28.9162 13.2 28.9162 13.3035Z" fill="#E2E2E2"/>
<path d="M0.617427 20.9129C0.463071 20.9129 0.308714 20.8612 0.205809 20.7059C0.0514523 20.6024 0 20.4471 0 20.2918V4.4C0 4.24471 0.0514523 4.08941 0.154357 3.98588C0.257261 3.88235 0.411618 3.83059 0.565975 3.83059H7.20332C9.31286 3.83059 10.9593 4.29647 12.1427 5.28C13.3261 6.26353 13.9436 7.60941 13.9436 9.36941C13.9436 10.5082 13.6863 11.4918 13.1203 12.32C12.5544 13.0965 11.834 13.7176 10.9593 14.1318L14.2523 20.1365C14.3037 20.24 14.3037 20.3435 14.3037 20.3953C14.3037 20.5506 14.2523 20.6541 14.1494 20.7576C14.0465 20.8612 13.9436 20.9129 13.7892 20.9129H10.5477C10.239 20.9129 10.0332 20.8612 9.87884 20.7059C9.72448 20.5506 9.62158 20.3953 9.57012 20.2918L6.7917 14.9082H4.37344V20.3435C4.37344 20.4988 4.32199 20.6541 4.16763 20.7576C4.06473 20.8612 3.91037 20.9647 3.70456 20.9647H0.617427V20.9129ZM4.37344 11.3882H7.15187C7.92365 11.3882 8.48963 11.1812 8.84979 10.8188C9.20996 10.4565 9.41577 9.93882 9.41577 9.31765C9.41577 8.69647 9.20996 8.17882 8.84979 7.76471C8.48963 7.35059 7.92365 7.19529 7.10041 7.19529H4.37344V11.3882Z" fill="white"/>
<path d="M31.7975 20.9129C31.6432 20.9129 31.4888 20.8612 31.3859 20.7059C31.283 20.6024 31.2315 20.4471 31.2315 20.2918V4.19294C31.2315 4.03765 31.283 3.88235 31.3859 3.77882C31.4373 3.62353 31.5917 3.57176 31.7975 3.57176H34.6274C34.7817 3.57176 34.9361 3.62353 35.039 3.72706C35.1419 3.83059 35.2448 3.98588 35.2448 4.14118V12.3718L38.6407 8.64471C38.7436 8.54118 38.8465 8.43765 38.9494 8.33412C39.0523 8.23059 39.2066 8.23059 39.4124 8.23059H42.6539C42.8083 8.23059 42.9112 8.28235 43.0141 8.38588C43.117 8.48941 43.1685 8.59294 43.1685 8.74824C43.1685 8.8 43.1685 8.90353 43.117 8.95529C43.117 9.05882 43.0656 9.11059 42.9627 9.16235L38.5892 13.8729L43.5801 19.9294C43.7344 20.0847 43.7859 20.1882 43.7859 20.2918C43.7859 20.4471 43.7344 20.6024 43.6315 20.7059C43.5286 20.8094 43.3743 20.8612 43.2199 20.8612H39.8755C39.6183 20.8612 39.4639 20.8094 39.361 20.7059C39.2581 20.6024 39.1552 20.4988 39.0523 20.4471L35.1934 15.7882V20.24C35.1934 20.3953 35.1419 20.5506 34.9876 20.6541C34.8846 20.7576 34.7303 20.8612 34.5759 20.8612H31.7975V20.9129Z" fill="white"/>
<path d="M51.8124 20.9129C50.7834 20.9129 49.8573 20.7576 49.1369 20.3953C48.3651 20.0847 47.7992 19.5153 47.3876 18.8424C46.9759 18.1176 46.7701 17.2376 46.7701 16.0988V11.3882H44.8664C44.712 11.3882 44.5577 11.3365 44.4033 11.2329C44.3004 11.1294 44.1975 10.9741 44.1975 10.8188V8.85177C44.1975 8.69647 44.249 8.54118 44.4033 8.43765C44.5062 8.33412 44.6606 8.28235 44.8664 8.28235H46.8216V4.19294C46.8216 4.03765 46.873 3.88235 47.0274 3.77882C47.1303 3.62353 47.2332 3.57176 47.3876 3.57176H50.2174C50.3718 3.57176 50.5261 3.62353 50.629 3.72706C50.7319 3.83059 50.7834 3.98588 50.7834 4.14118V8.23059H53.8191C53.9734 8.23059 54.1278 8.28235 54.2822 8.38588C54.3851 8.48941 54.488 8.64471 54.488 8.8V10.8188C54.488 10.9741 54.4365 11.1294 54.2822 11.2329C54.1792 11.3365 54.0249 11.3882 53.8191 11.3882H50.7834V15.7365C50.7834 16.3059 50.8863 16.72 51.0921 17.0306C51.2979 17.3412 51.6581 17.4965 52.1726 17.4965H54.0249C54.1793 17.4965 54.3336 17.5482 54.4365 17.6518C54.5394 17.7553 54.5909 17.9106 54.5909 18.0659V20.1882C54.5909 20.3435 54.5394 20.4988 54.4365 20.6024C54.3336 20.7059 54.1793 20.8094 54.0249 20.8094H51.8124V20.9129Z" fill="white"/>
<path d="M62.6689 21.1718C61.3311 21.1718 60.1477 20.9647 59.2216 20.4988C58.2954 20.0847 57.5751 19.4118 57.0606 18.5835C56.5461 17.7553 56.2888 16.7718 56.2373 15.6329C56.2373 15.3224 56.2373 14.96 56.2373 14.5459C56.2373 14.1318 56.2373 13.7694 56.2373 13.4588C56.2888 12.32 56.5975 11.3365 57.112 10.5082C57.6266 9.68 58.3469 9.05882 59.273 8.64471C60.1992 8.23059 61.3311 7.97177 62.6174 7.97177C63.9552 7.97177 65.0871 8.17882 66.0133 8.64471C66.9394 9.05882 67.6597 9.73176 68.1743 10.5082C68.6888 11.3365 69.049 13.4588 69.049 13.4588C69.049 13.7694 69.049 14.1318 69.049 14.5459C69.049 14.96 69.049 15.3224 69.049 15.6329C68.9975 16.7718 68.6888 17.7553 68.2257 18.5835C67.7112 19.4118 67.0423 20.0329 66.0647 20.4988C65.19 20.9129 64.0581 21.1718 62.6689 21.1718ZM62.6689 18.1694C63.3892 18.1694 63.9037 17.9624 64.2639 17.4965C64.5726 17.0824 64.7784 16.4094 64.8299 15.5294C64.8299 15.2706 64.8299 14.96 64.8299 14.5459C64.8299 14.1318 64.8299 13.8212 64.8299 13.5624C64.7784 12.6824 64.5726 12.0612 64.2639 11.5953C63.9552 11.1294 63.3892 10.9224 62.6689 10.9224C61.9485 10.9224 61.434 11.1294 61.1253 11.5953C60.7651 12.0612 60.6108 12.6824 60.5593 13.5624C60.5593 13.8212 60.5593 14.1318 60.5593 14.5459C60.5593 14.96 60.5593 15.2706 60.5593 15.5294C60.6108 16.4094 60.7651 17.0824 61.1253 17.4965C61.434 17.9624 62 18.1694 62.6689 18.1694Z" fill="white"/>
<path d="M76.2523 21.1718C75.4805 21.1718 74.7602 21.0682 74.1427 20.8094C73.5253 20.5506 73.0108 20.1882 72.5477 19.6706C72.0846 19.1529 71.7759 18.5835 71.5187 17.8588C71.2614 17.1341 71.1585 16.3576 71.1071 15.4259C71.1071 15.1153 71.1071 14.8047 71.1071 14.5459C71.1071 14.2871 71.1071 14.0282 71.1071 13.6659C71.1585 12.7859 71.2614 12.0094 71.5187 11.2847C71.7759 10.56 72.0846 9.99059 72.5477 9.47294C72.9593 8.95529 73.5253 8.59294 74.1427 8.33412C74.7602 8.07529 75.4805 7.92 76.2523 7.92C77.0755 7.92 77.7444 8.07529 78.3618 8.33412C78.9278 8.59294 79.4423 8.95529 79.8539 9.36941V4.19294C79.8539 4.03765 79.9054 3.88235 80.0083 3.77882C80.1112 3.67529 80.2656 3.62353 80.4199 3.62353H83.4042C83.5585 3.62353 83.7129 3.67529 83.8158 3.77882C83.9187 3.88235 84.0216 4.03765 84.0216 4.19294V20.2918C84.0216 20.4471 83.9701 20.6024 83.8158 20.7059C83.7129 20.8094 83.5585 20.9129 83.4042 20.9129H80.6772C80.5228 20.9129 80.3685 20.8612 80.2656 20.7059C80.1627 20.6024 80.1112 20.4471 80.1112 20.2918V19.5153C79.6996 19.9812 79.2365 20.3953 78.6191 20.7059C77.8988 21.0165 77.127 21.1718 76.2523 21.1718ZM77.59 17.8588C78.1046 17.8588 78.5676 17.7553 78.8764 17.4965C79.1851 17.2376 79.4423 16.9788 79.5967 16.5647C79.751 16.2024 79.8539 15.7882 79.8539 15.3224C79.8539 15.0118 79.8539 14.7012 79.8539 14.3906C79.8539 14.08 79.8539 13.8212 79.8539 13.5106C79.8539 13.0965 79.751 12.7341 79.5967 12.3718C79.4423 12.0094 79.1851 11.7506 78.8764 11.4918C78.5676 11.2847 78.156 11.1812 77.6415 11.1812C77.127 11.1812 76.6639 11.2847 76.3552 11.5435C76.0465 11.7506 75.7892 12.0612 75.6863 12.4753C75.532 12.8894 75.4805 13.3035 75.4291 13.7694C75.3776 14.2871 75.3776 14.8047 75.4291 15.2706C75.4805 15.7365 75.532 16.1506 75.6863 16.5647C75.8407 16.9788 76.0465 17.2894 76.3552 17.4965C76.6124 17.7553 77.0241 17.8588 77.59 17.8588Z" fill="white"/>
<path d="M90.6589 21.1718C89.7842 21.1718 89.0125 21.0165 88.2921 20.6541C87.6232 20.3435 87.0573 19.8776 86.6456 19.3082C86.234 18.7388 86.0282 18.1176 86.0282 17.3929C86.0282 16.2541 86.4913 15.3224 87.4174 14.6494C88.3436 13.9765 89.5784 13.5106 91.1734 13.2518L94.2091 12.7859V12.4235C94.2091 11.8541 94.1062 11.3882 93.849 11.0776C93.5917 10.7671 93.1801 10.6118 92.5112 10.6118C92.0481 10.6118 91.688 10.7153 91.4307 10.8706C91.122 11.0259 90.9162 11.2847 90.7618 11.5953C90.6075 11.8024 90.4017 11.9059 90.1444 11.9059H87.4174C87.2631 11.9059 87.1087 11.8541 87.0058 11.7506C86.9029 11.6471 86.8514 11.5435 86.9029 11.3882C86.9029 11.0776 87.0058 10.7671 87.2116 10.3529C87.4174 9.99059 87.7776 9.57647 88.2407 9.21412C88.7037 8.85176 89.2697 8.54118 89.99 8.28235C90.7104 8.02353 91.5851 7.92 92.5627 7.92C93.5917 7.92 94.4664 8.02353 95.2382 8.28235C95.9585 8.54118 96.5759 8.85176 97.039 9.31765C97.5021 9.73176 97.8622 10.2494 98.0681 10.8706C98.2739 11.44 98.3768 12.1129 98.3768 12.8376V20.24C98.3768 20.3953 98.3253 20.5506 98.171 20.6541C98.0681 20.7576 97.9137 20.8612 97.7593 20.8612H94.9295C94.7751 20.8612 94.6207 20.8094 94.5178 20.6541C94.4149 20.5506 94.3635 20.3953 94.3635 20.24V19.36C94.1577 19.6706 93.849 19.9294 93.4888 20.24C93.1286 20.4988 92.717 20.7059 92.2539 20.8612C91.8423 21.0682 91.2763 21.1718 90.6589 21.1718ZM91.7909 18.3765C92.2539 18.3765 92.6656 18.2729 93.0772 18.0659C93.4373 17.8588 93.7461 17.5482 93.9519 17.1341C94.1577 16.72 94.2606 16.1506 94.2606 15.5294V15.1671L92.2025 15.5294C91.4307 15.6847 90.8647 15.84 90.556 16.1506C90.1958 16.4094 90.0415 16.72 90.0415 17.0824C90.0415 17.3412 90.1444 17.6 90.2988 17.8071C90.4531 18.0141 90.6589 18.1694 90.9676 18.2729C91.1734 18.3247 91.4822 18.3765 91.7909 18.3765Z" fill="white"/>
<path d="M107.535 20.9129C106.506 20.9129 105.58 20.7576 104.86 20.3953C104.088 20.0847 103.522 19.5153 103.11 18.8424C102.699 18.1176 102.493 17.2376 102.493 16.0988V11.3882H100.589C100.435 11.3882 100.281 11.3365 100.126 11.2329C100.023 11.1294 99.9203 10.9741 99.9203 10.8188V8.85176C99.9203 8.69647 99.9718 8.54118 100.126 8.43765C100.229 8.33412 100.383 8.28235 100.589 8.28235H102.493V4.19294C102.493 4.03765 102.544 3.88235 102.699 3.77882C102.802 3.67529 102.956 3.62353 103.11 3.62353H105.94C106.095 3.62353 106.249 3.67529 106.352 3.77882C106.455 3.88235 106.506 4.03765 106.506 4.19294V8.23059H109.542C109.696 8.23059 109.851 8.28235 110.005 8.38588C110.108 8.48941 110.211 8.64471 110.211 8.8V10.8188C110.211 10.9741 110.159 11.1294 110.005 11.2329C109.902 11.3365 109.748 11.3882 109.542 11.3882H106.506V15.7365C106.506 16.3059 106.609 16.72 106.815 17.0306C107.021 17.3412 107.381 17.4965 107.895 17.4965H109.748C109.902 17.4965 110.056 17.5482 110.159 17.6518C110.262 17.7553 110.314 17.9106 110.314 18.0659V20.1882C110.314 20.3435 110.262 20.4988 110.159 20.6024C110.056 20.7059 109.902 20.8094 109.748 20.8094H107.535V20.9129Z" fill="white"/>
<path d="M116.179 21.1718C115.305 21.1718 114.533 21.0165 113.812 20.6541C113.144 20.3435 112.578 19.8776 112.166 19.3082C111.754 18.7388 111.549 18.1176 111.549 17.3929C111.549 16.2541 112.012 15.3224 112.938 14.6494C113.864 13.9765 115.099 13.5106 116.694 13.2518L119.729 12.7859V12.4235C119.729 11.8541 119.627 11.3882 119.369 11.0776C119.112 10.7671 118.7 10.6118 118.032 10.6118C117.568 10.6118 117.208 10.7153 116.951 10.8706C116.642 11.0259 116.282 11.5953 116.282 11.5953C116.282 11.5953 115.922 11.9059 115.665 11.9059H112.938C112.783 11.9059 112.629 11.8541 112.526 11.7506C112.423 11.6471 112.372 11.5435 112.423 11.3882C112.423 11.0776 112.526 10.7671 112.732 10.3529C112.938 9.99059 113.298 9.57647 113.761 9.21412C114.224 8.85176 114.79 8.54118 115.51 8.28235C116.231 8.02353 117.105 7.92 118.083 7.92C119.112 7.92 119.987 8.02353 120.758 8.28235C121.479 8.54118 122.096 8.85176 122.559 9.31765C123.022 9.73176 123.383 10.2494 123.588 10.8706C123.794 11.44 123.897 12.1129 123.897 12.8376V20.24C123.897 20.3953 123.846 20.5506 123.691 20.6541C123.588 20.7576 123.434 20.8612 123.28 20.8612H120.45C120.295 20.8612 120.141 20.8094 120.038 20.6541C119.935 20.5506 119.884 20.3953 119.884 20.24V19.36C119.678 19.6706 119.369 19.9294 119.009 20.24C118.649 20.4988 118.237 20.7059 117.774 20.8612C117.363 21.0682 116.848 21.1718 116.179 21.1718ZM117.363 18.3765C117.826 18.3765 118.237 18.2729 118.649 18.0659C119.009 17.8588 119.318 17.5482 119.524 17.1341C119.729 16.72 119.832 16.1506 119.832 15.5294V15.1671L117.774 15.5294C117.002 15.6847 116.437 15.84 116.128 16.1506C115.768 16.4094 115.613 16.72 115.613 17.0824C115.613 17.3412 115.716 17.6 115.871 17.8071C116.025 18.0141 116.231 18.1694 116.539 18.2729C116.745 18.3247 117.054 18.3765 117.363 18.3765Z" fill="white"/>
<defs>
<linearGradient id="paint0_linear_36_20" x1="110.492" y1="5.6981" x2="108.895" y2="26.1422" gradientUnits="userSpaceOnUse">
<stop stop-color="#FF5E58"/>
<stop offset="0.5448" stop-color="#EF150D"/>
<stop offset="0.6788" stop-color="#E11209"/>
<stop offset="0.8856" stop-color="#C30D00"/>
<stop offset="1" stop-color="#EF150D"/>
</linearGradient>
</defs>
</svg>
