<?xml version="1.0" encoding="utf-8"?>
<!-- Generator: Adobe Illustrator 23.0.5, SVG Export Plug-In . SVG Version: 6.00 Build 0)  -->
<svg version="1.1" id="Layer_1" xmlns="http://www.w3.org/2000/svg" xmlns:xlink="http://www.w3.org/1999/xlink" x="0px" y="0px"
	 viewBox="0 0 350 75" style="enable-background:new 0 0 350 75;" xml:space="preserve">
<style type="text/css">
	.st0{fill:url(#SVGID_1_);}
	.st1{opacity:0.2;}
	.st2{fill:#FFFFFF;}
	.st3{fill:#E2E2E2;}
	.st4{fill:#721010;}
</style>
<g>
	<g>
		<g>
			
				<linearGradient id="SVGID_1_" gradientUnits="userSpaceOnUse" x1="79.2325" y1="54.3485" x2="52.4572" y2="15.6732" gradientTransform="matrix(1 0 0 -1 0 77.2)">
				<stop  offset="0" style="stop-color:#FF5E58"/>
				<stop  offset="0.5448" style="stop-color:#EF150D"/>
				<stop  offset="0.6788" style="stop-color:#E11209"/>
				<stop  offset="0.8856" style="stop-color:#C30D00"/>
				<stop  offset="1" style="stop-color:#EF150D"/>
			</linearGradient>
			<path class="st0" d="M74.2,65C65,70.8,53,67.9,47.3,58.8c-3-4.9-3.3-9.9-2.2-14.8c0-0.1,0.1-0.3,0.1-0.4
				c3.3-13,16.7-25.9,18.3-36.3C63.6,7.1,63.8,7,64,7c0.1,0,0.3,0.1,0.3,0.3c1.3,8.8,14.4,23,18.1,36.3c0,0.1,0.1,0.3,0.1,0.4
				C84.6,51.8,83.3,59.3,74.2,65z"/>
			<g class="st1">
				<path class="st2" d="M68.7,21c8.2,15,16.6,32.4,0.4,43.5c-0.9,0.6-1.6,1-2.4,1.4c1.6-0.4,3.2-1.2,4.8-2.2
					C88.9,52.8,77.5,35.2,68.7,21z"/>
			</g>
		</g>
		<g>
			<path class="st3" d="M82.6,43.9H70.9l-1.6,7.3c0,0.1-0.1,0.1-0.3,0.1s-0.3-0.1-0.3-0.3l-0.9-9.9l-2.3,21.3c0,0.1-0.1,0.3-0.3,0.3
				S65,62.6,65,62.4L62.8,27l-3.5,25.2c0,0.1-0.1,0.3-0.3,0.3c-0.1,0-0.3-0.1-0.3-0.3l-1.6-11.4l-1,2.9c0,0.1-0.1,0.1-0.3,0.1H44.7
				c0-0.1,0.1-0.3,0.1-0.4h10.9l1.3-3.7c0-0.1,0.1-0.1,0.3-0.1c0.1,0,0.1,0.1,0.3,0.3l1.4,10.5l3.7-25.8c0-0.1,0.1-0.1,0.3-0.3
				c0.1,0,0.3,0.1,0.3,0.3l2.2,35l2.2-21c0-0.1,0.1-0.3,0.3-0.3l0,0c0.1,0,0.3,0.1,0.3,0.3l0.9,10.9l1.3-5.8c0-0.1,0.1-0.1,0.3-0.1
				h11.8C82.4,43.6,82.4,43.7,82.6,43.9z"/>
		</g>
	</g>
	<g>
		<g>
			<path class="st4" d="M3.2,65.2c-0.4,0-0.9-0.1-1.2-0.6c-0.3-0.3-0.4-0.7-0.4-1.2V19.2c0-0.4,0.1-0.9,0.4-1.2
				c0.3-0.3,0.7-0.4,1.2-0.4h18.4c5.9,0,10.5,1.3,13.8,4c3.3,2.7,5,6.5,5,11.4c0,3.2-0.7,5.9-2.3,8.2c-1.6,2.2-3.6,3.9-6,5L41.5,63
				c0.1,0.3,0.1,0.6,0.1,0.7c0,0.4-0.1,0.7-0.4,1c-0.3,0.3-0.6,0.4-1,0.4h-9.1c-0.9,0-1.4-0.1-1.9-0.6c-0.4-0.4-0.7-0.9-0.9-1.2
				l-7.8-15h-6.9v15c0,0.4-0.1,0.9-0.6,1.2c-0.3,0.3-0.7,0.6-1.3,0.6H3.2z M13.7,38.7h7.8c2.2,0,3.7-0.6,4.8-1.6
				c1-1,1.6-2.4,1.6-4.2c0-1.7-0.6-3.2-1.6-4.3c-1-1.2-2.6-1.6-4.9-1.6h-7.6V38.7z"/>
			<path class="st4" d="M90.5,65.2c-0.4,0-0.9-0.1-1.2-0.6c-0.3-0.3-0.4-0.7-0.4-1.2V18.5c0-0.4,0.1-0.9,0.4-1.2
				c0.3-0.3,0.7-0.4,1.2-0.4h7.9c0.4,0,0.9,0.1,1.2,0.4c0.3,0.3,0.6,0.7,0.6,1.2v22.7l9.5-10.4c0.3-0.3,0.6-0.6,0.9-0.9
				c0.3-0.3,0.7-0.3,1.3-0.3h9.1c0.4,0,0.7,0.1,1,0.4c0.3,0.3,0.4,0.6,0.4,1c0,0.1,0,0.4-0.1,0.6c0,0.3-0.1,0.4-0.4,0.6l-12.2,13.2
				l14,16.8c0.4,0.4,0.6,0.7,0.6,1c0,0.4-0.1,0.9-0.4,1.2c-0.3,0.3-0.7,0.4-1.2,0.4h-9.4c-0.7,0-1.2-0.1-1.4-0.4
				c-0.3-0.3-0.6-0.6-0.9-0.7l-10.8-13v12.5c0,0.4-0.1,0.9-0.6,1.2c-0.3,0.3-0.7,0.6-1.2,0.6H90.5z"/>
			<path class="st4" d="M146.5,65.2c-2.9,0-5.5-0.4-7.5-1.4c-2.2-0.9-3.7-2.4-4.9-4.3c-1.2-2-1.7-4.5-1.7-7.6V38.7h-5.3
				c-0.4,0-0.9-0.1-1.3-0.4c-0.3-0.3-0.6-0.7-0.6-1.2v-5.5c0-0.4,0.1-0.9,0.6-1.2c0.3-0.3,0.7-0.4,1.3-0.4h5.3V18.8
				c0-0.4,0.1-0.9,0.6-1.2c0.3-0.3,0.7-0.4,1.2-0.4h7.9c0.4,0,0.9,0.1,1.2,0.4c0.3,0.3,0.4,0.7,0.4,1.2V30h8.5
				c0.4,0,0.9,0.1,1.3,0.4c0.3,0.3,0.6,0.7,0.6,1.2v5.5c0,0.4-0.1,0.9-0.6,1.2c-0.3,0.3-0.7,0.4-1.3,0.4h-8.5v12.1
				c0,1.6,0.3,2.7,0.9,3.6c0.6,0.9,1.6,1.3,3,1.3h5.2c0.4,0,0.9,0.1,1.2,0.4c0.3,0.3,0.4,0.7,0.4,1.2v6.2c0,0.4-0.1,0.9-0.4,1.2
				c-0.3,0.3-0.7,0.6-1.2,0.6H146.5z"/>
			<path class="st4" d="M176.9,65.7c-3.7,0-7.1-0.6-9.6-1.9c-2.6-1.2-4.6-3-6-5.3c-1.4-2.3-2.2-5-2.3-8.2c0-0.9,0-1.9,0-3s0-2.2,0-3
				c0.1-3.2,1-5.9,2.4-8.2c1.4-2.3,3.5-4,6-5.2c2.6-1.2,5.8-1.9,9.4-1.9c3.7,0,6.9,0.6,9.5,1.9c2.6,1.2,4.6,3,6,5.2
				c1.4,2.3,2.3,5,2.4,8.2c0,0.9,0,1.9,0,3s0,2.2,0,3c-0.1,3.2-1,5.9-2.3,8.2c-1.4,2.3-3.3,4-6,5.3
				C183.9,65.2,180.8,65.7,176.9,65.7z M176.9,57.5c2,0,3.5-0.6,4.5-1.9c0.9-1.2,1.4-3,1.6-5.5c0-0.7,0-1.6,0-2.7c0-1.2,0-2,0-2.7
				c-0.1-2.4-0.7-4.2-1.6-5.5c-0.9-1.3-2.4-1.9-4.5-1.9c-2,0-3.5,0.6-4.3,1.9c-1,1.3-1.4,3-1.6,5.5c0,0.7,0,1.6,0,2.7
				c0,1.2,0,2,0,2.7c0.1,2.4,0.6,4.3,1.6,5.5C173.6,57,175,57.5,176.9,57.5z"/>
			<path class="st4" d="M214.9,65.7c-2.2,0-4.2-0.3-5.9-1c-1.7-0.7-3.2-1.7-4.5-3.2c-1.3-1.4-2.2-3-2.9-5c-0.7-2-1-4.2-1.2-6.8
				c0-0.9,0-1.7,0-2.4c0-0.7,0-1.4,0-2.4c0.1-2.4,0.4-4.6,1.2-6.6c0.7-2,1.6-3.6,2.9-5c1.2-1.4,2.7-2.4,4.5-3.2
				c1.7-0.7,3.7-1.2,5.9-1.2c2.3,0,4.2,0.4,5.9,1.2c1.6,0.7,3,1.7,4.2,2.9V18.5c0-0.4,0.1-0.9,0.4-1.2c0.3-0.3,0.7-0.4,1.2-0.4h8.4
				c0.4,0,0.9,0.1,1.2,0.4c0.3,0.3,0.6,0.7,0.6,1.2v44.9c0,0.4-0.1,0.9-0.6,1.2c-0.3,0.3-0.7,0.6-1.2,0.6h-7.6
				c-0.4,0-0.9-0.1-1.2-0.6c-0.3-0.3-0.4-0.7-0.4-1.2v-2.2c-1.2,1.3-2.4,2.4-4.2,3.3C219.5,65.3,217.5,65.7,214.9,65.7z M218.6,56.7
				c1.4,0,2.7-0.3,3.6-1c0.9-0.7,1.6-1.4,2-2.6c0.4-1,0.7-2.2,0.7-3.5c0-0.9,0-1.7,0-2.6c0-0.9,0-1.6,0-2.4c0-1.2-0.3-2.2-0.7-3.2
				c-0.4-1-1.2-1.7-2-2.4c-0.9-0.6-2-0.9-3.5-0.9s-2.7,0.3-3.6,1c-0.9,0.6-1.6,1.4-1.9,2.6c-0.4,1.2-0.6,2.3-0.7,3.6
				c-0.1,1.4-0.1,2.9,0,4.2s0.3,2.4,0.7,3.6c0.4,1.2,1,2,1.9,2.6C215.9,56.4,217.2,56.7,218.6,56.7z"/>
			<path class="st4" d="M255.2,65.7c-2.4,0-4.6-0.4-6.6-1.4c-1.9-0.9-3.5-2.2-4.6-3.7c-1.2-1.6-1.7-3.3-1.7-5.3
				c0-3.2,1.3-5.8,3.9-7.6c2.6-1.9,6-3.2,10.5-3.9l8.5-1.3v-1c0-1.6-0.3-2.9-1-3.7c-0.7-0.9-1.9-1.3-3.7-1.3c-1.3,0-2.3,0.3-3,0.7
				c-0.9,0.4-1.4,1.2-1.9,2c-0.4,0.6-1,0.9-1.7,0.9h-7.6c-0.4,0-0.9-0.1-1.2-0.4c-0.3-0.3-0.4-0.6-0.3-1c0-0.9,0.3-1.7,0.9-2.9
				c0.6-1,1.6-2.2,2.9-3.2c1.3-1,2.9-1.9,4.9-2.6c2-0.7,4.5-1,7.2-1c2.9,0,5.3,0.3,7.5,1c2,0.7,3.7,1.6,5,2.9
				c1.3,1.2,2.3,2.6,2.9,4.3c0.6,1.6,0.9,3.5,0.9,5.5v20.9c0,0.4-0.1,0.9-0.6,1.2c-0.3,0.3-0.7,0.6-1.2,0.6h-7.9
				c-0.4,0-0.9-0.1-1.2-0.6c-0.3-0.3-0.4-0.7-0.4-1.2V61c-0.6,0.9-1.4,1.6-2.4,2.4c-1,0.7-2.2,1.3-3.5,1.7
				C258.5,65.6,256.9,65.7,255.2,65.7z M258.4,58.1c1.3,0,2.4-0.3,3.6-0.9c1-0.6,1.9-1.4,2.4-2.6c0.6-1.2,0.9-2.7,0.9-4.5V49l-5.8,1
				c-2.2,0.4-3.7,0.9-4.6,1.7c-1,0.7-1.4,1.6-1.4,2.6c0,0.7,0.3,1.4,0.7,2c0.4,0.6,1,1,1.9,1.3C256.6,58,257.5,58.1,258.4,58.1z"/>
			<path class="st4" d="M302.4,65.2c-2.9,0-5.5-0.4-7.5-1.4c-2.2-0.9-3.7-2.4-4.9-4.3c-1.2-2-1.7-4.5-1.7-7.6V38.7H283
				c-0.4,0-0.9-0.1-1.3-0.4c-0.3-0.3-0.6-0.7-0.6-1.2v-5.5c0-0.4,0.1-0.9,0.6-1.2c0.3-0.3,0.7-0.4,1.3-0.4h5.3V18.8
				c0-0.4,0.1-0.9,0.6-1.2c0.3-0.3,0.7-0.4,1.2-0.4h7.9c0.4,0,0.9,0.1,1.2,0.4c0.3,0.3,0.4,0.7,0.4,1.2V30h8.5
				c0.4,0,0.9,0.1,1.3,0.4c0.3,0.3,0.6,0.7,0.6,1.2v5.5c0,0.4-0.1,0.9-0.6,1.2c-0.3,0.3-0.7,0.4-1.3,0.4h-8.5v12.1
				c0,1.6,0.3,2.7,0.9,3.6c0.6,0.9,1.6,1.3,3,1.3h5.2c0.4,0,0.9,0.1,1.2,0.4c0.3,0.3,0.4,0.7,0.4,1.2v6.2c0,0.4-0.1,0.9-0.4,1.2
				c-0.3,0.3-0.7,0.6-1.2,0.6H302.4z"/>
			<path class="st4" d="M326.8,65.7c-2.4,0-4.6-0.4-6.6-1.4c-1.9-0.9-3.5-2.2-4.6-3.7c-1.2-1.6-1.7-3.3-1.7-5.3
				c0-3.2,1.3-5.8,3.9-7.6s6-3.2,10.5-3.9l8.5-1.3v-1c0-1.6-0.3-2.9-1-3.7c-0.7-0.9-1.9-1.3-3.7-1.3c-1.3,0-2.3,0.3-3,0.7
				c-0.9,0.4-1.4,1.2-1.9,2c-0.4,0.6-1,0.9-1.7,0.9h-7.6c-0.4,0-0.9-0.1-1.2-0.4c-0.3-0.3-0.4-0.6-0.3-1c0-0.9,0.3-1.7,0.9-2.9
				c0.6-1,1.6-2.2,2.9-3.2c1.3-1,2.9-1.9,4.9-2.6c2-0.7,4.5-1,7.2-1c2.9,0,5.3,0.3,7.5,1c2,0.7,3.7,1.6,5,2.9
				c1.3,1.2,2.3,2.6,2.9,4.3c0.6,1.6,0.9,3.5,0.9,5.5v20.9c0,0.4-0.1,0.9-0.6,1.2c-0.3,0.3-0.7,0.6-1.2,0.6h-7.9
				c-0.4,0-0.9-0.1-1.2-0.6c-0.3-0.3-0.4-0.7-0.4-1.2V61c-0.6,0.9-1.4,1.6-2.4,2.4c-1,0.7-2.2,1.3-3.5,1.7
				C330.1,65.6,328.5,65.7,326.8,65.7z M329.9,58.1c1.3,0,2.4-0.3,3.6-0.9c1-0.6,1.9-1.4,2.4-2.6c0.6-1.2,0.9-2.7,0.9-4.5V49l-5.8,1
				c-2.2,0.4-3.7,0.9-4.6,1.7c-1,0.7-1.4,1.6-1.4,2.6c0,0.7,0.3,1.4,0.7,2c0.4,0.6,1,1,1.9,1.3C328.2,58,329.1,58.1,329.9,58.1z"/>
		</g>
	</g>
</g>
</svg>
